G04 Layer: TopLayer*
G04 EasyEDA v6.4.25, 2021-11-13T21:47:53+08:00*
G04 5f2a3f83ced14d76a3667b2aff7d93ec,987c639a94b84ffc8c6145f2c3ae8d38,10*
G04 Gerber Generator version 0.2*
G04 Scale: 100 percent, Rotated: No, Reflected: No *
G04 Dimensions in millimeters *
G04 leading zeros omitted , absolute positions ,4 integer and 5 decimal *
%FSLAX45Y45*%
%MOMM*%

%ADD10C,0.2540*%
%ADD11C,0.2000*%
%ADD12C,0.3500*%
%ADD13C,0.6096*%
%ADD14C,0.5000*%
%ADD17R,0.9000X0.8000*%
%ADD18R,1.9600X1.0000*%
%ADD20R,1.0000X0.6000*%
%ADD21R,0.8000X0.8000*%
%ADD22R,0.8000X0.5000*%
%ADD23R,1.9500X1.9500*%
%ADD24R,0.5400X0.7901*%
%ADD25R,0.9500X1.1500*%
%ADD26R,3.0000X1.0000*%
%ADD27R,1.0000X1.5500*%
%ADD28R,1.2500X0.7000*%
%ADD31R,0.8640X0.8065*%
%ADD32R,0.5400X0.5657*%
%ADD33C,1.5748*%
%ADD35C,2.0000*%

%LPD*%
G36*
X804672Y15660420D02*
G01*
X788111Y15661386D01*
X773328Y15663976D01*
X758901Y15668193D01*
X745032Y15673984D01*
X731926Y15681299D01*
X719683Y15690088D01*
X708507Y15700146D01*
X698550Y15711373D01*
X689914Y15723666D01*
X682701Y15736874D01*
X677011Y15750794D01*
X672896Y15765221D01*
X670458Y15780054D01*
X669594Y15795498D01*
X669594Y16973499D01*
X670560Y16990060D01*
X673150Y17004893D01*
X677367Y17019320D01*
X683209Y17033138D01*
X690524Y17046295D01*
X699262Y17058487D01*
X709320Y17069663D01*
X720598Y17079620D01*
X732891Y17088256D01*
X746048Y17095520D01*
X759968Y17101210D01*
X774446Y17105274D01*
X789279Y17107763D01*
X804672Y17108576D01*
X4282744Y17108576D01*
X4299254Y17107611D01*
X4314088Y17105020D01*
X4328515Y17100804D01*
X4342384Y17095012D01*
X4355490Y17087697D01*
X4367682Y17078909D01*
X4378858Y17068850D01*
X4388815Y17057624D01*
X4397502Y17045330D01*
X4404715Y17032122D01*
X4410405Y17018203D01*
X4414469Y17003776D01*
X4416958Y16988942D01*
X4417771Y16973499D01*
X4417771Y15795498D01*
X4416806Y15778937D01*
X4414215Y15764103D01*
X4409998Y15749676D01*
X4404207Y15735858D01*
X4396892Y15722701D01*
X4388104Y15710509D01*
X4378045Y15699333D01*
X4366818Y15689376D01*
X4354525Y15680740D01*
X4341317Y15673527D01*
X4327448Y15667786D01*
X4312970Y15663722D01*
X4298137Y15661233D01*
X4282744Y15660420D01*
G37*

%LPC*%
G36*
X3334004Y15684957D02*
G01*
X3389426Y15684957D01*
X3394557Y15685566D01*
X3403092Y15688919D01*
X3406901Y15688919D01*
X3411118Y15687040D01*
X3415436Y15685566D01*
X3420567Y15684957D01*
X3475990Y15684957D01*
X3481120Y15685566D01*
X3485438Y15687040D01*
X3489299Y15689478D01*
X3492550Y15692729D01*
X3495954Y15697098D01*
X3498951Y15698724D01*
X3502304Y15699282D01*
X3739387Y15699282D01*
X3746804Y15700095D01*
X3753358Y15702229D01*
X3759504Y15705785D01*
X3763670Y15709290D01*
X3907739Y15853410D01*
X3911041Y15855594D01*
X3914901Y15856356D01*
X3918813Y15855594D01*
X3922115Y15853410D01*
X3931158Y15844367D01*
X3936949Y15839694D01*
X3943248Y15836493D01*
X3947972Y15835071D01*
X3954119Y15834410D01*
X3957726Y15833344D01*
X3960723Y15830956D01*
X3962603Y15827654D01*
X3964025Y15823590D01*
X3966464Y15819729D01*
X3969715Y15816478D01*
X3973576Y15814040D01*
X3977894Y15812566D01*
X3983024Y15811957D01*
X4106875Y15811957D01*
X4112006Y15812566D01*
X4116324Y15814040D01*
X4120184Y15816478D01*
X4123436Y15819729D01*
X4125874Y15823590D01*
X4127398Y15827908D01*
X4127957Y15833039D01*
X4127957Y15901924D01*
X4127398Y15907004D01*
X4125874Y15911322D01*
X4123436Y15915233D01*
X4120184Y15918434D01*
X4116324Y15920872D01*
X4112006Y15922396D01*
X4106875Y15922955D01*
X3983024Y15922955D01*
X3977894Y15922396D01*
X3973576Y15920872D01*
X3969715Y15918434D01*
X3967530Y15916249D01*
X3964228Y15914065D01*
X3960317Y15913252D01*
X3956456Y15914065D01*
X3953154Y15916249D01*
X3951173Y15918230D01*
X3948937Y15921532D01*
X3948176Y15925444D01*
X3948176Y16034461D01*
X3947414Y16041878D01*
X3945280Y16048431D01*
X3941724Y16054578D01*
X3938168Y16058743D01*
X3901338Y16095573D01*
X3895547Y16100247D01*
X3889349Y16103396D01*
X3882542Y16105225D01*
X3877106Y16105682D01*
X3805936Y16105682D01*
X3802075Y16106444D01*
X3798773Y16108629D01*
X3665982Y16241420D01*
X3663746Y16244722D01*
X3662984Y16248634D01*
X3662984Y16299383D01*
X3662426Y16304513D01*
X3660901Y16308832D01*
X3658463Y16312692D01*
X3655212Y16315944D01*
X3651351Y16318382D01*
X3645966Y16320262D01*
X3642410Y16322395D01*
X3640023Y16325799D01*
X3639159Y16330066D01*
X3640023Y16334130D01*
X3642410Y16337534D01*
X3645966Y16339667D01*
X3651351Y16341547D01*
X3655212Y16343985D01*
X3658463Y16347236D01*
X3663340Y16355517D01*
X3666744Y16357955D01*
X3670808Y16358768D01*
X3953154Y16359124D01*
X3957218Y16358260D01*
X3960622Y16355872D01*
X3962755Y16352316D01*
X3964025Y16348608D01*
X3966464Y16344747D01*
X3969715Y16341496D01*
X3973576Y16339057D01*
X3977894Y16337534D01*
X3983024Y16336975D01*
X4106875Y16336975D01*
X4112006Y16337534D01*
X4116324Y16339057D01*
X4120184Y16341496D01*
X4123436Y16344747D01*
X4125874Y16348608D01*
X4127398Y16352926D01*
X4127957Y16358057D01*
X4127957Y16426891D01*
X4127398Y16432022D01*
X4125874Y16436340D01*
X4123436Y16440200D01*
X4120184Y16443451D01*
X4116324Y16445890D01*
X4112006Y16447414D01*
X4106875Y16447973D01*
X3983024Y16447973D01*
X3977894Y16447414D01*
X3973576Y16445890D01*
X3969715Y16443451D01*
X3966464Y16440200D01*
X3964025Y16436340D01*
X3962654Y16432276D01*
X3960520Y16428770D01*
X3957116Y16426332D01*
X3953052Y16425519D01*
X3882898Y16425418D01*
X3878681Y16426332D01*
X3875227Y16428872D01*
X3873144Y16432631D01*
X3872839Y16436949D01*
X3874312Y16440962D01*
X3875938Y16443604D01*
X3877462Y16447922D01*
X3878021Y16453053D01*
X3878021Y16521887D01*
X3877462Y16527018D01*
X3875938Y16531336D01*
X3873500Y16535196D01*
X3870248Y16538448D01*
X3866387Y16540886D01*
X3862070Y16542410D01*
X3856939Y16542969D01*
X3838397Y16542969D01*
X3834485Y16543731D01*
X3831183Y16545915D01*
X3828999Y16549217D01*
X3828186Y16553129D01*
X3828186Y16557040D01*
X3828999Y16560952D01*
X3831183Y16564254D01*
X3957065Y16690136D01*
X3959860Y16692067D01*
X3963111Y16693032D01*
X3966514Y16692829D01*
X3969664Y16691559D01*
X3973576Y16689069D01*
X3977894Y16687546D01*
X3983024Y16686987D01*
X4106875Y16686987D01*
X4112006Y16687546D01*
X4116324Y16689069D01*
X4120184Y16691508D01*
X4123436Y16694708D01*
X4125874Y16698620D01*
X4127398Y16702938D01*
X4127957Y16708018D01*
X4127957Y16776903D01*
X4127398Y16782034D01*
X4125874Y16786352D01*
X4123436Y16790212D01*
X4120184Y16793464D01*
X4116324Y16795902D01*
X4112006Y16797375D01*
X4106875Y16797985D01*
X4041952Y16797985D01*
X4038041Y16798747D01*
X4034739Y16800931D01*
X4032554Y16804233D01*
X4031792Y16808145D01*
X4032554Y16812006D01*
X4034739Y16815308D01*
X4068064Y16848582D01*
X4072737Y16854424D01*
X4075937Y16860723D01*
X4077411Y16865600D01*
X4077766Y16868241D01*
X4078884Y16871645D01*
X4081170Y16874490D01*
X4084269Y16876318D01*
X4087825Y16876979D01*
X4106875Y16876979D01*
X4112006Y16877538D01*
X4116324Y16879062D01*
X4120184Y16881500D01*
X4123436Y16884700D01*
X4125874Y16888612D01*
X4127398Y16892930D01*
X4127957Y16898010D01*
X4127957Y16966895D01*
X4127398Y16972026D01*
X4125874Y16976344D01*
X4123436Y16980204D01*
X4120184Y16983456D01*
X4116324Y16985894D01*
X4112006Y16987367D01*
X4106875Y16987977D01*
X3983024Y16987977D01*
X3977894Y16987367D01*
X3973576Y16985894D01*
X3969715Y16983456D01*
X3966464Y16980204D01*
X3964025Y16976344D01*
X3962552Y16972026D01*
X3961942Y16966895D01*
X3961942Y16898010D01*
X3962552Y16892930D01*
X3964025Y16888612D01*
X3966464Y16884700D01*
X3969715Y16881500D01*
X3973576Y16879062D01*
X3976878Y16877893D01*
X3980332Y16875861D01*
X3982720Y16872559D01*
X3983685Y16868648D01*
X3982974Y16864634D01*
X3980789Y16861231D01*
X3977487Y16858945D01*
X3973525Y16858132D01*
X3932936Y16858132D01*
X3925519Y16857370D01*
X3918965Y16855236D01*
X3912819Y16851680D01*
X3908653Y16848175D01*
X3895344Y16834866D01*
X3892092Y16832630D01*
X3888181Y16831868D01*
X3884269Y16832630D01*
X3881018Y16834866D01*
X3878783Y16838168D01*
X3878021Y16842028D01*
X3878021Y16871899D01*
X3877462Y16877030D01*
X3875938Y16881348D01*
X3873500Y16885208D01*
X3870248Y16888460D01*
X3866387Y16890898D01*
X3862070Y16892371D01*
X3856939Y16892981D01*
X3733088Y16892981D01*
X3727958Y16892371D01*
X3723640Y16890898D01*
X3719779Y16888460D01*
X3716528Y16885208D01*
X3714089Y16881348D01*
X3712616Y16877030D01*
X3712006Y16871899D01*
X3712006Y16803014D01*
X3712616Y16797934D01*
X3714089Y16793616D01*
X3716528Y16789704D01*
X3719779Y16786504D01*
X3723640Y16784066D01*
X3727958Y16782542D01*
X3733088Y16781983D01*
X3817975Y16781983D01*
X3821836Y16781170D01*
X3825138Y16778986D01*
X3827322Y16775684D01*
X3828135Y16771823D01*
X3827322Y16767911D01*
X3825138Y16764609D01*
X3678529Y16618000D01*
X3675227Y16615816D01*
X3671366Y16615054D01*
X3667455Y16615816D01*
X3664153Y16618000D01*
X3661968Y16621302D01*
X3661206Y16625214D01*
X3661206Y16629380D01*
X3660597Y16634510D01*
X3659124Y16638828D01*
X3656685Y16642689D01*
X3653434Y16645940D01*
X3649573Y16648379D01*
X3645255Y16649903D01*
X3640124Y16650462D01*
X3579114Y16650462D01*
X3575253Y16651224D01*
X3571951Y16653459D01*
X3569715Y16656761D01*
X3568954Y16660622D01*
X3569715Y16664533D01*
X3571951Y16667784D01*
X3580637Y16676471D01*
X3583940Y16678706D01*
X3587800Y16679468D01*
X3640124Y16679468D01*
X3645255Y16680027D01*
X3649573Y16681551D01*
X3653434Y16683990D01*
X3656685Y16687241D01*
X3659124Y16691101D01*
X3660597Y16695419D01*
X3661206Y16700550D01*
X3661206Y16780052D01*
X3660597Y16785183D01*
X3659124Y16789501D01*
X3656685Y16793362D01*
X3653434Y16796613D01*
X3649573Y16799001D01*
X3645255Y16800525D01*
X3639718Y16801134D01*
X3636213Y16802252D01*
X3633266Y16804487D01*
X3631387Y16807637D01*
X3630726Y16811244D01*
X3630726Y16872712D01*
X3631285Y16876064D01*
X3632911Y16879062D01*
X3637229Y16882414D01*
X3640480Y16885666D01*
X3642918Y16889526D01*
X3644392Y16893844D01*
X3645001Y16898975D01*
X3645001Y16954398D01*
X3644392Y16959529D01*
X3642918Y16963847D01*
X3640480Y16967708D01*
X3637229Y16970959D01*
X3633368Y16973397D01*
X3629050Y16974870D01*
X3623919Y16975480D01*
X3571087Y16975480D01*
X3565956Y16974870D01*
X3561638Y16973397D01*
X3557778Y16970959D01*
X3554526Y16967708D01*
X3552088Y16963847D01*
X3550564Y16959529D01*
X3550005Y16954398D01*
X3550005Y16898975D01*
X3550564Y16893844D01*
X3552088Y16889526D01*
X3554526Y16885666D01*
X3557778Y16882414D01*
X3562096Y16879011D01*
X3563721Y16876064D01*
X3564331Y16872712D01*
X3564331Y16811244D01*
X3563620Y16807637D01*
X3561740Y16804487D01*
X3558794Y16802252D01*
X3555288Y16801185D01*
X3549751Y16800525D01*
X3545433Y16799001D01*
X3541572Y16796613D01*
X3538321Y16793362D01*
X3535883Y16789501D01*
X3534359Y16785183D01*
X3533800Y16780052D01*
X3533800Y16727779D01*
X3533038Y16723868D01*
X3530803Y16720616D01*
X3436162Y16625925D01*
X3432860Y16623741D01*
X3429000Y16622979D01*
X3378962Y16622979D01*
X3373831Y16622369D01*
X3369513Y16620896D01*
X3365652Y16618457D01*
X3362401Y16615206D01*
X3359962Y16611346D01*
X3358489Y16607028D01*
X3357879Y16601897D01*
X3357879Y16513200D01*
X3357118Y16509339D01*
X3354933Y16506037D01*
X3351631Y16503853D01*
X3347720Y16503040D01*
X3272231Y16503040D01*
X3268370Y16503853D01*
X3265068Y16506037D01*
X3262884Y16509339D01*
X3262071Y16513200D01*
X3262071Y16601897D01*
X3261512Y16607028D01*
X3259988Y16611346D01*
X3257550Y16615206D01*
X3254349Y16618457D01*
X3250438Y16620896D01*
X3246120Y16622369D01*
X3241040Y16622979D01*
X3188970Y16622979D01*
X3183839Y16622369D01*
X3179521Y16620896D01*
X3175660Y16618457D01*
X3172409Y16615206D01*
X3169970Y16611346D01*
X3168446Y16607028D01*
X3167888Y16601897D01*
X3167888Y16593312D01*
X3167126Y16589451D01*
X3164941Y16586149D01*
X3161639Y16583913D01*
X3157778Y16583151D01*
X3071114Y16582898D01*
X3067202Y16583660D01*
X3063900Y16585844D01*
X3061716Y16589146D01*
X3060903Y16593057D01*
X3060903Y16598442D01*
X3060344Y16603573D01*
X3058820Y16607891D01*
X3056382Y16611752D01*
X3053181Y16615003D01*
X3049270Y16617442D01*
X3044952Y16618966D01*
X3039872Y16619524D01*
X2740964Y16619524D01*
X2735884Y16618966D01*
X2731566Y16617442D01*
X2727655Y16615003D01*
X2724454Y16611752D01*
X2722016Y16607891D01*
X2720492Y16603573D01*
X2719933Y16598442D01*
X2719933Y16499586D01*
X2720492Y16494506D01*
X2722016Y16490188D01*
X2724454Y16486276D01*
X2727655Y16483076D01*
X2731566Y16480637D01*
X2735884Y16479113D01*
X2740964Y16478554D01*
X2847187Y16478554D01*
X2851048Y16477742D01*
X2854350Y16475557D01*
X2856534Y16472255D01*
X2857347Y16468394D01*
X2857347Y16430955D01*
X2856534Y16427094D01*
X2854350Y16423792D01*
X2806090Y16375684D01*
X2802788Y16373500D01*
X2798876Y16372738D01*
X2795016Y16373500D01*
X2791714Y16375684D01*
X2789529Y16378986D01*
X2788767Y16382898D01*
X2788767Y16392296D01*
X2788158Y16397427D01*
X2786684Y16401745D01*
X2784246Y16405606D01*
X2780995Y16408857D01*
X2777134Y16411295D01*
X2772816Y16412819D01*
X2767685Y16413378D01*
X2678226Y16413378D01*
X2674569Y16414038D01*
X2671419Y16415969D01*
X2669184Y16418915D01*
X2668117Y16422471D01*
X2667406Y16429278D01*
X2665272Y16435832D01*
X2661716Y16441978D01*
X2658262Y16446042D01*
X2610408Y16494150D01*
X2604617Y16498874D01*
X2598420Y16502024D01*
X2591612Y16503904D01*
X2586075Y16504310D01*
X2557830Y16504310D01*
X2555341Y16504615D01*
X2552039Y16506088D01*
X2544876Y16508222D01*
X2537002Y16509034D01*
X2472994Y16509034D01*
X2465070Y16508222D01*
X2453233Y16504564D01*
X2448966Y16505174D01*
X2445359Y16507510D01*
X2443073Y16511117D01*
X2442413Y16515384D01*
X2446274Y16527576D01*
X2447036Y16535450D01*
X2447036Y16599458D01*
X2446274Y16607383D01*
X2444089Y16614495D01*
X2442565Y16618000D01*
X2442260Y16620490D01*
X2442260Y16633596D01*
X2443022Y16637457D01*
X2445258Y16640759D01*
X2455773Y16651274D01*
X2459075Y16653510D01*
X2462936Y16654272D01*
X2555341Y16654272D01*
X2558440Y16653763D01*
X2561234Y16652392D01*
X2567279Y16648125D01*
X2575153Y16644518D01*
X2583535Y16642486D01*
X2592171Y16642080D01*
X2600706Y16643299D01*
X2608884Y16646144D01*
X2616352Y16650462D01*
X2622905Y16656100D01*
X2628239Y16662907D01*
X2632202Y16670578D01*
X2634640Y16678859D01*
X2635453Y16687444D01*
X2634640Y16696080D01*
X2632202Y16704360D01*
X2628239Y16712031D01*
X2622905Y16718838D01*
X2616352Y16724477D01*
X2608884Y16728795D01*
X2600706Y16731640D01*
X2592171Y16732859D01*
X2583535Y16732453D01*
X2575153Y16730421D01*
X2567279Y16726814D01*
X2561234Y16722547D01*
X2558440Y16721124D01*
X2555341Y16720667D01*
X2445512Y16720667D01*
X2438095Y16719905D01*
X2431542Y16717721D01*
X2425395Y16714216D01*
X2421229Y16710660D01*
X2386025Y16675455D01*
X2380386Y16668292D01*
X2377694Y16665905D01*
X2374341Y16664584D01*
X2370734Y16664533D01*
X2366365Y16666311D01*
X2358186Y16669156D01*
X2349652Y16670375D01*
X2341016Y16669969D01*
X2332634Y16667937D01*
X2324760Y16664330D01*
X2316937Y16658742D01*
X2312822Y16657015D01*
X2308352Y16657218D01*
X2304389Y16659351D01*
X2301341Y16661993D01*
X2293874Y16666311D01*
X2285695Y16669156D01*
X2277160Y16670375D01*
X2268524Y16669969D01*
X2260142Y16667937D01*
X2252268Y16664330D01*
X2245207Y16659301D01*
X2239264Y16653052D01*
X2238095Y16651224D01*
X2234895Y16648074D01*
X2230628Y16646601D01*
X2226157Y16647160D01*
X2222347Y16649547D01*
X2206091Y16665803D01*
X2203907Y16669105D01*
X2203145Y16673017D01*
X2203145Y16741952D01*
X2203907Y16745864D01*
X2206091Y16749166D01*
X2235809Y16778884D01*
X2239111Y16781068D01*
X2243023Y16781830D01*
X2382520Y16781830D01*
X2389936Y16782643D01*
X2396490Y16784777D01*
X2402636Y16788333D01*
X2406802Y16791838D01*
X2490622Y16875709D01*
X2493822Y16877893D01*
X2497632Y16878655D01*
X2501442Y16877995D01*
X2508605Y16875252D01*
X2521508Y16872153D01*
X2534666Y16870832D01*
X2547924Y16871289D01*
X2560980Y16873474D01*
X2573680Y16877436D01*
X2585669Y16883024D01*
X2596845Y16890136D01*
X2606954Y16898670D01*
X2615844Y16908526D01*
X2623362Y16919448D01*
X2629357Y16931284D01*
X2633675Y16943781D01*
X2636316Y16956786D01*
X2637231Y16969994D01*
X2636316Y16983252D01*
X2633675Y16996206D01*
X2629357Y17008754D01*
X2623362Y17020590D01*
X2615844Y17031512D01*
X2606954Y17041317D01*
X2596845Y17049902D01*
X2585669Y17057014D01*
X2573680Y17062602D01*
X2560980Y17066514D01*
X2547924Y17068749D01*
X2534666Y17069155D01*
X2521508Y17067834D01*
X2508605Y17064786D01*
X2496261Y17060011D01*
X2484628Y17053661D01*
X2473960Y17045787D01*
X2464409Y17036542D01*
X2456180Y17026178D01*
X2449474Y17014748D01*
X2444292Y17002556D01*
X2440787Y16989755D01*
X2439009Y16976648D01*
X2439009Y16963390D01*
X2440787Y16950232D01*
X2444292Y16937482D01*
X2445816Y16933773D01*
X2446629Y16929862D01*
X2445867Y16925950D01*
X2443683Y16922648D01*
X2372258Y16851223D01*
X2368956Y16849039D01*
X2365044Y16848226D01*
X2233726Y16848226D01*
X2229815Y16849039D01*
X2226513Y16851223D01*
X2224328Y16854525D01*
X2223566Y16858386D01*
X2224328Y16862298D01*
X2226513Y16865600D01*
X2236622Y16875709D01*
X2239873Y16877842D01*
X2243632Y16878655D01*
X2247493Y16877995D01*
X2254605Y16875252D01*
X2267508Y16872153D01*
X2280666Y16870832D01*
X2293924Y16871289D01*
X2306980Y16873474D01*
X2319680Y16877436D01*
X2331669Y16883024D01*
X2342845Y16890136D01*
X2352954Y16898670D01*
X2361844Y16908526D01*
X2369362Y16919448D01*
X2375357Y16931284D01*
X2379675Y16943781D01*
X2382316Y16956786D01*
X2383231Y16969994D01*
X2382316Y16983252D01*
X2379675Y16996206D01*
X2375357Y17008754D01*
X2369362Y17020590D01*
X2361844Y17031512D01*
X2352954Y17041317D01*
X2342845Y17049902D01*
X2331669Y17057014D01*
X2319680Y17062602D01*
X2306980Y17066514D01*
X2293924Y17068749D01*
X2280666Y17069155D01*
X2267508Y17067834D01*
X2254605Y17064786D01*
X2242261Y17060011D01*
X2230628Y17053661D01*
X2219960Y17045787D01*
X2210409Y17036542D01*
X2202180Y17026178D01*
X2195474Y17014748D01*
X2190292Y17002556D01*
X2186787Y16989755D01*
X2185009Y16976648D01*
X2185009Y16963390D01*
X2186787Y16950232D01*
X2190292Y16937482D01*
X2191816Y16933773D01*
X2192629Y16929862D01*
X2191867Y16925950D01*
X2189683Y16922648D01*
X2091893Y16824858D01*
X2087219Y16819067D01*
X2084070Y16812869D01*
X2082241Y16806062D01*
X2081784Y16800626D01*
X2081784Y16518331D01*
X2080920Y16514114D01*
X2078329Y16510660D01*
X2074570Y16508577D01*
X2067966Y16506596D01*
X2061413Y16503091D01*
X2055672Y16498366D01*
X2050948Y16492626D01*
X2047443Y16486073D01*
X2045258Y16478910D01*
X2044547Y16471544D01*
X2045258Y16464127D01*
X2047443Y16457015D01*
X2048611Y16454780D01*
X2049780Y16450767D01*
X2049272Y16446652D01*
X2047138Y16443096D01*
X2043734Y16440657D01*
X2039670Y16439794D01*
X1853895Y16439794D01*
X1849983Y16440607D01*
X1846681Y16442791D01*
X1840992Y16448481D01*
X1838756Y16451783D01*
X1837994Y16455694D01*
X1837994Y16496893D01*
X1837436Y16501973D01*
X1835912Y16506291D01*
X1833473Y16510203D01*
X1830273Y16513403D01*
X1826361Y16515842D01*
X1822043Y16517366D01*
X1816963Y16517924D01*
X1803349Y16517924D01*
X1799488Y16518737D01*
X1796186Y16520922D01*
X1794002Y16524224D01*
X1793189Y16528084D01*
X1793189Y16570248D01*
X1794154Y16574516D01*
X1796745Y16577970D01*
X1800555Y16580053D01*
X1804873Y16580307D01*
X1808937Y16578783D01*
X1815490Y16571976D01*
X1819351Y16569537D01*
X1823669Y16568064D01*
X1828800Y16567454D01*
X1906676Y16567454D01*
X1911807Y16568064D01*
X1916125Y16569537D01*
X1919986Y16571976D01*
X1923237Y16575227D01*
X1925675Y16579088D01*
X1927148Y16583406D01*
X1927758Y16588536D01*
X1927758Y16641419D01*
X1927148Y16646499D01*
X1925675Y16650817D01*
X1923237Y16654729D01*
X1919986Y16657929D01*
X1916125Y16660368D01*
X1911807Y16661892D01*
X1906676Y16662450D01*
X1828800Y16662450D01*
X1823669Y16661892D01*
X1819351Y16660368D01*
X1815490Y16657929D01*
X1808937Y16651173D01*
X1804873Y16649598D01*
X1800555Y16649903D01*
X1796745Y16651986D01*
X1794154Y16655440D01*
X1793189Y16659656D01*
X1793189Y16864228D01*
X1794103Y16868394D01*
X1796643Y16871848D01*
X1800352Y16873931D01*
X1811680Y16877436D01*
X1823669Y16883024D01*
X1834845Y16890136D01*
X1844954Y16898670D01*
X1853844Y16908526D01*
X1861362Y16919448D01*
X1867357Y16931284D01*
X1871675Y16943781D01*
X1874316Y16956786D01*
X1875231Y16969994D01*
X1874316Y16983252D01*
X1871675Y16996206D01*
X1867357Y17008754D01*
X1861362Y17020590D01*
X1853844Y17031512D01*
X1844954Y17041317D01*
X1834845Y17049902D01*
X1823669Y17057014D01*
X1811680Y17062602D01*
X1798980Y17066514D01*
X1785924Y17068749D01*
X1772666Y17069155D01*
X1759508Y17067834D01*
X1746605Y17064786D01*
X1734261Y17060011D01*
X1722628Y17053661D01*
X1711960Y17045787D01*
X1702409Y17036542D01*
X1694180Y17026178D01*
X1687474Y17014748D01*
X1682292Y17002556D01*
X1678787Y16989755D01*
X1677009Y16976648D01*
X1677009Y16963390D01*
X1678787Y16950232D01*
X1682292Y16937482D01*
X1687474Y16925239D01*
X1694180Y16913860D01*
X1702409Y16903446D01*
X1711960Y16894251D01*
X1722678Y16886326D01*
X1724914Y16884091D01*
X1726336Y16881297D01*
X1726793Y16878147D01*
X1726793Y16528034D01*
X1726133Y16524376D01*
X1724253Y16521226D01*
X1721307Y16518991D01*
X1717802Y16517924D01*
X1712975Y16517366D01*
X1708657Y16515842D01*
X1704746Y16513403D01*
X1701546Y16510203D01*
X1699107Y16506291D01*
X1697583Y16501973D01*
X1697024Y16496893D01*
X1697024Y16438016D01*
X1697583Y16432885D01*
X1699107Y16428567D01*
X1701546Y16424706D01*
X1704746Y16421455D01*
X1708657Y16419017D01*
X1712975Y16417544D01*
X1718056Y16416934D01*
X1774443Y16416934D01*
X1778304Y16416172D01*
X1781606Y16413988D01*
X1812036Y16383507D01*
X1817878Y16378834D01*
X1824177Y16375634D01*
X1828952Y16374211D01*
X1832508Y16373754D01*
X1836013Y16372687D01*
X1838909Y16370452D01*
X1840788Y16367302D01*
X1841449Y16363696D01*
X1841449Y16334740D01*
X1840738Y16330930D01*
X1838604Y16327678D01*
X1835404Y16325443D01*
X1831644Y16324580D01*
X1827784Y16325240D01*
X1821942Y16327374D01*
X1816912Y16327932D01*
X1718056Y16327932D01*
X1712975Y16327374D01*
X1708657Y16325850D01*
X1704746Y16323411D01*
X1701546Y16320211D01*
X1699107Y16316299D01*
X1697583Y16311981D01*
X1697024Y16306901D01*
X1697024Y16248024D01*
X1697583Y16242893D01*
X1699107Y16238575D01*
X1701546Y16234714D01*
X1704746Y16231463D01*
X1708657Y16229025D01*
X1712975Y16227551D01*
X1718056Y16226942D01*
X1816912Y16226942D01*
X1821942Y16227501D01*
X1827784Y16229685D01*
X1831644Y16230295D01*
X1835404Y16229431D01*
X1838604Y16227247D01*
X1840738Y16223996D01*
X1841449Y16220135D01*
X1841449Y16187623D01*
X1840687Y16183762D01*
X1838502Y16180460D01*
X1835200Y16178276D01*
X1831289Y16177463D01*
X1828800Y16177463D01*
X1823720Y16176904D01*
X1819402Y16175380D01*
X1815490Y16172942D01*
X1812289Y16169741D01*
X1809851Y16165830D01*
X1808327Y16161512D01*
X1807768Y16156432D01*
X1807768Y16103549D01*
X1808327Y16098418D01*
X1809851Y16094100D01*
X1812289Y16090239D01*
X1815490Y16086988D01*
X1819402Y16084550D01*
X1823720Y16083076D01*
X1828952Y16081806D01*
X1831898Y16079520D01*
X1833778Y16076371D01*
X1834489Y16072764D01*
X1834489Y16050209D01*
X1833676Y16046297D01*
X1831492Y16042995D01*
X1732178Y15943681D01*
X1728876Y15941497D01*
X1724964Y15940684D01*
X1363218Y15940684D01*
X1355801Y15939922D01*
X1349248Y15937788D01*
X1343152Y15934283D01*
X1338783Y15930524D01*
X1321409Y15912896D01*
X1316736Y15907054D01*
X1313688Y15901009D01*
X1311757Y15898317D01*
X1309014Y15896437D01*
X1305763Y15895523D01*
X1300429Y15894913D01*
X1296111Y15893389D01*
X1292250Y15890951D01*
X1288999Y15887700D01*
X1286611Y15883839D01*
X1285087Y15879521D01*
X1284478Y15874390D01*
X1284478Y15825571D01*
X1285087Y15820440D01*
X1286611Y15816122D01*
X1288999Y15812262D01*
X1295857Y15805759D01*
X1297482Y15802000D01*
X1297482Y15797936D01*
X1295857Y15794177D01*
X1288999Y15787725D01*
X1286611Y15783864D01*
X1285087Y15779546D01*
X1284478Y15774416D01*
X1284478Y15725546D01*
X1285087Y15720415D01*
X1286611Y15716097D01*
X1288999Y15712236D01*
X1292250Y15708985D01*
X1296111Y15706547D01*
X1300429Y15705074D01*
X1305560Y15704464D01*
X1384452Y15704464D01*
X1389532Y15705074D01*
X1393850Y15706547D01*
X1397762Y15708985D01*
X1403248Y15714675D01*
X1406194Y15716250D01*
X1409446Y15716757D01*
X1494383Y15716757D01*
X1501800Y15717570D01*
X1508404Y15719704D01*
X1514500Y15723209D01*
X1518666Y15726765D01*
X1528368Y15736519D01*
X1531670Y15738703D01*
X1535582Y15739465D01*
X1584350Y15739465D01*
X1589430Y15740075D01*
X1593748Y15741548D01*
X1597660Y15743986D01*
X1600860Y15747238D01*
X1603298Y15751098D01*
X1604822Y15755416D01*
X1605381Y15760547D01*
X1605381Y15839389D01*
X1604822Y15844519D01*
X1603298Y15848838D01*
X1600911Y15852648D01*
X1596593Y15856864D01*
X1594358Y15860166D01*
X1593545Y15864078D01*
X1594307Y15867989D01*
X1596491Y15871291D01*
X1599793Y15873526D01*
X1603705Y15874288D01*
X1742439Y15874288D01*
X1749856Y15875101D01*
X1756410Y15877235D01*
X1762556Y15880791D01*
X1766722Y15884296D01*
X1878431Y15996056D01*
X1881733Y15998240D01*
X1885645Y15999002D01*
X2376678Y15999002D01*
X2384094Y15999815D01*
X2390648Y16001949D01*
X2396794Y16005505D01*
X2400960Y16009010D01*
X2419451Y16027552D01*
X2422753Y16029736D01*
X2426665Y16030498D01*
X2709367Y16030498D01*
X2713228Y16029736D01*
X2716530Y16027552D01*
X2718714Y16024250D01*
X2719527Y16020338D01*
X2719527Y15986810D01*
X2720086Y15981680D01*
X2721610Y15977362D01*
X2724048Y15973501D01*
X2727248Y15970250D01*
X2731160Y15967811D01*
X2735478Y15966338D01*
X2740558Y15965728D01*
X2839415Y15965728D01*
X2844546Y15966338D01*
X2848864Y15967811D01*
X2852724Y15970250D01*
X2855976Y15973501D01*
X2858414Y15977362D01*
X2859938Y15981680D01*
X2860497Y15986810D01*
X2860497Y16140684D01*
X2859938Y16145763D01*
X2858414Y16150082D01*
X2855976Y16153993D01*
X2852724Y16157194D01*
X2851404Y16158057D01*
X2848305Y16161105D01*
X2846730Y16165169D01*
X2847035Y16169487D01*
X2849118Y16173297D01*
X2852572Y16175888D01*
X2856788Y16176802D01*
X2923235Y16176802D01*
X2927451Y16175888D01*
X2930906Y16173297D01*
X2932988Y16169487D01*
X2933242Y16165169D01*
X2931718Y16161105D01*
X2928620Y16158057D01*
X2927248Y16157194D01*
X2924048Y16153993D01*
X2921609Y16150082D01*
X2920085Y16145763D01*
X2919526Y16140684D01*
X2919526Y15986810D01*
X2920085Y15981680D01*
X2921609Y15977362D01*
X2924048Y15973501D01*
X2927248Y15970250D01*
X2931160Y15967811D01*
X2935478Y15966338D01*
X2940558Y15965728D01*
X2946654Y15965728D01*
X2950514Y15964966D01*
X2953816Y15962782D01*
X2956052Y15959480D01*
X2956814Y15955568D01*
X2956814Y15915487D01*
X2957576Y15908070D01*
X2959709Y15901466D01*
X2963265Y15895370D01*
X2966821Y15891205D01*
X3026613Y15831362D01*
X3032455Y15826689D01*
X3038602Y15823539D01*
X3045409Y15821710D01*
X3050895Y15821253D01*
X3117748Y15821253D01*
X3121406Y15820593D01*
X3124555Y15818713D01*
X3126790Y15815767D01*
X3128060Y15810433D01*
X3129584Y15806115D01*
X3132023Y15802254D01*
X3135274Y15799003D01*
X3139135Y15796564D01*
X3143453Y15795040D01*
X3148584Y15794482D01*
X3201416Y15794482D01*
X3206546Y15795040D01*
X3210864Y15796564D01*
X3214725Y15799003D01*
X3217976Y15802254D01*
X3220415Y15806115D01*
X3221939Y15810433D01*
X3222498Y15815563D01*
X3222498Y15824098D01*
X3223260Y15828010D01*
X3225444Y15831312D01*
X3228746Y15833496D01*
X3232658Y15834258D01*
X3307740Y15834258D01*
X3311093Y15833699D01*
X3314090Y15832074D01*
X3317443Y15827756D01*
X3320694Y15824504D01*
X3323793Y15822574D01*
X3326282Y15820288D01*
X3327958Y15817342D01*
X3328517Y15813989D01*
X3328517Y15785998D01*
X3327958Y15782645D01*
X3326282Y15779648D01*
X3323793Y15777362D01*
X3320694Y15775432D01*
X3317443Y15772231D01*
X3315004Y15768319D01*
X3313531Y15764001D01*
X3312922Y15758922D01*
X3312922Y15706039D01*
X3313531Y15700908D01*
X3315004Y15696590D01*
X3317443Y15692729D01*
X3320694Y15689478D01*
X3324555Y15687040D01*
X3328873Y15685566D01*
G37*
G36*
X1988057Y15704464D02*
G01*
X2066950Y15704464D01*
X2072030Y15705074D01*
X2076348Y15706547D01*
X2080260Y15708985D01*
X2085746Y15714675D01*
X2088692Y15716250D01*
X2091943Y15716757D01*
X2176881Y15716757D01*
X2184298Y15717570D01*
X2190902Y15719704D01*
X2196998Y15723209D01*
X2201164Y15726765D01*
X2210866Y15736519D01*
X2214168Y15738703D01*
X2218080Y15739465D01*
X2266848Y15739465D01*
X2271928Y15740075D01*
X2276246Y15741548D01*
X2280158Y15743986D01*
X2283358Y15747238D01*
X2285796Y15751098D01*
X2287320Y15755416D01*
X2287879Y15760547D01*
X2287879Y15839389D01*
X2287320Y15844519D01*
X2285796Y15848838D01*
X2283358Y15852698D01*
X2280158Y15855950D01*
X2276246Y15858388D01*
X2271928Y15859912D01*
X2266848Y15860471D01*
X2187956Y15860471D01*
X2182876Y15859912D01*
X2178558Y15858388D01*
X2174646Y15855950D01*
X2171446Y15852698D01*
X2169007Y15848838D01*
X2167483Y15844519D01*
X2166924Y15839389D01*
X2166924Y15793313D01*
X2166112Y15789452D01*
X2163927Y15786150D01*
X2160625Y15783966D01*
X2156764Y15783153D01*
X2091943Y15783153D01*
X2088692Y15783712D01*
X2085746Y15785287D01*
X2080260Y15790976D01*
X2076602Y15794177D01*
X2075027Y15797936D01*
X2075027Y15802000D01*
X2076602Y15805759D01*
X2083460Y15812262D01*
X2085898Y15816122D01*
X2087422Y15820440D01*
X2087981Y15825571D01*
X2087981Y15874390D01*
X2087422Y15879521D01*
X2085898Y15883839D01*
X2083460Y15887700D01*
X2080260Y15890951D01*
X2076297Y15893440D01*
X2073605Y15895878D01*
X2071979Y15899180D01*
X2069693Y15906851D01*
X2065731Y15914522D01*
X2060397Y15921329D01*
X2053894Y15926968D01*
X2046376Y15931286D01*
X2038197Y15934131D01*
X2029663Y15935350D01*
X2021027Y15934944D01*
X2012645Y15932912D01*
X2004771Y15929305D01*
X1997760Y15924326D01*
X1991766Y15918078D01*
X1987092Y15910763D01*
X1983892Y15902787D01*
X1983384Y15900196D01*
X1981809Y15896386D01*
X1978812Y15893491D01*
X1974748Y15890951D01*
X1971497Y15887700D01*
X1969109Y15883839D01*
X1967585Y15879521D01*
X1966975Y15874390D01*
X1966975Y15825571D01*
X1967585Y15820440D01*
X1969109Y15816122D01*
X1971497Y15812262D01*
X1978355Y15805759D01*
X1979980Y15802000D01*
X1979980Y15797936D01*
X1978355Y15794177D01*
X1971497Y15787725D01*
X1969109Y15783864D01*
X1967585Y15779546D01*
X1966975Y15774416D01*
X1966975Y15725546D01*
X1967585Y15720415D01*
X1969109Y15716097D01*
X1971497Y15712236D01*
X1974748Y15708985D01*
X1978609Y15706547D01*
X1982927Y15705074D01*
G37*
G36*
X2563063Y15704464D02*
G01*
X2641955Y15704464D01*
X2647035Y15705074D01*
X2651353Y15706598D01*
X2655265Y15708985D01*
X2660751Y15714675D01*
X2663698Y15716250D01*
X2666949Y15716757D01*
X2751836Y15716757D01*
X2759252Y15717570D01*
X2765856Y15719704D01*
X2771952Y15723209D01*
X2776118Y15726765D01*
X2785872Y15736519D01*
X2789123Y15738703D01*
X2793034Y15739465D01*
X2841802Y15739465D01*
X2846933Y15740075D01*
X2851251Y15741548D01*
X2855112Y15743986D01*
X2858363Y15747238D01*
X2860802Y15751098D01*
X2862275Y15755416D01*
X2862884Y15760547D01*
X2862884Y15839389D01*
X2862275Y15844519D01*
X2860802Y15848838D01*
X2858363Y15852698D01*
X2855112Y15855950D01*
X2851251Y15858388D01*
X2846933Y15859912D01*
X2841802Y15860471D01*
X2762961Y15860471D01*
X2757830Y15859912D01*
X2753512Y15858388D01*
X2749651Y15855950D01*
X2746400Y15852698D01*
X2743962Y15848838D01*
X2742438Y15844519D01*
X2741879Y15839389D01*
X2741879Y15793313D01*
X2741117Y15789452D01*
X2738882Y15786150D01*
X2735580Y15783966D01*
X2731719Y15783153D01*
X2666949Y15783153D01*
X2663698Y15783712D01*
X2660751Y15785287D01*
X2655265Y15790976D01*
X2651607Y15794177D01*
X2650032Y15797936D01*
X2650032Y15802000D01*
X2651607Y15805759D01*
X2658465Y15812262D01*
X2660904Y15816122D01*
X2662428Y15820440D01*
X2662986Y15825571D01*
X2662986Y15874390D01*
X2662428Y15879521D01*
X2660904Y15883839D01*
X2658465Y15887700D01*
X2655265Y15890951D01*
X2651353Y15893389D01*
X2647035Y15894913D01*
X2641701Y15895523D01*
X2638298Y15896539D01*
X2635453Y15898622D01*
X2633472Y15901619D01*
X2632710Y15905073D01*
X2632557Y15907207D01*
X2630932Y15913354D01*
X2628036Y15919043D01*
X2623718Y15924377D01*
X2569362Y15978733D01*
X2565501Y15982035D01*
X2559862Y15985286D01*
X2553817Y15987268D01*
X2546959Y15987979D01*
X2515158Y15987979D01*
X2511602Y15988588D01*
X2508504Y15990468D01*
X2503881Y15994481D01*
X2496362Y15998799D01*
X2488234Y16001644D01*
X2479649Y16002863D01*
X2471013Y16002457D01*
X2462631Y16000425D01*
X2454757Y15996818D01*
X2447747Y15991840D01*
X2441752Y15985540D01*
X2437079Y15978276D01*
X2433878Y15970250D01*
X2432253Y15961766D01*
X2432253Y15953130D01*
X2433878Y15944646D01*
X2437079Y15936620D01*
X2441752Y15929356D01*
X2447747Y15923107D01*
X2454757Y15918129D01*
X2462631Y15914522D01*
X2471013Y15912490D01*
X2479649Y15912084D01*
X2488234Y15913303D01*
X2496362Y15916148D01*
X2503881Y15920466D01*
X2508554Y15924479D01*
X2511653Y15926358D01*
X2515209Y15926968D01*
X2530652Y15926968D01*
X2534564Y15926206D01*
X2537815Y15924022D01*
X2553716Y15908121D01*
X2555798Y15905124D01*
X2556662Y15901619D01*
X2556256Y15898012D01*
X2554630Y15894761D01*
X2551938Y15892322D01*
X2549753Y15890951D01*
X2546553Y15887700D01*
X2544114Y15883839D01*
X2542590Y15879521D01*
X2542032Y15874390D01*
X2542032Y15825571D01*
X2542590Y15820440D01*
X2544114Y15816122D01*
X2546553Y15812262D01*
X2553411Y15805759D01*
X2554986Y15802000D01*
X2554986Y15797936D01*
X2553411Y15794177D01*
X2546553Y15787725D01*
X2544114Y15783864D01*
X2542590Y15779546D01*
X2542032Y15774416D01*
X2542032Y15725546D01*
X2542590Y15720415D01*
X2544114Y15716097D01*
X2546553Y15712236D01*
X2549753Y15708985D01*
X2553665Y15706598D01*
X2557983Y15705074D01*
G37*
G36*
X1116584Y15962680D02*
G01*
X1311402Y15962680D01*
X1316532Y15963290D01*
X1320850Y15964763D01*
X1324762Y15967201D01*
X1327962Y15970453D01*
X1330401Y15974313D01*
X1331925Y15978632D01*
X1332484Y15983762D01*
X1332484Y15989401D01*
X1333246Y15993262D01*
X1335481Y15996564D01*
X1338783Y15998748D01*
X1342644Y15999561D01*
X1477721Y15999561D01*
X1485138Y16000323D01*
X1491742Y16002457D01*
X1497838Y16006013D01*
X1502003Y16009569D01*
X1571955Y16079469D01*
X1575257Y16081705D01*
X1579168Y16082467D01*
X1614424Y16082467D01*
X1619554Y16083026D01*
X1623872Y16084550D01*
X1627733Y16086988D01*
X1630984Y16090239D01*
X1633423Y16094100D01*
X1634896Y16098418D01*
X1635506Y16103549D01*
X1635506Y16156381D01*
X1634896Y16161512D01*
X1633423Y16165830D01*
X1630984Y16169690D01*
X1627733Y16172942D01*
X1623872Y16175380D01*
X1619554Y16176904D01*
X1614271Y16178174D01*
X1611325Y16180409D01*
X1609445Y16183559D01*
X1608785Y16187166D01*
X1608785Y16243807D01*
X1607972Y16251224D01*
X1605838Y16257778D01*
X1602384Y16263772D01*
X1596186Y16270681D01*
X1594205Y16273932D01*
X1593596Y16277742D01*
X1594408Y16281450D01*
X1596542Y16284651D01*
X1625600Y16313657D01*
X1630273Y16319500D01*
X1633423Y16325646D01*
X1635251Y16332454D01*
X1635709Y16337940D01*
X1635709Y16436848D01*
X1634896Y16444264D01*
X1632762Y16450818D01*
X1629206Y16456964D01*
X1625701Y16461130D01*
X1595628Y16491204D01*
X1589684Y16495979D01*
X1585264Y16498366D01*
X1582369Y16499382D01*
X1578559Y16501821D01*
X1573479Y16510203D01*
X1570228Y16513454D01*
X1566367Y16515892D01*
X1562049Y16517366D01*
X1556918Y16517975D01*
X1549958Y16517975D01*
X1546047Y16518737D01*
X1542796Y16520922D01*
X1540560Y16524224D01*
X1539798Y16528135D01*
X1540560Y16531996D01*
X1542796Y16535298D01*
X1571955Y16564508D01*
X1575257Y16566692D01*
X1579168Y16567454D01*
X1614424Y16567454D01*
X1619554Y16568064D01*
X1623872Y16569537D01*
X1627733Y16571976D01*
X1630984Y16575227D01*
X1633423Y16579088D01*
X1634896Y16583406D01*
X1635506Y16588536D01*
X1635506Y16641419D01*
X1634896Y16646499D01*
X1633423Y16650817D01*
X1630984Y16654729D01*
X1627733Y16657929D01*
X1623872Y16660368D01*
X1619554Y16661892D01*
X1614424Y16662450D01*
X1536547Y16662450D01*
X1531416Y16661892D01*
X1527098Y16660368D01*
X1523238Y16657929D01*
X1519986Y16654729D01*
X1517599Y16650817D01*
X1516075Y16646499D01*
X1515465Y16641419D01*
X1515465Y16606113D01*
X1514703Y16602252D01*
X1512519Y16598950D01*
X1476908Y16563340D01*
X1472184Y16557498D01*
X1469034Y16551351D01*
X1467205Y16544544D01*
X1466799Y16539057D01*
X1466799Y16528034D01*
X1466138Y16524376D01*
X1464208Y16521277D01*
X1461312Y16518991D01*
X1457756Y16517924D01*
X1452981Y16517366D01*
X1448663Y16515892D01*
X1444752Y16513454D01*
X1441551Y16510203D01*
X1439113Y16506342D01*
X1437589Y16502024D01*
X1437030Y16496893D01*
X1437030Y16438016D01*
X1437589Y16432936D01*
X1439113Y16428618D01*
X1441551Y16424706D01*
X1444752Y16421506D01*
X1448663Y16419068D01*
X1452981Y16417544D01*
X1458061Y16416985D01*
X1556918Y16416985D01*
X1562201Y16416680D01*
X1565910Y16414546D01*
X1568399Y16411143D01*
X1569313Y16406977D01*
X1569313Y16355517D01*
X1568500Y16351605D01*
X1566316Y16348303D01*
X1548942Y16330930D01*
X1545640Y16328745D01*
X1541780Y16327983D01*
X1458061Y16327983D01*
X1452930Y16327374D01*
X1448612Y16325900D01*
X1444752Y16323462D01*
X1441500Y16320211D01*
X1439113Y16316350D01*
X1437589Y16312032D01*
X1436979Y16306901D01*
X1436979Y16248024D01*
X1437589Y16242944D01*
X1439113Y16238626D01*
X1441500Y16234714D01*
X1444752Y16231514D01*
X1448612Y16229076D01*
X1452930Y16227551D01*
X1458061Y16226993D01*
X1532229Y16226993D01*
X1536090Y16226180D01*
X1539392Y16223996D01*
X1541576Y16220694D01*
X1542389Y16216833D01*
X1542389Y16187216D01*
X1541678Y16183559D01*
X1539798Y16180409D01*
X1536852Y16178174D01*
X1531416Y16176904D01*
X1527098Y16175380D01*
X1523238Y16172942D01*
X1519986Y16169690D01*
X1517599Y16165830D01*
X1516075Y16161512D01*
X1515465Y16156381D01*
X1515465Y16121126D01*
X1514703Y16117214D01*
X1512519Y16113963D01*
X1467510Y16068903D01*
X1464208Y16066719D01*
X1460296Y16065957D01*
X1342644Y16065957D01*
X1338783Y16066719D01*
X1335481Y16068903D01*
X1333246Y16072205D01*
X1332484Y16076117D01*
X1332484Y16082619D01*
X1331925Y16087750D01*
X1330401Y16092068D01*
X1327962Y16095929D01*
X1324762Y16099180D01*
X1320850Y16101618D01*
X1316532Y16103092D01*
X1311402Y16103701D01*
X1116584Y16103701D01*
X1111453Y16103092D01*
X1107135Y16101618D01*
X1103274Y16099180D01*
X1100023Y16095929D01*
X1097584Y16092068D01*
X1096060Y16087750D01*
X1095502Y16082619D01*
X1095502Y15983762D01*
X1096060Y15978632D01*
X1097584Y15974313D01*
X1100023Y15970453D01*
X1103274Y15967201D01*
X1107135Y15964763D01*
X1111453Y15963290D01*
G37*
G36*
X935990Y16084600D02*
G01*
X947013Y16085464D01*
X957783Y16088055D01*
X967994Y16092322D01*
X977392Y16098062D01*
X985824Y16105276D01*
X992987Y16113658D01*
X998778Y16123107D01*
X1002995Y16133318D01*
X1005586Y16144087D01*
X1006449Y16155060D01*
X1005586Y16166084D01*
X1002995Y16176853D01*
X998778Y16187064D01*
X992987Y16196513D01*
X985824Y16204895D01*
X977392Y16212108D01*
X967994Y16217849D01*
X957783Y16222116D01*
X947013Y16224707D01*
X935990Y16225570D01*
X924966Y16224707D01*
X914196Y16222116D01*
X903986Y16217849D01*
X894587Y16212108D01*
X886155Y16204895D01*
X878992Y16196513D01*
X873201Y16187064D01*
X868984Y16176853D01*
X866394Y16166084D01*
X865530Y16155060D01*
X866394Y16144087D01*
X868984Y16133318D01*
X873201Y16123107D01*
X878992Y16113658D01*
X886155Y16105276D01*
X894587Y16098062D01*
X903986Y16092322D01*
X914196Y16088055D01*
X924966Y16085464D01*
G37*
G36*
X1116584Y16211600D02*
G01*
X1311402Y16211600D01*
X1316532Y16212210D01*
X1320850Y16213683D01*
X1324711Y16216122D01*
X1327962Y16219373D01*
X1330401Y16223234D01*
X1331925Y16227551D01*
X1332484Y16232682D01*
X1332484Y16331539D01*
X1331925Y16336670D01*
X1330401Y16340988D01*
X1327962Y16344849D01*
X1324711Y16348100D01*
X1320850Y16350538D01*
X1316532Y16352012D01*
X1311402Y16352621D01*
X1116584Y16352621D01*
X1111453Y16352012D01*
X1107135Y16350538D01*
X1103274Y16348100D01*
X1100023Y16344849D01*
X1097584Y16340988D01*
X1096060Y16336670D01*
X1095502Y16331539D01*
X1095502Y16232682D01*
X1096060Y16227551D01*
X1097584Y16223234D01*
X1100023Y16219373D01*
X1103274Y16216122D01*
X1107135Y16213683D01*
X1111453Y16212210D01*
G37*
G36*
X1116584Y16412260D02*
G01*
X1311402Y16412260D01*
X1316532Y16412870D01*
X1320850Y16414343D01*
X1324711Y16416782D01*
X1327962Y16420033D01*
X1330401Y16423894D01*
X1331925Y16428212D01*
X1332484Y16433342D01*
X1332484Y16532199D01*
X1331925Y16537330D01*
X1330401Y16541648D01*
X1327962Y16545509D01*
X1324711Y16548760D01*
X1320850Y16551198D01*
X1316532Y16552672D01*
X1311402Y16553281D01*
X1116584Y16553281D01*
X1111453Y16552672D01*
X1107135Y16551198D01*
X1103274Y16548760D01*
X1100023Y16545509D01*
X1097584Y16541648D01*
X1096060Y16537330D01*
X1095502Y16532199D01*
X1095502Y16433342D01*
X1096060Y16428212D01*
X1097584Y16423894D01*
X1100023Y16420033D01*
X1103274Y16416782D01*
X1107135Y16414343D01*
X1111453Y16412870D01*
G37*
G36*
X935990Y16539260D02*
G01*
X947013Y16540124D01*
X957783Y16542715D01*
X967994Y16546982D01*
X977392Y16552722D01*
X985824Y16559936D01*
X992987Y16568318D01*
X998778Y16577767D01*
X1002995Y16587978D01*
X1005586Y16598747D01*
X1006449Y16609720D01*
X1005586Y16620744D01*
X1002995Y16631513D01*
X998778Y16641724D01*
X992987Y16651173D01*
X985824Y16659555D01*
X977392Y16666768D01*
X967994Y16672509D01*
X957783Y16676776D01*
X947013Y16679367D01*
X935990Y16680230D01*
X924966Y16679367D01*
X914196Y16676776D01*
X903986Y16672509D01*
X894587Y16666768D01*
X886155Y16659555D01*
X878992Y16651173D01*
X873201Y16641724D01*
X868984Y16631513D01*
X866394Y16620744D01*
X865530Y16609720D01*
X866394Y16598747D01*
X868984Y16587978D01*
X873201Y16577767D01*
X878992Y16568318D01*
X886155Y16559936D01*
X894587Y16552722D01*
X903986Y16546982D01*
X914196Y16542715D01*
X924966Y16540124D01*
G37*
G36*
X3378962Y16706951D02*
G01*
X3431032Y16706951D01*
X3436162Y16707561D01*
X3440480Y16709034D01*
X3444341Y16711472D01*
X3447592Y16714724D01*
X3450031Y16718584D01*
X3451504Y16722902D01*
X3452114Y16728033D01*
X3452114Y16831411D01*
X3451504Y16836491D01*
X3450031Y16840809D01*
X3446983Y16845686D01*
X3445662Y16848836D01*
X3445459Y16852239D01*
X3447186Y16857014D01*
X3449624Y16865447D01*
X3450437Y16874032D01*
X3449624Y16882618D01*
X3447186Y16890949D01*
X3443224Y16898620D01*
X3440379Y16902226D01*
X3438753Y16905224D01*
X3438194Y16908526D01*
X3438194Y16917720D01*
X3437432Y16925137D01*
X3435248Y16931741D01*
X3431743Y16937837D01*
X3428187Y16942003D01*
X3405022Y16965168D01*
X3402837Y16968470D01*
X3402076Y16972330D01*
X3402076Y16996410D01*
X3401466Y17001490D01*
X3399993Y17005808D01*
X3397554Y17009719D01*
X3394303Y17012920D01*
X3390442Y17015358D01*
X3386124Y17016882D01*
X3380994Y17017441D01*
X3325571Y17017441D01*
X3320440Y17016882D01*
X3316122Y17015358D01*
X3312261Y17012920D01*
X3309010Y17009719D01*
X3306572Y17005808D01*
X3305048Y17001490D01*
X3304489Y16996410D01*
X3304489Y16943527D01*
X3305048Y16938396D01*
X3306572Y16934078D01*
X3309010Y16930217D01*
X3312261Y16926966D01*
X3316122Y16924578D01*
X3320440Y16923054D01*
X3325571Y16922445D01*
X3349599Y16922445D01*
X3353511Y16921683D01*
X3356813Y16919498D01*
X3365398Y16910913D01*
X3367379Y16908119D01*
X3368294Y16904817D01*
X3368090Y16901363D01*
X3366770Y16898213D01*
X3364585Y16894860D01*
X3361385Y16886834D01*
X3359759Y16878350D01*
X3359759Y16869714D01*
X3361385Y16861231D01*
X3363925Y16854932D01*
X3364636Y16851782D01*
X3364331Y16848632D01*
X3363061Y16845686D01*
X3359962Y16840809D01*
X3358489Y16836491D01*
X3357879Y16831411D01*
X3357879Y16728033D01*
X3358489Y16722902D01*
X3359962Y16718584D01*
X3362401Y16714724D01*
X3365652Y16711472D01*
X3369513Y16709034D01*
X3373831Y16707561D01*
G37*
G36*
X3188970Y16706951D02*
G01*
X3241040Y16706951D01*
X3246120Y16707561D01*
X3250438Y16709034D01*
X3254349Y16711472D01*
X3257550Y16714724D01*
X3259988Y16718584D01*
X3261512Y16722902D01*
X3262071Y16728033D01*
X3262071Y16831411D01*
X3261512Y16836491D01*
X3259988Y16840809D01*
X3257550Y16844721D01*
X3254349Y16847921D01*
X3250438Y16850360D01*
X3246120Y16851884D01*
X3241040Y16852442D01*
X3188970Y16852442D01*
X3183839Y16851884D01*
X3179521Y16850360D01*
X3175660Y16847921D01*
X3172409Y16844721D01*
X3169970Y16840809D01*
X3168497Y16836491D01*
X3167888Y16831411D01*
X3167888Y16822978D01*
X3167126Y16819067D01*
X3164941Y16815816D01*
X3161639Y16813580D01*
X3157778Y16812818D01*
X3071114Y16812615D01*
X3067202Y16813377D01*
X3063900Y16815562D01*
X3061716Y16818864D01*
X3060903Y16822775D01*
X3060903Y16828465D01*
X3060344Y16833596D01*
X3058820Y16837914D01*
X3056382Y16841774D01*
X3053181Y16845026D01*
X3049270Y16847464D01*
X3044952Y16848988D01*
X3039872Y16849547D01*
X2830322Y16849547D01*
X2826461Y16850309D01*
X2823159Y16852544D01*
X2820974Y16855846D01*
X2820212Y16859707D01*
X2820212Y16871797D01*
X2820974Y16875709D01*
X2823159Y16879011D01*
X2826461Y16881195D01*
X2830322Y16881957D01*
X2856941Y16881957D01*
X2862021Y16882567D01*
X2866339Y16884040D01*
X2870250Y16886478D01*
X2873451Y16889730D01*
X2875889Y16893590D01*
X2877413Y16897908D01*
X2877972Y16903039D01*
X2877972Y17036897D01*
X2877413Y17042028D01*
X2875889Y17046346D01*
X2873451Y17050207D01*
X2870250Y17053458D01*
X2866339Y17055896D01*
X2862021Y17057370D01*
X2856941Y17057979D01*
X2717088Y17057979D01*
X2711958Y17057370D01*
X2707640Y17055896D01*
X2703779Y17053458D01*
X2700528Y17050207D01*
X2698089Y17046346D01*
X2696565Y17042028D01*
X2696006Y17036897D01*
X2696006Y16903039D01*
X2696565Y16897908D01*
X2698089Y16893590D01*
X2700528Y16889730D01*
X2703779Y16886478D01*
X2707640Y16884040D01*
X2711958Y16882567D01*
X2717088Y16881957D01*
X2743657Y16881957D01*
X2747518Y16881195D01*
X2750820Y16879011D01*
X2753004Y16875709D01*
X2753817Y16871797D01*
X2753817Y16859707D01*
X2753004Y16855846D01*
X2750820Y16852544D01*
X2747518Y16850309D01*
X2743657Y16849547D01*
X2740964Y16849547D01*
X2735884Y16848988D01*
X2731566Y16847464D01*
X2727655Y16845026D01*
X2724454Y16841774D01*
X2722016Y16837914D01*
X2720492Y16833596D01*
X2719933Y16828465D01*
X2719933Y16729608D01*
X2720492Y16724528D01*
X2722016Y16720210D01*
X2724454Y16716298D01*
X2727655Y16713098D01*
X2731566Y16710660D01*
X2735884Y16709136D01*
X2740964Y16708577D01*
X3039872Y16708577D01*
X3044952Y16709136D01*
X3049270Y16710660D01*
X3053181Y16713098D01*
X3056382Y16716298D01*
X3058820Y16720210D01*
X3060344Y16724528D01*
X3060903Y16729608D01*
X3060903Y16736060D01*
X3061665Y16739920D01*
X3063900Y16743222D01*
X3067151Y16745407D01*
X3071063Y16746219D01*
X3157728Y16746423D01*
X3161588Y16745661D01*
X3164890Y16743426D01*
X3167126Y16740124D01*
X3167888Y16736263D01*
X3167888Y16728033D01*
X3168497Y16722902D01*
X3169970Y16718584D01*
X3172409Y16714724D01*
X3175660Y16711472D01*
X3179521Y16709034D01*
X3183839Y16707561D01*
G37*
G36*
X1443837Y16870781D02*
G01*
X1600149Y16870781D01*
X1605280Y16871340D01*
X1609598Y16872864D01*
X1613458Y16875302D01*
X1616710Y16878554D01*
X1619148Y16882414D01*
X1620672Y16886732D01*
X1621231Y16891863D01*
X1621231Y17048175D01*
X1620672Y17053306D01*
X1619148Y17057624D01*
X1616710Y17061484D01*
X1613458Y17064736D01*
X1609598Y17067174D01*
X1605280Y17068647D01*
X1600149Y17069257D01*
X1443837Y17069257D01*
X1438706Y17068647D01*
X1434388Y17067174D01*
X1430528Y17064736D01*
X1427276Y17061484D01*
X1424838Y17057624D01*
X1423365Y17053306D01*
X1422755Y17048175D01*
X1422755Y16891863D01*
X1423365Y16886732D01*
X1424838Y16882414D01*
X1427276Y16878554D01*
X1430528Y16875302D01*
X1434388Y16872864D01*
X1438706Y16871340D01*
G37*

%LPD*%
G36*
X3738270Y16542969D02*
G01*
X3734409Y16543731D01*
X3731107Y16545915D01*
X3728923Y16549217D01*
X3728161Y16553129D01*
X3728161Y16569486D01*
X3728923Y16573398D01*
X3731107Y16576700D01*
X3745585Y16591178D01*
X3749294Y16593515D01*
X3753662Y16594124D01*
X3757879Y16592804D01*
X3761079Y16589806D01*
X3762756Y16585742D01*
X3761841Y16574617D01*
X3761841Y16553129D01*
X3761028Y16549217D01*
X3758844Y16545915D01*
X3755542Y16543731D01*
X3751681Y16542969D01*
G37*

%LPD*%
G36*
X3462274Y16520820D02*
G01*
X3458362Y16521582D01*
X3455060Y16523766D01*
X3452876Y16527068D01*
X3452114Y16530980D01*
X3452114Y16543782D01*
X3452876Y16547642D01*
X3455060Y16550944D01*
X3516426Y16612311D01*
X3519728Y16614546D01*
X3523640Y16615308D01*
X3527501Y16614546D01*
X3530803Y16612311D01*
X3533038Y16609009D01*
X3533800Y16605148D01*
X3533800Y16592499D01*
X3533038Y16588587D01*
X3530803Y16585285D01*
X3469436Y16523817D01*
X3466134Y16521582D01*
G37*

%LPD*%
G36*
X2170633Y16502989D02*
G01*
X2166518Y16504208D01*
X2161997Y16506596D01*
X2155393Y16508577D01*
X2151634Y16510660D01*
X2149094Y16514114D01*
X2148179Y16518331D01*
X2148179Y16605300D01*
X2148992Y16609161D01*
X2151176Y16612463D01*
X2154478Y16614648D01*
X2158339Y16615460D01*
X2162251Y16614648D01*
X2165553Y16612463D01*
X2173020Y16604996D01*
X2175205Y16601694D01*
X2175967Y16597833D01*
X2175967Y16535450D01*
X2176780Y16527576D01*
X2178913Y16520464D01*
X2180234Y16517924D01*
X2181453Y16513810D01*
X2180793Y16509593D01*
X2178507Y16505986D01*
X2174900Y16503650D01*
G37*

%LPD*%
G36*
X3673144Y16425214D02*
G01*
X3669284Y16425976D01*
X3665982Y16428161D01*
X3663746Y16431463D01*
X3662984Y16435374D01*
X3662984Y16439388D01*
X3661918Y16447922D01*
X3662578Y16451326D01*
X3664407Y16454323D01*
X3667048Y16456507D01*
X3674414Y16460673D01*
X3678580Y16464178D01*
X3694684Y16480332D01*
X3697986Y16482517D01*
X3701846Y16483279D01*
X3705758Y16482517D01*
X3709060Y16480332D01*
X3711244Y16477030D01*
X3712006Y16473119D01*
X3712006Y16453053D01*
X3712616Y16447922D01*
X3714089Y16443604D01*
X3715867Y16440810D01*
X3717340Y16436746D01*
X3716985Y16432479D01*
X3714953Y16428719D01*
X3711498Y16426129D01*
X3707282Y16425214D01*
G37*

%LPD*%
G36*
X3497072Y16368166D02*
G01*
X3493160Y16368928D01*
X3489909Y16371163D01*
X3487674Y16374414D01*
X3486912Y16378326D01*
X3487674Y16382238D01*
X3489909Y16385489D01*
X3514648Y16410279D01*
X3517950Y16412463D01*
X3521811Y16413226D01*
X3525723Y16412463D01*
X3529025Y16410279D01*
X3531209Y16406977D01*
X3531971Y16403066D01*
X3531971Y16397630D01*
X3531209Y16393718D01*
X3529025Y16390467D01*
X3509721Y16371163D01*
X3506419Y16368928D01*
X3502507Y16368166D01*
G37*

%LPD*%
G36*
X2786532Y16243198D02*
G01*
X2782316Y16244163D01*
X2778861Y16246703D01*
X2776778Y16250513D01*
X2776474Y16254780D01*
X2777947Y16258844D01*
X2784246Y16265144D01*
X2786684Y16269004D01*
X2788158Y16273322D01*
X2788767Y16278453D01*
X2788767Y16292118D01*
X2789529Y16296030D01*
X2791714Y16299332D01*
X2795016Y16301516D01*
X2798927Y16302278D01*
X2812288Y16302278D01*
X2819704Y16303091D01*
X2826258Y16305225D01*
X2832404Y16308781D01*
X2836519Y16312286D01*
X2913583Y16389096D01*
X2918307Y16394887D01*
X2921457Y16401034D01*
X2923286Y16407841D01*
X2923743Y16413378D01*
X2923743Y16468394D01*
X2924505Y16472255D01*
X2926689Y16475557D01*
X2929991Y16477742D01*
X2933852Y16478554D01*
X3039872Y16478554D01*
X3044952Y16479113D01*
X3049270Y16480637D01*
X3053181Y16483076D01*
X3056382Y16486276D01*
X3058820Y16490188D01*
X3060344Y16494506D01*
X3060903Y16499586D01*
X3060903Y16506342D01*
X3061665Y16510203D01*
X3063900Y16513505D01*
X3067151Y16515689D01*
X3071063Y16516502D01*
X3157677Y16516756D01*
X3161588Y16515994D01*
X3164890Y16513810D01*
X3167126Y16510507D01*
X3167888Y16506596D01*
X3167888Y16498519D01*
X3168446Y16493439D01*
X3169970Y16489121D01*
X3172409Y16485209D01*
X3175660Y16482009D01*
X3179521Y16479570D01*
X3183839Y16478046D01*
X3188970Y16477488D01*
X3198520Y16477488D01*
X3202381Y16476675D01*
X3205683Y16474490D01*
X3207867Y16471188D01*
X3208680Y16467328D01*
X3207867Y16463416D01*
X3205683Y16460114D01*
X3190240Y16444722D01*
X3185464Y16438778D01*
X3183077Y16434358D01*
X3181959Y16431158D01*
X3179826Y16427602D01*
X3176422Y16425163D01*
X3172358Y16424300D01*
X3157321Y16424300D01*
X3152190Y16423741D01*
X3147872Y16422217D01*
X3144012Y16419779D01*
X3140760Y16416578D01*
X3138322Y16412667D01*
X3137814Y16411143D01*
X3135731Y16407638D01*
X3132429Y16405250D01*
X3128416Y16404336D01*
X3124403Y16405098D01*
X3120999Y16407333D01*
X3119475Y16408857D01*
X3115614Y16411295D01*
X3111296Y16412819D01*
X3106166Y16413378D01*
X3012338Y16413378D01*
X3007207Y16412819D01*
X3002889Y16411295D01*
X2999028Y16408857D01*
X2995777Y16405606D01*
X2993339Y16401745D01*
X2991815Y16397427D01*
X2991256Y16392296D01*
X2991256Y16278453D01*
X2991815Y16273322D01*
X2993339Y16269004D01*
X2995777Y16265144D01*
X3002026Y16258844D01*
X3003550Y16254780D01*
X3003245Y16250513D01*
X3001162Y16246703D01*
X2997708Y16244163D01*
X2993491Y16243198D01*
G37*

%LPD*%
G36*
X3125470Y16150031D02*
G01*
X3121710Y16150894D01*
X3118561Y16153130D01*
X3116478Y16156381D01*
X3115767Y16160140D01*
X3115767Y16181832D01*
X3114954Y16189248D01*
X3112820Y16195801D01*
X3109264Y16201948D01*
X3105861Y16205962D01*
X3079089Y16233038D01*
X3068980Y16241064D01*
X3067100Y16245128D01*
X3067202Y16249599D01*
X3069183Y16253612D01*
X3072688Y16256406D01*
X3077057Y16257371D01*
X3106166Y16257371D01*
X3111296Y16257981D01*
X3115614Y16259454D01*
X3119475Y16261892D01*
X3120796Y16263213D01*
X3124200Y16265448D01*
X3128213Y16266210D01*
X3132175Y16265296D01*
X3135477Y16262908D01*
X3137560Y16259403D01*
X3138322Y16257269D01*
X3140760Y16253358D01*
X3144012Y16250157D01*
X3147872Y16247719D01*
X3152190Y16246195D01*
X3157321Y16245636D01*
X3214624Y16245636D01*
X3218535Y16244824D01*
X3221786Y16242639D01*
X3224022Y16239337D01*
X3224784Y16235476D01*
X3224784Y16163137D01*
X3224022Y16159226D01*
X3221786Y16155924D01*
X3218535Y16153739D01*
X3214624Y16152977D01*
X3139541Y16152977D01*
X3134461Y16152368D01*
X3129280Y16150590D01*
G37*

%LPD*%
G36*
X2452268Y16096894D02*
G01*
X2448407Y16097707D01*
X2445105Y16099891D01*
X2442921Y16103193D01*
X2442159Y16107054D01*
X2442159Y16124174D01*
X2442413Y16126612D01*
X2444140Y16130422D01*
X2446274Y16137534D01*
X2447086Y16145459D01*
X2447086Y16209467D01*
X2446274Y16217341D01*
X2444140Y16224504D01*
X2442108Y16228263D01*
X2440940Y16232378D01*
X2441549Y16236645D01*
X2443886Y16240251D01*
X2447493Y16242588D01*
X2451709Y16243198D01*
X2455824Y16242030D01*
X2457958Y16240861D01*
X2465070Y16238728D01*
X2472994Y16237966D01*
X2537002Y16237966D01*
X2544876Y16238728D01*
X2552039Y16240861D01*
X2558592Y16244417D01*
X2564333Y16249091D01*
X2569057Y16254882D01*
X2572562Y16261435D01*
X2574696Y16268547D01*
X2575458Y16275964D01*
X2574696Y16283330D01*
X2572562Y16290493D01*
X2569057Y16297046D01*
X2564942Y16302024D01*
X2563266Y16305022D01*
X2562656Y16308476D01*
X2563266Y16311880D01*
X2564942Y16314928D01*
X2569057Y16319906D01*
X2572562Y16326459D01*
X2574696Y16333571D01*
X2575458Y16340988D01*
X2574290Y16352215D01*
X2575356Y16355974D01*
X2577744Y16359022D01*
X2581097Y16360952D01*
X2588310Y16363442D01*
X2592120Y16364000D01*
X2595880Y16363086D01*
X2598978Y16360851D01*
X2601061Y16357600D01*
X2601823Y16353840D01*
X2601823Y16250412D01*
X2602585Y16242995D01*
X2604719Y16236442D01*
X2608275Y16230295D01*
X2611780Y16226129D01*
X2650998Y16186912D01*
X2656840Y16182238D01*
X2662986Y16179088D01*
X2669794Y16177260D01*
X2675280Y16176802D01*
X2723235Y16176802D01*
X2727452Y16175888D01*
X2730906Y16173297D01*
X2732989Y16169487D01*
X2733243Y16165169D01*
X2731719Y16161105D01*
X2728620Y16158057D01*
X2727248Y16157194D01*
X2724048Y16153993D01*
X2721610Y16150082D01*
X2720086Y16145763D01*
X2719527Y16140684D01*
X2719527Y16107054D01*
X2718714Y16103193D01*
X2716530Y16099891D01*
X2713228Y16097707D01*
X2709367Y16096894D01*
G37*

%LPD*%
G36*
X1920900Y16065398D02*
G01*
X1916684Y16066363D01*
X1913229Y16068954D01*
X1911146Y16072764D01*
X1910842Y16077082D01*
X1912416Y16081146D01*
X1915515Y16084194D01*
X1919986Y16086988D01*
X1923237Y16090239D01*
X1925675Y16094100D01*
X1927199Y16098418D01*
X1927758Y16103549D01*
X1927758Y16156432D01*
X1927199Y16161512D01*
X1925675Y16165830D01*
X1923237Y16169741D01*
X1919986Y16172942D01*
X1916125Y16175380D01*
X1914652Y16175888D01*
X1911096Y16178022D01*
X1908708Y16181425D01*
X1907844Y16185489D01*
X1907844Y16363238D01*
X1908657Y16367150D01*
X1910842Y16370452D01*
X1914143Y16372636D01*
X1918004Y16373398D01*
X1995119Y16373398D01*
X1998980Y16372636D01*
X2002282Y16370503D01*
X2004517Y16367201D01*
X2005279Y16363340D01*
X2004568Y16359479D01*
X2003907Y16357803D01*
X2002231Y16349319D01*
X2002231Y16340632D01*
X2003907Y16332149D01*
X2007107Y16324173D01*
X2011781Y16316858D01*
X2014931Y16312489D01*
X2015693Y16308730D01*
X2014931Y16304920D01*
X2011781Y16300551D01*
X2007107Y16293287D01*
X2003907Y16285260D01*
X2002231Y16276777D01*
X2002231Y16268141D01*
X2003907Y16259657D01*
X2007107Y16251631D01*
X2011781Y16244366D01*
X2017725Y16238118D01*
X2024786Y16233089D01*
X2032609Y16229482D01*
X2041042Y16227450D01*
X2049678Y16227044D01*
X2058212Y16228263D01*
X2066391Y16231107D01*
X2078177Y16238118D01*
X2083003Y16238474D01*
X2147011Y16238474D01*
X2154885Y16239236D01*
X2161997Y16241369D01*
X2168601Y16244925D01*
X2174341Y16249599D01*
X2179066Y16255390D01*
X2182571Y16261943D01*
X2184704Y16269055D01*
X2185466Y16276472D01*
X2184704Y16283838D01*
X2182571Y16291001D01*
X2179066Y16297554D01*
X2174951Y16302532D01*
X2173224Y16305530D01*
X2172665Y16308984D01*
X2173224Y16312388D01*
X2174951Y16315436D01*
X2179066Y16320414D01*
X2182571Y16326967D01*
X2184704Y16334079D01*
X2185466Y16341496D01*
X2184704Y16348862D01*
X2182571Y16356025D01*
X2179066Y16362578D01*
X2174951Y16367556D01*
X2173224Y16370554D01*
X2172665Y16374008D01*
X2173224Y16377412D01*
X2174951Y16380460D01*
X2179066Y16385438D01*
X2182571Y16391991D01*
X2184704Y16399103D01*
X2185466Y16406520D01*
X2184704Y16413886D01*
X2182571Y16421049D01*
X2179066Y16427602D01*
X2174951Y16432580D01*
X2173224Y16435578D01*
X2172665Y16439032D01*
X2173224Y16442436D01*
X2174951Y16445484D01*
X2179066Y16450462D01*
X2182571Y16457015D01*
X2184704Y16464127D01*
X2185466Y16471544D01*
X2184704Y16478910D01*
X2182571Y16486073D01*
X2181199Y16488562D01*
X2180031Y16492677D01*
X2180640Y16496944D01*
X2182977Y16500551D01*
X2186584Y16502837D01*
X2190851Y16503497D01*
X2194966Y16502329D01*
X2199436Y16499890D01*
X2206548Y16497757D01*
X2213965Y16497046D01*
X2221382Y16497757D01*
X2228494Y16499890D01*
X2235047Y16503396D01*
X2240026Y16507510D01*
X2243074Y16509238D01*
X2246477Y16509796D01*
X2249932Y16509238D01*
X2252929Y16507510D01*
X2257907Y16503396D01*
X2264460Y16499890D01*
X2271572Y16497757D01*
X2278989Y16497046D01*
X2286406Y16497757D01*
X2293518Y16499890D01*
X2300071Y16503396D01*
X2305050Y16507510D01*
X2308098Y16509238D01*
X2311501Y16509796D01*
X2314956Y16509238D01*
X2317953Y16507510D01*
X2322931Y16503396D01*
X2329484Y16499890D01*
X2336596Y16497757D01*
X2344013Y16497046D01*
X2351430Y16497757D01*
X2358542Y16499890D01*
X2365095Y16503396D01*
X2370074Y16507510D01*
X2373122Y16509238D01*
X2376525Y16509796D01*
X2379980Y16509238D01*
X2382977Y16507510D01*
X2387955Y16503396D01*
X2394508Y16499890D01*
X2401620Y16497757D01*
X2409037Y16497046D01*
X2416454Y16497757D01*
X2428341Y16501414D01*
X2432558Y16500805D01*
X2436164Y16498468D01*
X2438501Y16494861D01*
X2439111Y16490645D01*
X2435250Y16478402D01*
X2434539Y16471036D01*
X2435250Y16463619D01*
X2437434Y16456507D01*
X2440940Y16449954D01*
X2445054Y16444976D01*
X2446731Y16441928D01*
X2447340Y16438524D01*
X2446731Y16435069D01*
X2445054Y16432072D01*
X2440940Y16427094D01*
X2437434Y16420541D01*
X2435250Y16413378D01*
X2434539Y16406012D01*
X2435250Y16398595D01*
X2437434Y16391483D01*
X2440940Y16384930D01*
X2445054Y16379951D01*
X2446731Y16376904D01*
X2447340Y16373500D01*
X2446731Y16370046D01*
X2445054Y16367048D01*
X2440940Y16362070D01*
X2437434Y16355517D01*
X2435250Y16348354D01*
X2434539Y16340988D01*
X2435250Y16333571D01*
X2437434Y16326459D01*
X2440940Y16319906D01*
X2445054Y16314928D01*
X2446731Y16311880D01*
X2447340Y16308476D01*
X2446731Y16305022D01*
X2445054Y16302024D01*
X2440940Y16297046D01*
X2437434Y16290493D01*
X2435250Y16283330D01*
X2434539Y16275964D01*
X2435250Y16268547D01*
X2437434Y16261435D01*
X2439466Y16257625D01*
X2440635Y16253510D01*
X2440025Y16249243D01*
X2437688Y16245636D01*
X2434082Y16243350D01*
X2429814Y16242690D01*
X2425700Y16243858D01*
X2423566Y16245027D01*
X2416454Y16247160D01*
X2409088Y16247922D01*
X2401671Y16247160D01*
X2394559Y16245027D01*
X2388006Y16241522D01*
X2382977Y16237407D01*
X2379980Y16235730D01*
X2376576Y16235121D01*
X2373122Y16235730D01*
X2370124Y16237407D01*
X2365146Y16241522D01*
X2358542Y16245027D01*
X2351430Y16247160D01*
X2344064Y16247922D01*
X2336647Y16247160D01*
X2329535Y16245027D01*
X2322982Y16241522D01*
X2317953Y16237407D01*
X2314956Y16235730D01*
X2311552Y16235121D01*
X2308098Y16235730D01*
X2305100Y16237407D01*
X2300122Y16241522D01*
X2293518Y16245027D01*
X2286406Y16247160D01*
X2279040Y16247922D01*
X2271623Y16247160D01*
X2264511Y16245027D01*
X2257958Y16241522D01*
X2252167Y16236797D01*
X2247442Y16231057D01*
X2243937Y16224504D01*
X2241804Y16217341D01*
X2241042Y16209467D01*
X2241042Y16145459D01*
X2241804Y16137534D01*
X2243937Y16130422D01*
X2247442Y16123869D01*
X2252167Y16118128D01*
X2257958Y16113404D01*
X2264511Y16109899D01*
X2271623Y16107714D01*
X2279040Y16107003D01*
X2286406Y16107714D01*
X2293518Y16109899D01*
X2300122Y16113404D01*
X2305100Y16117519D01*
X2308098Y16119195D01*
X2311552Y16119805D01*
X2314956Y16119195D01*
X2317953Y16117519D01*
X2322982Y16113404D01*
X2329535Y16109899D01*
X2336647Y16107714D01*
X2344064Y16107003D01*
X2351430Y16107714D01*
X2358542Y16109899D01*
X2360777Y16111067D01*
X2364790Y16112236D01*
X2368905Y16111728D01*
X2372461Y16109594D01*
X2374900Y16106190D01*
X2375763Y16102126D01*
X2375763Y16081959D01*
X2374950Y16078047D01*
X2372766Y16074745D01*
X2366416Y16068395D01*
X2363114Y16066211D01*
X2359202Y16065398D01*
G37*

%LPD*%
G36*
X3502253Y15900654D02*
G01*
X3498900Y15901212D01*
X3495954Y15902889D01*
X3492550Y15907207D01*
X3489299Y15910458D01*
X3486251Y15912388D01*
X3483711Y15914624D01*
X3482086Y15917621D01*
X3481527Y15920974D01*
X3481527Y15938754D01*
X3480714Y15946170D01*
X3478580Y15952724D01*
X3475075Y15958870D01*
X3471367Y15963138D01*
X3448659Y15985591D01*
X3442817Y15990265D01*
X3436620Y15993363D01*
X3429812Y15995192D01*
X3424529Y15995548D01*
X3310636Y15995548D01*
X3306775Y15996361D01*
X3303473Y15998545D01*
X3301288Y16001847D01*
X3300476Y16005708D01*
X3300476Y16131895D01*
X3299917Y16137026D01*
X3298393Y16141344D01*
X3295954Y16145205D01*
X3294176Y16147034D01*
X3291941Y16150336D01*
X3291179Y16154196D01*
X3291179Y16289883D01*
X3290468Y16297706D01*
X3290468Y16403269D01*
X3289909Y16408349D01*
X3288385Y16412667D01*
X3285947Y16416578D01*
X3283204Y16419322D01*
X3281019Y16422624D01*
X3280206Y16426484D01*
X3281019Y16430396D01*
X3283204Y16433698D01*
X3286506Y16435882D01*
X3290366Y16436644D01*
X3329584Y16436644D01*
X3333496Y16435882D01*
X3336798Y16433698D01*
X3338982Y16430396D01*
X3339744Y16426484D01*
X3338982Y16422624D01*
X3336798Y16419322D01*
X3334004Y16416578D01*
X3331565Y16412667D01*
X3330092Y16408349D01*
X3329482Y16403269D01*
X3329482Y16266668D01*
X3330092Y16261588D01*
X3331565Y16257269D01*
X3334004Y16253358D01*
X3337255Y16250157D01*
X3341115Y16247719D01*
X3345434Y16246195D01*
X3350564Y16245636D01*
X3462680Y16245636D01*
X3467811Y16246195D01*
X3472129Y16247719D01*
X3475990Y16250157D01*
X3479241Y16253358D01*
X3481679Y16257269D01*
X3483152Y16261588D01*
X3483762Y16266668D01*
X3483762Y16291610D01*
X3484524Y16295522D01*
X3486708Y16298773D01*
X3490010Y16301008D01*
X3493922Y16301770D01*
X3519982Y16301770D01*
X3524961Y16301415D01*
X3528618Y16299281D01*
X3531108Y16295878D01*
X3531971Y16291763D01*
X3531971Y16220541D01*
X3532581Y16215410D01*
X3534105Y16211092D01*
X3536492Y16207232D01*
X3539744Y16203980D01*
X3543604Y16201542D01*
X3547922Y16200069D01*
X3553053Y16199459D01*
X3609797Y16199459D01*
X3613708Y16198697D01*
X3617010Y16196513D01*
X3764127Y16049345D01*
X3769918Y16044672D01*
X3776116Y16041522D01*
X3782923Y16039693D01*
X3788410Y16039287D01*
X3859529Y16039287D01*
X3863441Y16038474D01*
X3866692Y16036290D01*
X3868064Y16034918D01*
X3870350Y16031463D01*
X3871061Y16027349D01*
X3870045Y16023336D01*
X3867505Y16020034D01*
X3863898Y16018052D01*
X3859784Y16017646D01*
X3856939Y16017951D01*
X3733088Y16017951D01*
X3727958Y16017392D01*
X3723640Y16015868D01*
X3719779Y16013430D01*
X3716528Y16010229D01*
X3714089Y16006318D01*
X3712616Y16002000D01*
X3712006Y15996919D01*
X3712006Y15930626D01*
X3711244Y15926765D01*
X3709060Y15923463D01*
X3689248Y15903651D01*
X3685946Y15901416D01*
X3682034Y15900654D01*
G37*

%LPD*%
G36*
X3227374Y15900654D02*
G01*
X3224022Y15901212D01*
X3221075Y15902889D01*
X3217976Y15906699D01*
X3210915Y15913455D01*
X3209340Y15917519D01*
X3209645Y15921837D01*
X3211728Y15925647D01*
X3215182Y15928238D01*
X3219399Y15929152D01*
X3315208Y15929152D01*
X3319424Y15928238D01*
X3322929Y15925647D01*
X3324961Y15921888D01*
X3325266Y15917570D01*
X3323742Y15913506D01*
X3317443Y15907207D01*
X3314039Y15902889D01*
X3311093Y15901212D01*
X3307740Y15900654D01*
G37*

%LPD*%
G36*
X3068421Y15887649D02*
G01*
X3064560Y15888462D01*
X3061258Y15890646D01*
X3026156Y15925749D01*
X3023971Y15929000D01*
X3023209Y15932912D01*
X3023209Y15955568D01*
X3023971Y15959480D01*
X3026156Y15962782D01*
X3029458Y15964966D01*
X3033369Y15965728D01*
X3039414Y15965728D01*
X3044545Y15966338D01*
X3047695Y15967405D01*
X3051708Y15967963D01*
X3055620Y15966897D01*
X3059328Y15963747D01*
X3083814Y15939262D01*
X3089656Y15934588D01*
X3095802Y15931438D01*
X3102610Y15929610D01*
X3108096Y15929152D01*
X3130600Y15929152D01*
X3134817Y15928238D01*
X3138271Y15925647D01*
X3140354Y15921837D01*
X3140608Y15917519D01*
X3139084Y15913455D01*
X3132023Y15906699D01*
X3129584Y15902838D01*
X3128060Y15898520D01*
X3126790Y15893186D01*
X3124555Y15890240D01*
X3121406Y15888360D01*
X3117748Y15887649D01*
G37*

%LPD*%
G36*
X1409446Y15783153D02*
G01*
X1406194Y15783712D01*
X1403248Y15785287D01*
X1397762Y15790976D01*
X1394104Y15794177D01*
X1392529Y15797936D01*
X1392529Y15802000D01*
X1394104Y15805759D01*
X1400962Y15812262D01*
X1403400Y15816122D01*
X1404924Y15820440D01*
X1405483Y15825571D01*
X1405483Y15864128D01*
X1406245Y15868040D01*
X1408480Y15871342D01*
X1411782Y15873526D01*
X1415643Y15874288D01*
X1486103Y15874288D01*
X1490014Y15873526D01*
X1493316Y15871291D01*
X1495501Y15867989D01*
X1496263Y15864078D01*
X1495450Y15860166D01*
X1493215Y15856864D01*
X1488897Y15852648D01*
X1486509Y15848838D01*
X1484985Y15844519D01*
X1484426Y15839389D01*
X1484426Y15793313D01*
X1483614Y15789452D01*
X1481429Y15786150D01*
X1478127Y15783966D01*
X1474266Y15783153D01*
G37*

%LPD*%
G36*
X3502253Y15765678D02*
G01*
X3498900Y15766288D01*
X3495903Y15767913D01*
X3492550Y15772231D01*
X3489299Y15775432D01*
X3485438Y15777870D01*
X3481120Y15779394D01*
X3475990Y15779953D01*
X3420567Y15779953D01*
X3415436Y15779394D01*
X3406444Y15775990D01*
X3402177Y15776346D01*
X3398418Y15778429D01*
X3395827Y15781883D01*
X3394913Y15786100D01*
X3394913Y15813887D01*
X3395827Y15818053D01*
X3398418Y15821507D01*
X3402177Y15823590D01*
X3406444Y15823946D01*
X3415436Y15820542D01*
X3420567Y15819983D01*
X3475990Y15819983D01*
X3481120Y15820542D01*
X3485438Y15822066D01*
X3489299Y15824504D01*
X3492550Y15827756D01*
X3495903Y15832074D01*
X3498900Y15833699D01*
X3502253Y15834258D01*
X3699459Y15834258D01*
X3706876Y15835071D01*
X3713479Y15837204D01*
X3719576Y15840710D01*
X3723741Y15844266D01*
X3783482Y15904006D01*
X3786784Y15906191D01*
X3790645Y15906953D01*
X3842867Y15906953D01*
X3846779Y15906191D01*
X3850081Y15904006D01*
X3852265Y15900704D01*
X3853027Y15896793D01*
X3852265Y15892932D01*
X3850081Y15889630D01*
X3729126Y15768675D01*
X3725824Y15766491D01*
X3721912Y15765678D01*
G37*

%LPD*%
D10*
X3059175Y16335502D02*
G01*
X3213354Y16334994D01*
X1867662Y16032226D02*
G01*
X1742947Y15907512D01*
X1362710Y15907512D01*
X1344676Y15889224D01*
X1344929Y15849854D01*
X2408936Y16177513D02*
G01*
X2408936Y16063976D01*
X2377186Y16032226D01*
X1867662Y16032226D01*
X1867662Y16130016D01*
X2409068Y16567454D02*
G01*
X2409068Y16651536D01*
X2444998Y16687464D01*
X2589982Y16687464D01*
X2589987Y16687469D01*
X2284001Y16970009D02*
G01*
X2114999Y16801007D01*
X2114999Y16471526D01*
X2990006Y16063744D02*
G01*
X2990006Y15914954D01*
X3050484Y15854476D01*
X3175000Y15854476D01*
X2504947Y16471137D02*
G01*
X2586481Y16471137D01*
X2634995Y16422370D01*
X2634995Y16249904D01*
X2674874Y16210026D01*
X3055111Y16210026D01*
X3082543Y16182339D01*
X3082543Y15987521D01*
X3107690Y15962376D01*
X3424936Y15962376D01*
X3448304Y15939262D01*
X3448304Y15867379D01*
X3914902Y15907512D02*
G01*
X3739895Y15732505D01*
X3448304Y15732505D01*
X3175000Y15854476D02*
G01*
X3187989Y15867466D01*
X3361717Y15867466D01*
X3361720Y15867466D02*
G01*
X3361720Y15732472D01*
X3795013Y15962477D02*
G01*
X3700002Y15867466D01*
X3448288Y15867466D01*
X4044950Y16932402D02*
G01*
X4044950Y16872458D01*
X3997452Y16824960D01*
X3932427Y16824960D01*
X3694938Y16587470D01*
X3694938Y16527526D01*
X3654806Y16487394D01*
X3544824Y16487394D01*
X3406647Y16349218D01*
X3406647Y16334994D01*
X3597402Y16589755D02*
G01*
X3582161Y16589755D01*
X3462527Y16469868D01*
X3262375Y16469868D01*
X3213354Y16420845D01*
X3213354Y16334994D01*
X3353274Y16969966D02*
G01*
X3404997Y16918244D01*
X3404997Y16874032D01*
X3404997Y16874032D02*
G01*
X3404997Y16779722D01*
X3597503Y16926687D02*
G01*
X3597503Y16740299D01*
X3597473Y16740299D01*
X2890520Y16778986D02*
G01*
X3214877Y16779748D01*
X1499870Y16279876D02*
G01*
X1539747Y16280129D01*
X1575562Y16244316D01*
X1575562Y16131794D01*
X2890520Y16549116D02*
G01*
X2890520Y16412971D01*
X2812795Y16335502D01*
X2720847Y16335502D01*
X3577590Y16391889D02*
G01*
X4044950Y16392397D01*
X3577488Y16391966D02*
G01*
X3520490Y16334968D01*
X3406622Y16334968D01*
D11*
X2477490Y15957473D02*
G01*
X2547493Y15957473D01*
X2602506Y15902459D01*
X2602506Y15849953D01*
D10*
X1575488Y16614968D02*
G01*
X1499991Y16539471D01*
X1499991Y16468095D01*
X2537968Y16969994D02*
G01*
X2383027Y16815054D01*
X2225040Y16815054D01*
X2169922Y16759936D01*
X2169922Y16655034D01*
X2213863Y16611092D01*
X2213863Y16567404D01*
X2605003Y15749976D02*
G01*
X2752369Y15749976D01*
X2802374Y15799981D01*
X2890520Y16549116D02*
G01*
X3214877Y16550131D01*
X3597478Y16740301D02*
G01*
X3407384Y16550208D01*
X3404989Y16550208D01*
X2786989Y16969968D02*
G01*
X2786989Y16778988D01*
X2890514Y16778988D01*
X3213371Y16334966D02*
G01*
X3257984Y16290353D01*
X3257984Y16127468D01*
X1776001Y16970009D02*
G01*
X1760011Y16954019D01*
X1760011Y16468095D01*
X3577493Y16282959D02*
G01*
X3787985Y16072467D01*
X3877492Y16072467D01*
X3914990Y16034969D01*
X3914990Y15907468D01*
X3954988Y15867471D01*
X4044960Y15867471D01*
X4044950Y16742410D02*
G01*
X3962400Y16742410D01*
X3795013Y16575024D01*
X3795013Y16487394D01*
X1759965Y16614902D02*
G01*
X1867662Y16614902D01*
X1759965Y16468089D02*
G01*
X1774444Y16468089D01*
X1835912Y16406621D01*
X2115058Y16406621D01*
X1867773Y16129967D02*
G01*
X1874667Y16136861D01*
X1874667Y16406621D01*
X2227404Y15799981D02*
G01*
X2177399Y15749976D01*
X2027504Y15749976D01*
X1544906Y15799981D02*
G01*
X1494901Y15749976D01*
X1345006Y15749976D01*
X2408936Y16084042D02*
G01*
X2408936Y16063721D01*
X2789936Y16063721D01*
X1575488Y16129967D02*
G01*
X1478264Y16032744D01*
X1213002Y16032744D01*
X1499870Y16468089D02*
G01*
X1571752Y16468089D01*
X1602486Y16437355D01*
X1602486Y16337534D01*
X1543050Y16278097D01*
X1499870Y16278097D01*
D12*
X2409063Y16144963D02*
G01*
X2409063Y16209962D01*
X2344038Y16144963D02*
G01*
X2344038Y16209962D01*
X2279015Y16144963D02*
G01*
X2279015Y16209962D01*
X2213990Y16144963D02*
G01*
X2213990Y16209962D01*
X2409063Y16534955D02*
G01*
X2409063Y16599954D01*
X2344038Y16534955D02*
G01*
X2344038Y16599954D01*
X2279015Y16534955D02*
G01*
X2279015Y16599954D01*
X2213990Y16534955D02*
G01*
X2213990Y16599954D01*
X2472499Y16275938D02*
G01*
X2537498Y16275938D01*
X2472499Y16340962D02*
G01*
X2537498Y16340962D01*
X2472499Y16405987D02*
G01*
X2537498Y16405987D01*
X2472499Y16471011D02*
G01*
X2537498Y16471011D01*
X2082507Y16471519D02*
G01*
X2147506Y16471519D01*
X2082507Y16406495D02*
G01*
X2147506Y16406495D01*
X2082507Y16341470D02*
G01*
X2147506Y16341470D01*
X2082507Y16276446D02*
G01*
X2147506Y16276446D01*
G36*
X3294992Y16996966D02*
G01*
X3294992Y16942965D01*
X3238428Y16942965D01*
X3238428Y16996966D01*
G37*
G36*
X3324994Y16996966D02*
G01*
X3324994Y16942965D01*
X3381557Y16942965D01*
X3381557Y16996966D01*
G37*
G36*
X3279993Y16132467D02*
G01*
X3279993Y15997466D01*
X3138992Y15997466D01*
X3138992Y16132467D01*
G37*
G36*
X3344992Y16132467D02*
G01*
X3344992Y15997466D01*
X3485992Y15997466D01*
X3485992Y16132467D01*
G37*
D17*
G01*
X3597503Y16259962D03*
G01*
X3597503Y16399967D03*
G36*
X2857494Y17037466D02*
G01*
X2857494Y16902465D01*
X2716494Y16902465D01*
X2716494Y17037466D01*
G37*
G36*
X2922493Y17037466D02*
G01*
X2922493Y16902465D01*
X3063493Y16902465D01*
X3063493Y17037466D01*
G37*
G36*
X3389995Y15894471D02*
G01*
X3389995Y15840455D01*
X3333429Y15840455D01*
X3333429Y15894471D01*
G37*
G36*
X3420000Y15894471D02*
G01*
X3420000Y15840455D01*
X3476556Y15840455D01*
X3476556Y15894471D01*
G37*
D18*
G01*
X1213993Y16033191D03*
G01*
X1213993Y16736771D03*
G01*
X1213993Y16282111D03*
G01*
X1213993Y16482771D03*
G36*
X1907288Y16641963D02*
G01*
X1907288Y16587962D01*
X1828279Y16587962D01*
X1828279Y16641963D01*
G37*
G36*
X1937268Y16641963D02*
G01*
X1937268Y16587962D01*
X2016277Y16587962D01*
X2016277Y16641963D01*
G37*
G36*
X1907260Y16156978D02*
G01*
X1907260Y16102957D01*
X1828281Y16102957D01*
X1828281Y16156978D01*
G37*
G36*
X1937258Y16156978D02*
G01*
X1937258Y16102957D01*
X2016267Y16102957D01*
X2016267Y16156978D01*
G37*
D20*
G01*
X1767509Y16467454D03*
G01*
X1767509Y16277462D03*
G01*
X1507489Y16277462D03*
G01*
X1507489Y16372459D03*
G01*
X1507489Y16467454D03*
G36*
X1614995Y16641968D02*
G01*
X1614995Y16587967D01*
X1535986Y16587967D01*
X1535986Y16641968D01*
G37*
G36*
X1644997Y16641968D02*
G01*
X1644997Y16587967D01*
X1724007Y16587967D01*
X1724007Y16641968D01*
G37*
G36*
X1614995Y16156967D02*
G01*
X1614995Y16102967D01*
X1535986Y16102967D01*
X1535986Y16156967D01*
G37*
G36*
X1644997Y16156967D02*
G01*
X1644997Y16102967D01*
X1724007Y16102967D01*
X1724007Y16156967D01*
G37*
D21*
G01*
X1544904Y15799968D03*
G01*
X1715084Y15799968D03*
D22*
G01*
X2027504Y15749955D03*
G01*
X2027504Y15849955D03*
G01*
X1345006Y15749955D03*
G01*
X1345006Y15849955D03*
D23*
G01*
X2310002Y16372459D03*
G36*
X3147994Y15784967D02*
G01*
X3201995Y15784967D01*
X3201995Y15705957D01*
X3147994Y15705957D01*
G37*
D24*
G01*
X3175000Y15854476D03*
D25*
G01*
X2720771Y16335375D03*
G01*
X3059252Y16335375D03*
D26*
G01*
X2890418Y16779062D03*
G01*
X2890418Y16549039D03*
D27*
G01*
X2790012Y16063747D03*
G01*
X2990011Y16063747D03*
D28*
G01*
X4044950Y16392474D03*
G01*
X3795013Y16297478D03*
G01*
X3795013Y16487470D03*
G01*
X3795013Y16837456D03*
G01*
X4044950Y16932452D03*
G01*
X4044950Y16742460D03*
G01*
X3795013Y15962477D03*
G01*
X4044950Y16057473D03*
G01*
X4044950Y15867481D03*
G36*
X3349993Y16266116D02*
G01*
X3349993Y16403815D01*
X3463246Y16403815D01*
X3463246Y16266116D01*
G37*
G36*
X3269993Y16266116D02*
G01*
X3269993Y16403815D01*
X3156739Y16403815D01*
X3156739Y16266116D01*
G37*
G36*
X3389993Y15759468D02*
G01*
X3389993Y15705467D01*
X3333429Y15705467D01*
X3333429Y15759468D01*
G37*
G36*
X3419995Y15759468D02*
G01*
X3419995Y15705467D01*
X3476558Y15705467D01*
X3476558Y15759468D01*
G37*
G36*
X3188393Y16602461D02*
G01*
X3241591Y16602461D01*
X3241591Y16497960D01*
X3188393Y16497960D01*
G37*
G36*
X3283394Y16602461D02*
G01*
X3336592Y16602461D01*
X3336592Y16497960D01*
X3283394Y16497960D01*
G37*
G36*
X3378390Y16602461D02*
G01*
X3431588Y16602461D01*
X3431588Y16497960D01*
X3378390Y16497960D01*
G37*
G36*
X3378390Y16831975D02*
G01*
X3431588Y16831975D01*
X3431588Y16727474D01*
X3378390Y16727474D01*
G37*
G36*
X3188398Y16831975D02*
G01*
X3241596Y16831975D01*
X3241596Y16727474D01*
X3188398Y16727474D01*
G37*
D21*
G01*
X2227402Y15799968D03*
G01*
X2397582Y15799968D03*
G01*
X2802381Y15799968D03*
G01*
X2972561Y15799968D03*
G36*
X3640693Y16699969D02*
G01*
X3554293Y16699969D01*
X3554293Y16780616D01*
X3640693Y16780616D01*
G37*
D31*
G01*
X3597503Y16589654D03*
G36*
X3624493Y16984967D02*
G01*
X3570493Y16984967D01*
X3570493Y17041530D01*
X3624493Y17041530D01*
G37*
D32*
G01*
X3597503Y16926687D03*
D22*
G01*
X2602509Y15749955D03*
G01*
X2602509Y15849955D03*
D33*
G01*
X2537993Y16970019D03*
G01*
X2283993Y16970019D03*
G01*
X2029993Y16970019D03*
G01*
X1775993Y16970019D03*
G36*
X1443261Y17048749D02*
G01*
X1600741Y17048749D01*
X1600741Y16891269D01*
X1443261Y16891269D01*
G37*
D13*
G01*
X1213002Y16482313D03*
G01*
X1213002Y16281654D03*
D14*
G01*
X2047493Y16344976D03*
G01*
X2047493Y16272459D03*
G01*
X2382494Y16299967D03*
G01*
X2382494Y16372459D03*
G01*
X2382494Y16444976D03*
G01*
X2237486Y16444976D03*
G01*
X2275001Y16624960D03*
G01*
X2027504Y15889960D03*
G01*
X2569997Y16404970D03*
G01*
X1213002Y16032734D03*
G01*
X2890520Y16778986D03*
G01*
X3750005Y16952468D03*
G01*
X3592499Y16074974D03*
G01*
X3944975Y16172484D03*
G01*
X3927500Y16297478D03*
G01*
X4042486Y16642461D03*
G01*
X4017492Y15737459D03*
G01*
X3662502Y15797479D03*
G01*
X3862501Y15702457D03*
G01*
X4017492Y15964966D03*
G01*
X3077489Y15912464D03*
G01*
X3077489Y15754959D03*
G01*
X2385009Y15957473D03*
G01*
X2689986Y15957473D03*
G01*
X1887473Y15904971D03*
G01*
X1962505Y16214953D03*
G01*
X1552498Y15994964D03*
G01*
X1710004Y16052469D03*
G01*
X1397507Y16199967D03*
G01*
X1137488Y16162477D03*
G01*
X1152499Y15912464D03*
G01*
X1450009Y16749953D03*
G01*
X1217498Y16604970D03*
G01*
X1213002Y16736313D03*
G01*
X1887499Y16747464D03*
G01*
X2040000Y16582466D03*
G01*
X1364995Y16589959D03*
G01*
X2499995Y16779976D03*
G01*
X2659989Y16619956D03*
G01*
X2802483Y16659961D03*
G01*
X2650007Y16762476D03*
G01*
X3109975Y16699966D03*
G01*
X3312490Y16709974D03*
G01*
X3147491Y16987443D03*
G01*
X3147491Y16897477D03*
G01*
X3742486Y17052467D03*
G01*
X3914978Y16932478D03*
G01*
X3727500Y16732453D03*
G01*
X3797503Y16239972D03*
G01*
X4042486Y16517467D03*
G01*
X3642486Y15962477D03*
G01*
X3515004Y15799968D03*
G01*
X2822498Y16277462D03*
G01*
X2959988Y16332454D03*
G01*
X3034995Y16452469D03*
G01*
X2632481Y16122472D03*
G01*
X1399997Y15962477D03*
G01*
X2057501Y16129965D03*
G01*
X2237486Y15957473D03*
G01*
X1892477Y15714979D03*
G01*
X2347493Y16624960D03*
G01*
X2477490Y15957473D03*
G01*
X2557500Y16009975D03*
G01*
X2589987Y16687469D03*
G01*
X3404997Y16874032D03*
D35*
X1010991Y16969968D02*
G01*
X860991Y16969968D01*
X1010991Y15799968D02*
G01*
X860991Y15799968D01*
M02*
