G04 Layer: TopSolderMaskLayer*
G04 EasyEDA v6.4.25, 2021-11-13T21:47:53+08:00*
G04 5f2a3f83ced14d76a3667b2aff7d93ec,987c639a94b84ffc8c6145f2c3ae8d38,10*
G04 Gerber Generator version 0.2*
G04 Scale: 100 percent, Rotated: No, Reflected: No *
G04 Dimensions in millimeters *
G04 leading zeros omitted , absolute positions ,4 integer and 5 decimal *
%FSLAX45Y45*%
%MOMM*%

%ADD44C,2.1016*%
%ADD45C,0.4516*%
%ADD59R,1.3516X0.8016*%
%ADD64C,1.6764*%

%LPD*%
G36*
X4334967Y17049089D02*
G01*
X4332884Y17049038D01*
X4321911Y17045787D01*
X4265523Y17027194D01*
X4263948Y17029684D01*
X4256633Y17044009D01*
X4196689Y17044009D01*
X4190034Y17037304D01*
X4190034Y17020489D01*
X4244289Y17020489D01*
X4256633Y16995292D01*
X4213352Y16995292D01*
X4213352Y17020489D01*
X4190034Y17020489D01*
X4190034Y16971772D01*
X4334967Y16971772D01*
X4334967Y16995292D01*
X4280611Y16995292D01*
X4275328Y17006417D01*
X4334967Y17026280D01*
G37*
G36*
X4240022Y16909745D02*
G01*
X4240022Y16907967D01*
X4240682Y16905935D01*
X4245102Y16896080D01*
X4256735Y16872661D01*
X4213352Y16872661D01*
X4213352Y16909592D01*
X4190034Y16909592D01*
X4190034Y16849140D01*
X4334967Y16849140D01*
X4334967Y16909592D01*
X4311650Y16909592D01*
X4311650Y16872661D01*
X4280814Y16872661D01*
X4262475Y16908729D01*
G37*
G36*
X4190034Y16786707D02*
G01*
X4190034Y16762476D01*
X4260799Y16739057D01*
X4190034Y16738142D01*
X4190034Y16714724D01*
X4334967Y16714724D01*
X4334967Y16738142D01*
X4264253Y16739057D01*
X4334967Y16762425D01*
X4334967Y16786555D01*
X4262475Y16762323D01*
G37*
G36*
X4195216Y16650868D02*
G01*
X4190034Y16643400D01*
X4190034Y16627348D01*
X4244949Y16627348D01*
X4256227Y16604284D01*
X4256684Y16603014D01*
X4254957Y16602659D01*
X4243425Y16602201D01*
X4213352Y16602151D01*
X4213352Y16627348D01*
X4190034Y16627348D01*
X4190034Y16585590D01*
X4198823Y16578580D01*
X4334967Y16578580D01*
X4334967Y16602049D01*
X4280814Y16603014D01*
X4268165Y16627348D01*
X4334967Y16627348D01*
X4334967Y16650868D01*
G37*
G36*
X4196689Y16516451D02*
G01*
X4190034Y16509746D01*
X4190034Y16460012D01*
X4194048Y16455948D01*
X4190034Y16451935D01*
X4190034Y16402202D01*
X4196689Y16395496D01*
X4334967Y16395496D01*
X4334967Y16418966D01*
X4213352Y16418966D01*
X4213352Y16444213D01*
X4334967Y16444213D01*
X4334967Y16467734D01*
X4213352Y16467734D01*
X4213352Y16492931D01*
X4334967Y16492931D01*
X4334967Y16516451D01*
G37*
G36*
X4170070Y16375329D02*
G01*
X4170070Y16266972D01*
X4189984Y16266972D01*
X4191000Y16302228D01*
X4201515Y16324122D01*
X4210354Y16332962D01*
X4217619Y16339769D01*
X4224274Y16344696D01*
X4231335Y16348456D01*
X4239971Y16351808D01*
X4249928Y16355161D01*
X4274718Y16355161D01*
X4294124Y16349014D01*
X4301337Y16344442D01*
X4304741Y16342055D01*
X4308652Y16338905D01*
X4316018Y16331996D01*
X4323486Y16324122D01*
X4334154Y16302329D01*
X4334154Y16261842D01*
X4323486Y16239998D01*
X4316018Y16232174D01*
X4309059Y16225570D01*
X4301744Y16220135D01*
X4293920Y16215715D01*
X4285335Y16212210D01*
X4276140Y16209010D01*
X4250283Y16209010D01*
X4230827Y16215106D01*
X4218736Y16223132D01*
X4213961Y16227094D01*
X4209542Y16231412D01*
X4205528Y16236086D01*
X4201871Y16241064D01*
X4198569Y16246398D01*
X4195724Y16251986D01*
X4193336Y16257828D01*
X4189984Y16266972D01*
X4170070Y16266972D01*
X4170070Y16047719D01*
X4190034Y16047719D01*
X4190034Y16182441D01*
X4201363Y16193871D01*
X4323638Y16193871D01*
X4334967Y16182441D01*
X4334967Y16047719D01*
X4170070Y16047719D01*
X4170070Y16032581D01*
X4323638Y16032581D01*
X4334967Y16021151D01*
X4334967Y15897809D01*
X4323638Y15886430D01*
X4190034Y15886430D01*
X4190034Y15925038D01*
X4296664Y15925038D01*
X4296664Y15993973D01*
X4190034Y15993973D01*
X4190034Y16032581D01*
X4170070Y16032581D01*
X4170070Y15736519D01*
X4190034Y15736519D01*
X4190034Y15871291D01*
X4228338Y15871291D01*
X4228338Y15763748D01*
X4243324Y15763748D01*
X4243324Y15859099D01*
X4249877Y15867481D01*
X4259529Y15871494D01*
X4325264Y15870428D01*
X4334967Y15859455D01*
X4334967Y15725089D01*
X4296664Y15725089D01*
X4296664Y15832683D01*
X4281678Y15832683D01*
X4281678Y15725089D01*
X4201363Y15725089D01*
X4190034Y15736519D01*
X4170070Y15736519D01*
X4170070Y15704972D01*
X4354931Y15704972D01*
X4354931Y16375329D01*
G37*
G36*
X4228338Y16155212D02*
G01*
X4228338Y16086328D01*
X4296664Y16086328D01*
X4296664Y16155212D01*
G37*
D44*
X1010991Y16969968D02*
G01*
X860991Y16969968D01*
X1010991Y15799968D02*
G01*
X860991Y15799968D01*
D45*
X2409063Y16144963D02*
G01*
X2409063Y16209962D01*
X2344038Y16144963D02*
G01*
X2344038Y16209962D01*
X2279015Y16144963D02*
G01*
X2279015Y16209962D01*
X2213990Y16144963D02*
G01*
X2213990Y16209962D01*
X2409063Y16534955D02*
G01*
X2409063Y16599954D01*
X2344038Y16534955D02*
G01*
X2344038Y16599954D01*
X2279015Y16534955D02*
G01*
X2279015Y16599954D01*
X2213990Y16534955D02*
G01*
X2213990Y16599954D01*
X2472499Y16275938D02*
G01*
X2537498Y16275938D01*
X2472499Y16340962D02*
G01*
X2537498Y16340962D01*
X2472499Y16405987D02*
G01*
X2537498Y16405987D01*
X2472499Y16471011D02*
G01*
X2537498Y16471011D01*
X2082507Y16471519D02*
G01*
X2147506Y16471519D01*
X2082507Y16406495D02*
G01*
X2147506Y16406495D01*
X2082507Y16341470D02*
G01*
X2147506Y16341470D01*
X2082507Y16276446D02*
G01*
X2147506Y16276446D01*
G36*
X3233420Y16937989D02*
G01*
X3233420Y17001998D01*
X3299968Y17001998D01*
X3299968Y16937989D01*
G37*
G36*
X3320034Y16937989D02*
G01*
X3320034Y17001998D01*
X3386581Y17001998D01*
X3386581Y16937989D01*
G37*
G36*
X3133852Y15992347D02*
G01*
X3133852Y16137636D01*
X3284981Y16137636D01*
X3284981Y15992347D01*
G37*
G36*
X3339845Y15992347D02*
G01*
X3339845Y16137636D01*
X3490975Y16137636D01*
X3490975Y15992347D01*
G37*
G36*
X3547363Y16214852D02*
G01*
X3547363Y16305021D01*
X3647693Y16305021D01*
X3647693Y16214852D01*
G37*
G36*
X3547363Y16354805D02*
G01*
X3547363Y16444976D01*
X3647693Y16444976D01*
X3647693Y16354805D01*
G37*
G36*
X2711450Y16897350D02*
G01*
X2711450Y17042637D01*
X2862579Y17042637D01*
X2862579Y16897350D01*
G37*
G36*
X2917443Y16897350D02*
G01*
X2917443Y17042637D01*
X3068574Y17042637D01*
X3068574Y16897350D01*
G37*
G36*
X3328415Y15835376D02*
G01*
X3328415Y15899637D01*
X3394963Y15899637D01*
X3394963Y15835376D01*
G37*
G36*
X3415029Y15835376D02*
G01*
X3415029Y15899637D01*
X3481577Y15899637D01*
X3481577Y15835376D01*
G37*
G36*
X1110995Y15978124D02*
G01*
X1110995Y16088360D01*
X1316989Y16088360D01*
X1316989Y15978124D01*
G37*
G36*
X1110995Y16681704D02*
G01*
X1110995Y16791939D01*
X1316989Y16791939D01*
X1316989Y16681704D01*
G37*
G36*
X1110995Y16227044D02*
G01*
X1110995Y16337279D01*
X1316989Y16337279D01*
X1316989Y16227044D01*
G37*
G36*
X1110995Y16427704D02*
G01*
X1110995Y16537939D01*
X1316989Y16537939D01*
X1316989Y16427704D01*
G37*
G36*
X1823212Y16582897D02*
G01*
X1823212Y16647160D01*
X1912365Y16647160D01*
X1912365Y16582897D01*
G37*
G36*
X1932177Y16582897D02*
G01*
X1932177Y16647160D01*
X2021331Y16647160D01*
X2021331Y16582897D01*
G37*
G36*
X1823212Y16097757D02*
G01*
X1823212Y16162020D01*
X1912365Y16162020D01*
X1912365Y16097757D01*
G37*
G36*
X1932177Y16097757D02*
G01*
X1932177Y16162020D01*
X2021331Y16162020D01*
X2021331Y16097757D01*
G37*
G36*
X1712468Y16432276D02*
G01*
X1712468Y16502634D01*
X1822704Y16502634D01*
X1822704Y16432276D01*
G37*
G36*
X1712468Y16242284D02*
G01*
X1712468Y16312642D01*
X1822704Y16312642D01*
X1822704Y16242284D01*
G37*
G36*
X1452371Y16242284D02*
G01*
X1452371Y16312642D01*
X1562607Y16312642D01*
X1562607Y16242284D01*
G37*
G36*
X1452371Y16337279D02*
G01*
X1452371Y16407637D01*
X1562607Y16407637D01*
X1562607Y16337279D01*
G37*
G36*
X1452371Y16432276D02*
G01*
X1452371Y16502634D01*
X1562607Y16502634D01*
X1562607Y16432276D01*
G37*
G36*
X1530857Y16582897D02*
G01*
X1530857Y16647160D01*
X1620012Y16647160D01*
X1620012Y16582897D01*
G37*
G36*
X1639823Y16582897D02*
G01*
X1639823Y16647160D01*
X1728978Y16647160D01*
X1728978Y16582897D01*
G37*
G36*
X1530857Y16098012D02*
G01*
X1530857Y16162020D01*
X1620012Y16162020D01*
X1620012Y16098012D01*
G37*
G36*
X1639823Y16098012D02*
G01*
X1639823Y16162020D01*
X1728978Y16162020D01*
X1728978Y16098012D01*
G37*
G36*
X1499870Y15754857D02*
G01*
X1499870Y15845028D01*
X1590039Y15845028D01*
X1590039Y15754857D01*
G37*
G36*
X1670050Y15754857D02*
G01*
X1670050Y15845028D01*
X1760220Y15845028D01*
X1760220Y15754857D01*
G37*
G36*
X1977390Y15714726D02*
G01*
X1977390Y15785084D01*
X2077720Y15785084D01*
X2077720Y15714726D01*
G37*
G36*
X1977390Y15814802D02*
G01*
X1977390Y15885160D01*
X2077720Y15885160D01*
X2077720Y15814802D01*
G37*
G36*
X1294892Y15714726D02*
G01*
X1294892Y15785084D01*
X1395221Y15785084D01*
X1395221Y15714726D01*
G37*
G36*
X1294892Y15814802D02*
G01*
X1294892Y15885160D01*
X1395221Y15885160D01*
X1395221Y15814802D01*
G37*
G36*
X2207513Y16269970D02*
G01*
X2207513Y16474947D01*
X2412491Y16474947D01*
X2412491Y16269970D01*
G37*
G36*
X3142995Y15700755D02*
G01*
X3142995Y15790163D01*
X3207004Y15790163D01*
X3207004Y15700755D01*
G37*
G36*
X3142995Y15809976D02*
G01*
X3142995Y15899129D01*
X3207004Y15899129D01*
X3207004Y15809976D01*
G37*
G36*
X2668270Y16272763D02*
G01*
X2668270Y16397986D01*
X2773425Y16397986D01*
X2773425Y16272763D01*
G37*
G36*
X3006597Y16272763D02*
G01*
X3006597Y16397986D01*
X3111754Y16397986D01*
X3111754Y16272763D01*
G37*
G36*
X2735325Y16723868D02*
G01*
X2735325Y16834104D01*
X3045459Y16834104D01*
X3045459Y16723868D01*
G37*
G36*
X2735325Y16493997D02*
G01*
X2735325Y16604234D01*
X3045459Y16604234D01*
X3045459Y16493997D01*
G37*
G36*
X2729738Y15976092D02*
G01*
X2729738Y16151352D01*
X2850134Y16151352D01*
X2850134Y15976092D01*
G37*
G36*
X2929890Y15976092D02*
G01*
X2929890Y16151352D01*
X3050286Y16151352D01*
X3050286Y15976092D01*
G37*
D59*
G01*
X4044950Y16392474D03*
G01*
X3795013Y16297478D03*
G01*
X3795013Y16487470D03*
G36*
X3727450Y16797274D02*
G01*
X3727450Y16877537D01*
X3862577Y16877537D01*
X3862577Y16797274D01*
G37*
G36*
X3977386Y16892270D02*
G01*
X3977386Y16972534D01*
X4112513Y16972534D01*
X4112513Y16892270D01*
G37*
G36*
X3977386Y16702278D02*
G01*
X3977386Y16782542D01*
X4112513Y16782542D01*
X4112513Y16702278D01*
G37*
G36*
X3727450Y15922497D02*
G01*
X3727450Y16002507D01*
X3862577Y16002507D01*
X3862577Y15922497D01*
G37*
G36*
X3977386Y16017494D02*
G01*
X3977386Y16097504D01*
X4112513Y16097504D01*
X4112513Y16017494D01*
G37*
G36*
X3977386Y15827502D02*
G01*
X3977386Y15907512D01*
X4112513Y15907512D01*
X4112513Y15827502D01*
G37*
G36*
X3344925Y16261079D02*
G01*
X3344925Y16408907D01*
X3468370Y16408907D01*
X3468370Y16261079D01*
G37*
G36*
X3151631Y16261079D02*
G01*
X3151631Y16408907D01*
X3275075Y16408907D01*
X3275075Y16261079D01*
G37*
G36*
X3328415Y15700502D02*
G01*
X3328415Y15764510D01*
X3394963Y15764510D01*
X3394963Y15700502D01*
G37*
G36*
X3415029Y15700502D02*
G01*
X3415029Y15764510D01*
X3481577Y15764510D01*
X3481577Y15700502D01*
G37*
G36*
X3183381Y16492981D02*
G01*
X3183381Y16607536D01*
X3246627Y16607536D01*
X3246627Y16492981D01*
G37*
G36*
X3278377Y16492981D02*
G01*
X3278377Y16607536D01*
X3341624Y16607536D01*
X3341624Y16492981D01*
G37*
G36*
X3373374Y16492981D02*
G01*
X3373374Y16607536D01*
X3436620Y16607536D01*
X3436620Y16492981D01*
G37*
G36*
X3373374Y16722344D02*
G01*
X3373374Y16837152D01*
X3436620Y16837152D01*
X3436620Y16722344D01*
G37*
G36*
X3183381Y16722344D02*
G01*
X3183381Y16837152D01*
X3246627Y16837152D01*
X3246627Y16722344D01*
G37*
G36*
X2182368Y15754857D02*
G01*
X2182368Y15845028D01*
X2272538Y15845028D01*
X2272538Y15754857D01*
G37*
G36*
X2352547Y15754857D02*
G01*
X2352547Y15845028D01*
X2442718Y15845028D01*
X2442718Y15754857D01*
G37*
G36*
X2757170Y15754857D02*
G01*
X2757170Y15845028D01*
X2847340Y15845028D01*
X2847340Y15754857D01*
G37*
G36*
X2927350Y15754857D02*
G01*
X2927350Y15845028D01*
X3017520Y15845028D01*
X3017520Y15754857D01*
G37*
G36*
X3549141Y16694912D02*
G01*
X3549141Y16785589D01*
X3645661Y16785589D01*
X3645661Y16694912D01*
G37*
G36*
X3549141Y16544289D02*
G01*
X3549141Y16634968D01*
X3645661Y16634968D01*
X3645661Y16544289D01*
G37*
G36*
X3565397Y16979900D02*
G01*
X3565397Y17046702D01*
X3629659Y17046702D01*
X3629659Y16979900D01*
G37*
G36*
X3565397Y16893286D02*
G01*
X3565397Y16960087D01*
X3629659Y16960087D01*
X3629659Y16893286D01*
G37*
G36*
X2552445Y15714726D02*
G01*
X2552445Y15785084D01*
X2652775Y15785084D01*
X2652775Y15714726D01*
G37*
G36*
X2552445Y15814802D02*
G01*
X2552445Y15885160D01*
X2652775Y15885160D01*
X2652775Y15814802D01*
G37*
D64*
G01*
X2537993Y16970019D03*
G01*
X2283993Y16970019D03*
G01*
X2029993Y16970019D03*
G01*
X1775993Y16970019D03*
G36*
X1438147Y16886174D02*
G01*
X1438147Y17053813D01*
X1605787Y17053813D01*
X1605787Y16886174D01*
G37*
M02*
