G04 Layer: BottomLayer*
G04 EasyEDA v6.4.25, 2021-11-13T21:47:53+08:00*
G04 5f2a3f83ced14d76a3667b2aff7d93ec,987c639a94b84ffc8c6145f2c3ae8d38,10*
G04 Gerber Generator version 0.2*
G04 Scale: 100 percent, Rotated: No, Reflected: No *
G04 Dimensions in millimeters *
G04 leading zeros omitted , absolute positions ,4 integer and 5 decimal *
%FSLAX45Y45*%
%MOMM*%

%ADD10C,0.2540*%
%ADD11C,0.2000*%
%ADD13C,0.6096*%
%ADD14C,0.5000*%
%ADD33C,1.5748*%
%ADD35C,2.0000*%

%LPD*%
G36*
X804672Y15660420D02*
G01*
X788111Y15661386D01*
X773328Y15663976D01*
X758901Y15668193D01*
X745032Y15673984D01*
X731926Y15681299D01*
X719683Y15690088D01*
X708507Y15700146D01*
X698550Y15711373D01*
X689914Y15723666D01*
X682701Y15736874D01*
X677011Y15750794D01*
X672896Y15765221D01*
X670458Y15780054D01*
X669594Y15795498D01*
X669594Y16973499D01*
X670560Y16990060D01*
X673150Y17004893D01*
X677367Y17019320D01*
X683209Y17033138D01*
X690524Y17046295D01*
X699262Y17058487D01*
X709320Y17069663D01*
X720598Y17079620D01*
X732891Y17088256D01*
X746048Y17095520D01*
X759968Y17101210D01*
X774446Y17105274D01*
X789279Y17107763D01*
X804672Y17108576D01*
X4282744Y17108576D01*
X4299254Y17107611D01*
X4314088Y17105020D01*
X4328515Y17100804D01*
X4342384Y17095012D01*
X4355490Y17087697D01*
X4367682Y17078909D01*
X4378858Y17068850D01*
X4388815Y17057624D01*
X4397502Y17045330D01*
X4404715Y17032122D01*
X4410405Y17018203D01*
X4414469Y17003776D01*
X4416958Y16988942D01*
X4417771Y16973499D01*
X4417771Y15795498D01*
X4416806Y15778937D01*
X4414215Y15764103D01*
X4409998Y15749676D01*
X4404207Y15735858D01*
X4396892Y15722701D01*
X4388104Y15710509D01*
X4378045Y15699333D01*
X4366818Y15689376D01*
X4354525Y15680740D01*
X4341317Y15673527D01*
X4327448Y15667786D01*
X4312970Y15663722D01*
X4298137Y15661233D01*
X4282744Y15660420D01*
G37*

%LPC*%
G36*
X1451254Y15761766D02*
G01*
X2434590Y15761766D01*
X2442006Y15762579D01*
X2448560Y15764713D01*
X2454706Y15768269D01*
X2458872Y15771774D01*
X2913634Y16226536D01*
X2918307Y16232378D01*
X2921457Y16238524D01*
X2923286Y16245332D01*
X2923743Y16250818D01*
X2923743Y16744492D01*
X2924302Y16747794D01*
X2925876Y16750792D01*
X2928772Y16754398D01*
X2932734Y16762069D01*
X2935173Y16770400D01*
X2935986Y16778986D01*
X2935173Y16787571D01*
X2932633Y16796258D01*
X2932226Y16799966D01*
X2933242Y16803573D01*
X2935478Y16806570D01*
X2938678Y16808551D01*
X2942336Y16809262D01*
X3372916Y16809262D01*
X3380333Y16810024D01*
X3386886Y16812209D01*
X3393033Y16815714D01*
X3397199Y16819270D01*
X3404057Y16826128D01*
X3406698Y16828058D01*
X3409797Y16829024D01*
X3415690Y16829836D01*
X3423869Y16832681D01*
X3431387Y16836999D01*
X3437890Y16842689D01*
X3443224Y16849445D01*
X3447186Y16857116D01*
X3449624Y16865447D01*
X3450437Y16874032D01*
X3449624Y16882618D01*
X3447186Y16890949D01*
X3443224Y16898620D01*
X3437890Y16905376D01*
X3431387Y16911066D01*
X3423869Y16915384D01*
X3415690Y16918228D01*
X3407156Y16919448D01*
X3398520Y16919041D01*
X3390137Y16917009D01*
X3382264Y16913402D01*
X3375253Y16908373D01*
X3369259Y16902125D01*
X3364585Y16894860D01*
X3361385Y16886834D01*
X3360826Y16883888D01*
X3359556Y16880636D01*
X3357321Y16877995D01*
X3354273Y16876268D01*
X3350818Y16875658D01*
X2825546Y16875658D01*
X2818130Y16874896D01*
X2811526Y16872762D01*
X2805379Y16869206D01*
X2801264Y16865650D01*
X2659227Y16723664D01*
X2655925Y16721429D01*
X2652014Y16720667D01*
X2624582Y16720667D01*
X2621026Y16721328D01*
X2617927Y16723156D01*
X2616352Y16724477D01*
X2608884Y16728795D01*
X2600706Y16731640D01*
X2592171Y16732859D01*
X2583535Y16732453D01*
X2575153Y16730421D01*
X2567279Y16726814D01*
X2560218Y16721836D01*
X2554274Y16715587D01*
X2549601Y16708272D01*
X2546400Y16700296D01*
X2544775Y16692067D01*
X2543048Y16688054D01*
X2539796Y16685107D01*
X2535631Y16683837D01*
X2531313Y16684447D01*
X2527655Y16686784D01*
X2358847Y16855541D01*
X2353056Y16860266D01*
X2346858Y16863415D01*
X2340051Y16865244D01*
X2338070Y16865396D01*
X2334006Y16866565D01*
X2330805Y16869308D01*
X2328976Y16873067D01*
X2328824Y16877233D01*
X2330399Y16881144D01*
X2333396Y16884091D01*
X2342845Y16890136D01*
X2352954Y16898670D01*
X2361844Y16908526D01*
X2369362Y16919448D01*
X2375357Y16931284D01*
X2379675Y16943781D01*
X2382316Y16956786D01*
X2383231Y16969994D01*
X2382316Y16983252D01*
X2379675Y16996206D01*
X2375357Y17008754D01*
X2369362Y17020590D01*
X2361844Y17031512D01*
X2352954Y17041317D01*
X2342845Y17049902D01*
X2331669Y17057014D01*
X2319680Y17062602D01*
X2306980Y17066514D01*
X2293924Y17068749D01*
X2280666Y17069155D01*
X2267508Y17067834D01*
X2254605Y17064786D01*
X2242261Y17060011D01*
X2230628Y17053661D01*
X2219960Y17045787D01*
X2210409Y17036542D01*
X2202180Y17026178D01*
X2195474Y17014748D01*
X2190292Y17002556D01*
X2186787Y16989755D01*
X2185009Y16976648D01*
X2185009Y16963390D01*
X2186787Y16950232D01*
X2190292Y16937482D01*
X2195474Y16925239D01*
X2202180Y16913860D01*
X2210409Y16903446D01*
X2219960Y16894251D01*
X2230628Y16886377D01*
X2233625Y16884751D01*
X2236927Y16881805D01*
X2238705Y16877741D01*
X2238603Y16873321D01*
X2236571Y16869359D01*
X2233066Y16866616D01*
X2228748Y16865650D01*
X1831339Y16865650D01*
X1827072Y16866565D01*
X1823618Y16869156D01*
X1821586Y16872966D01*
X1821281Y16877284D01*
X1822805Y16881348D01*
X1825853Y16884396D01*
X1834845Y16890136D01*
X1844954Y16898670D01*
X1853844Y16908526D01*
X1861362Y16919448D01*
X1867357Y16931284D01*
X1871675Y16943781D01*
X1874316Y16956786D01*
X1875231Y16969994D01*
X1874316Y16983252D01*
X1871675Y16996206D01*
X1867357Y17008754D01*
X1861362Y17020590D01*
X1853844Y17031512D01*
X1844954Y17041317D01*
X1834845Y17049902D01*
X1823669Y17057014D01*
X1811680Y17062602D01*
X1798980Y17066514D01*
X1785924Y17068749D01*
X1772666Y17069155D01*
X1759508Y17067834D01*
X1746605Y17064786D01*
X1734261Y17060011D01*
X1722628Y17053661D01*
X1711960Y17045787D01*
X1702409Y17036542D01*
X1694180Y17026178D01*
X1687474Y17014748D01*
X1682292Y17002556D01*
X1678787Y16989755D01*
X1677009Y16976648D01*
X1677009Y16963390D01*
X1678787Y16950232D01*
X1682292Y16937482D01*
X1687474Y16925239D01*
X1694180Y16913860D01*
X1702409Y16903446D01*
X1711960Y16894251D01*
X1722628Y16886377D01*
X1725625Y16884751D01*
X1728927Y16881805D01*
X1730705Y16877741D01*
X1730603Y16873321D01*
X1728571Y16869359D01*
X1725066Y16866616D01*
X1720748Y16865650D01*
X1677517Y16865650D01*
X1673606Y16866463D01*
X1670304Y16868648D01*
X1624228Y16914723D01*
X1621993Y16918025D01*
X1621231Y16921937D01*
X1621231Y17048175D01*
X1620672Y17053306D01*
X1619148Y17057624D01*
X1616710Y17061484D01*
X1613458Y17064736D01*
X1609598Y17067174D01*
X1605280Y17068647D01*
X1600149Y17069257D01*
X1443837Y17069257D01*
X1438706Y17068647D01*
X1434388Y17067174D01*
X1430528Y17064736D01*
X1427276Y17061484D01*
X1424838Y17057624D01*
X1423365Y17053306D01*
X1422755Y17048175D01*
X1422755Y16891863D01*
X1423365Y16886732D01*
X1424838Y16882414D01*
X1427276Y16878554D01*
X1430528Y16875302D01*
X1434388Y16872864D01*
X1438706Y16871340D01*
X1443837Y16870781D01*
X1570075Y16870781D01*
X1573987Y16870019D01*
X1577289Y16867784D01*
X1635709Y16809364D01*
X1641500Y16804690D01*
X1647647Y16801541D01*
X1654505Y16799712D01*
X1659940Y16799255D01*
X2317038Y16799255D01*
X2320950Y16798493D01*
X2324201Y16796308D01*
X2533802Y16586707D01*
X2536037Y16583406D01*
X2536799Y16579494D01*
X2536799Y16439794D01*
X2536393Y16436898D01*
X2535123Y16434206D01*
X2529586Y16425773D01*
X2526385Y16417798D01*
X2524760Y16409314D01*
X2524760Y16400627D01*
X2526385Y16392144D01*
X2529586Y16384168D01*
X2534259Y16376853D01*
X2540254Y16370604D01*
X2547264Y16365626D01*
X2555138Y16362019D01*
X2563520Y16359987D01*
X2572156Y16359581D01*
X2580690Y16360800D01*
X2588869Y16363645D01*
X2596388Y16367963D01*
X2602890Y16373601D01*
X2608224Y16380409D01*
X2612186Y16388080D01*
X2614625Y16396360D01*
X2615438Y16404945D01*
X2614625Y16413581D01*
X2612186Y16421862D01*
X2608224Y16429532D01*
X2605379Y16433190D01*
X2603754Y16436136D01*
X2603195Y16439489D01*
X2603195Y16596918D01*
X2602433Y16604386D01*
X2600248Y16610939D01*
X2596743Y16617086D01*
X2593187Y16621251D01*
X2589174Y16625214D01*
X2586786Y16628973D01*
X2586278Y16633444D01*
X2587701Y16637660D01*
X2590749Y16640860D01*
X2594914Y16642486D01*
X2600706Y16643299D01*
X2608884Y16646144D01*
X2616352Y16650462D01*
X2617927Y16651782D01*
X2621026Y16653611D01*
X2624582Y16654272D01*
X2669489Y16654272D01*
X2676906Y16655034D01*
X2683459Y16657167D01*
X2689606Y16660723D01*
X2693771Y16664279D01*
X2829610Y16800118D01*
X2833217Y16802455D01*
X2837434Y16803065D01*
X2841548Y16801896D01*
X2844800Y16799153D01*
X2846679Y16795292D01*
X2846781Y16791025D01*
X2845257Y16783304D01*
X2845257Y16774668D01*
X2846933Y16766184D01*
X2850083Y16758208D01*
X2855671Y16749725D01*
X2856890Y16747083D01*
X2857347Y16744188D01*
X2857347Y16268395D01*
X2856534Y16264483D01*
X2854350Y16261181D01*
X2540000Y15946831D01*
X2536545Y15944596D01*
X2532481Y15943884D01*
X2528519Y15944850D01*
X2525217Y15947339D01*
X2523185Y15950895D01*
X2522728Y15955010D01*
X2522931Y15957448D01*
X2522118Y15966084D01*
X2519680Y15974364D01*
X2515717Y15982035D01*
X2510383Y15988842D01*
X2503881Y15994481D01*
X2496362Y15998799D01*
X2488234Y16001644D01*
X2479649Y16002863D01*
X2475687Y16003625D01*
X2472283Y16005860D01*
X2363419Y16114522D01*
X2361234Y16117824D01*
X2360422Y16121735D01*
X2360422Y16574312D01*
X2361031Y16577818D01*
X2362809Y16580866D01*
X2365502Y16583151D01*
X2373884Y16587927D01*
X2380386Y16593616D01*
X2385720Y16600373D01*
X2389682Y16608094D01*
X2392121Y16616375D01*
X2392934Y16624960D01*
X2392121Y16633545D01*
X2389682Y16641876D01*
X2385720Y16649547D01*
X2380386Y16656354D01*
X2373884Y16661993D01*
X2366365Y16666311D01*
X2358186Y16669156D01*
X2349652Y16670375D01*
X2341016Y16669969D01*
X2332634Y16667937D01*
X2324760Y16664330D01*
X2316937Y16658742D01*
X2312822Y16657015D01*
X2308352Y16657218D01*
X2304389Y16659351D01*
X2301341Y16661993D01*
X2293874Y16666311D01*
X2285695Y16669156D01*
X2277160Y16670375D01*
X2268524Y16669969D01*
X2260142Y16667937D01*
X2252268Y16664330D01*
X2245207Y16659301D01*
X2239264Y16653052D01*
X2234590Y16645788D01*
X2231390Y16637762D01*
X2229764Y16629278D01*
X2229764Y16620642D01*
X2231390Y16612158D01*
X2234590Y16604132D01*
X2239264Y16596868D01*
X2245207Y16590619D01*
X2252268Y16585590D01*
X2256180Y16583812D01*
X2259279Y16581577D01*
X2261362Y16578376D01*
X2262124Y16574566D01*
X2262124Y16172027D01*
X2261311Y16168116D01*
X2259126Y16164813D01*
X2032457Y15938144D01*
X2029358Y15936010D01*
X2025751Y15935198D01*
X2021027Y15934944D01*
X2012645Y15932912D01*
X2004771Y15929305D01*
X1997760Y15924326D01*
X1991766Y15918078D01*
X1987092Y15910763D01*
X1983892Y15902787D01*
X1982266Y15894304D01*
X1982266Y15885617D01*
X1983892Y15877133D01*
X1987092Y15869157D01*
X1991766Y15861842D01*
X1997760Y15855594D01*
X2004771Y15850616D01*
X2011375Y15847568D01*
X2014524Y15845332D01*
X2016607Y15841980D01*
X2017318Y15838119D01*
X2016455Y15834309D01*
X2014270Y15831108D01*
X2010968Y15828924D01*
X2007158Y15828162D01*
X1468831Y15828162D01*
X1464919Y15828975D01*
X1461617Y15831159D01*
X1260856Y16031921D01*
X1258874Y16034766D01*
X1257960Y16038118D01*
X1257655Y16041319D01*
X1255217Y16049650D01*
X1251254Y16057321D01*
X1245920Y16064077D01*
X1239367Y16069767D01*
X1231900Y16074085D01*
X1223721Y16076930D01*
X1215186Y16078149D01*
X1206550Y16077742D01*
X1198118Y16075710D01*
X1190294Y16072104D01*
X1183233Y16067074D01*
X1177290Y16060826D01*
X1172616Y16053562D01*
X1169416Y16045535D01*
X1167739Y16037051D01*
X1167739Y16028416D01*
X1169416Y16019932D01*
X1172616Y16011906D01*
X1177290Y16004641D01*
X1183233Y15998393D01*
X1190294Y15993363D01*
X1198118Y15989757D01*
X1206550Y15987725D01*
X1211072Y15986861D01*
X1214170Y15984728D01*
X1426972Y15771876D01*
X1432814Y15767202D01*
X1438960Y15764052D01*
X1445768Y15762224D01*
G37*
G36*
X935990Y16084600D02*
G01*
X947013Y16085464D01*
X957783Y16088055D01*
X967994Y16092322D01*
X977392Y16098062D01*
X985824Y16105276D01*
X992987Y16113658D01*
X998778Y16123107D01*
X1002995Y16133318D01*
X1005586Y16144087D01*
X1006449Y16155060D01*
X1005586Y16166084D01*
X1002995Y16176853D01*
X998778Y16187064D01*
X992987Y16196513D01*
X985824Y16204895D01*
X977392Y16212108D01*
X967994Y16217849D01*
X957783Y16222116D01*
X947013Y16224707D01*
X935990Y16225570D01*
X924966Y16224707D01*
X914196Y16222116D01*
X903986Y16217849D01*
X894587Y16212108D01*
X886155Y16204895D01*
X878992Y16196513D01*
X873201Y16187064D01*
X868984Y16176853D01*
X866394Y16166084D01*
X865530Y16155060D01*
X866394Y16144087D01*
X868984Y16133318D01*
X873201Y16123107D01*
X878992Y16113658D01*
X886155Y16105276D01*
X894587Y16098062D01*
X903986Y16092322D01*
X914196Y16088055D01*
X924966Y16085464D01*
G37*
G36*
X2049678Y16227044D02*
G01*
X2058212Y16228263D01*
X2066391Y16231107D01*
X2073859Y16235426D01*
X2080412Y16241115D01*
X2083816Y16245128D01*
X2088692Y16249243D01*
X2125624Y16285921D01*
X2130348Y16291712D01*
X2133498Y16297859D01*
X2135378Y16304666D01*
X2135835Y16310254D01*
X2135835Y16366998D01*
X2135022Y16374414D01*
X2132888Y16380968D01*
X2129383Y16387114D01*
X2125726Y16391382D01*
X2093620Y16423233D01*
X2087778Y16427907D01*
X2081580Y16431006D01*
X2074773Y16432784D01*
X2069439Y16433190D01*
X1313383Y16433190D01*
X1309471Y16434003D01*
X1306169Y16436187D01*
X1266952Y16475456D01*
X1264920Y16478300D01*
X1264005Y16481704D01*
X1263142Y16491407D01*
X1260703Y16500195D01*
X1256741Y16508425D01*
X1251356Y16515842D01*
X1244752Y16522141D01*
X1237132Y16527170D01*
X1228750Y16530777D01*
X1219860Y16532809D01*
X1210716Y16533215D01*
X1201674Y16531996D01*
X1192987Y16529151D01*
X1184960Y16524833D01*
X1177798Y16519144D01*
X1171803Y16512235D01*
X1167130Y16504412D01*
X1163878Y16495877D01*
X1162253Y16486886D01*
X1162253Y16477742D01*
X1163878Y16468750D01*
X1167130Y16460216D01*
X1171803Y16452392D01*
X1177798Y16445484D01*
X1184960Y16439794D01*
X1192987Y16435476D01*
X1201674Y16432631D01*
X1210716Y16431412D01*
X1212291Y16431513D01*
X1216406Y16430802D01*
X1219911Y16428516D01*
X1260043Y16388435D01*
X1262176Y16385336D01*
X1263040Y16381780D01*
X1262532Y16378072D01*
X1260754Y16374821D01*
X1256690Y16371722D01*
X1252524Y16368166D01*
X1219809Y16335451D01*
X1216304Y16333165D01*
X1201674Y16331336D01*
X1192987Y16328491D01*
X1184960Y16324173D01*
X1177798Y16318484D01*
X1171803Y16311575D01*
X1167130Y16303751D01*
X1163878Y16295217D01*
X1162253Y16286226D01*
X1162253Y16277082D01*
X1163878Y16268090D01*
X1167130Y16259556D01*
X1171803Y16251732D01*
X1177798Y16244824D01*
X1184960Y16239134D01*
X1192987Y16234816D01*
X1201674Y16231971D01*
X1210716Y16230752D01*
X1219860Y16231158D01*
X1228750Y16233190D01*
X1237132Y16236797D01*
X1244752Y16241826D01*
X1251356Y16248126D01*
X1256741Y16255542D01*
X1260703Y16263772D01*
X1263142Y16272560D01*
X1264005Y16282365D01*
X1264920Y16285768D01*
X1266952Y16288664D01*
X1287068Y16308781D01*
X1290370Y16311016D01*
X1294282Y16311778D01*
X2000351Y16311778D01*
X2004568Y16310863D01*
X2008022Y16308273D01*
X2010105Y16304463D01*
X2010410Y16300145D01*
X2008936Y16296132D01*
X2007107Y16293287D01*
X2003907Y16285260D01*
X2002231Y16276777D01*
X2002231Y16268141D01*
X2003907Y16259657D01*
X2007107Y16251631D01*
X2011781Y16244366D01*
X2017725Y16238118D01*
X2024786Y16233089D01*
X2032609Y16229482D01*
X2041042Y16227450D01*
G37*
G36*
X935990Y16539260D02*
G01*
X947013Y16540124D01*
X957783Y16542715D01*
X967994Y16546982D01*
X977392Y16552722D01*
X985824Y16559936D01*
X992987Y16568318D01*
X998778Y16577767D01*
X1002995Y16587978D01*
X1005586Y16598747D01*
X1006449Y16609720D01*
X1005586Y16620744D01*
X1002995Y16631513D01*
X998778Y16641724D01*
X992987Y16651173D01*
X985824Y16659555D01*
X977392Y16666768D01*
X967994Y16672509D01*
X957783Y16676776D01*
X947013Y16679367D01*
X935990Y16680230D01*
X924966Y16679367D01*
X914196Y16676776D01*
X903986Y16672509D01*
X894587Y16666768D01*
X886155Y16659555D01*
X878992Y16651173D01*
X873201Y16641724D01*
X868984Y16631513D01*
X866394Y16620744D01*
X865530Y16609720D01*
X866394Y16598747D01*
X868984Y16587978D01*
X873201Y16577767D01*
X878992Y16568318D01*
X886155Y16559936D01*
X894587Y16552722D01*
X903986Y16546982D01*
X914196Y16542715D01*
X924966Y16540124D01*
G37*
G36*
X2534666Y16870832D02*
G01*
X2547924Y16871289D01*
X2560980Y16873474D01*
X2573680Y16877436D01*
X2585669Y16883024D01*
X2596845Y16890136D01*
X2606954Y16898670D01*
X2615844Y16908526D01*
X2623362Y16919448D01*
X2629357Y16931284D01*
X2633675Y16943781D01*
X2636316Y16956786D01*
X2637231Y16969994D01*
X2636316Y16983252D01*
X2633675Y16996206D01*
X2629357Y17008754D01*
X2623362Y17020590D01*
X2615844Y17031512D01*
X2606954Y17041317D01*
X2596845Y17049902D01*
X2585669Y17057014D01*
X2573680Y17062602D01*
X2560980Y17066514D01*
X2547924Y17068749D01*
X2534666Y17069155D01*
X2521508Y17067834D01*
X2508605Y17064786D01*
X2496261Y17060011D01*
X2484628Y17053661D01*
X2473960Y17045787D01*
X2464409Y17036542D01*
X2456180Y17026178D01*
X2449474Y17014748D01*
X2444292Y17002556D01*
X2440787Y16989755D01*
X2439009Y16976648D01*
X2439009Y16963390D01*
X2440787Y16950232D01*
X2444292Y16937482D01*
X2449474Y16925239D01*
X2456180Y16913860D01*
X2464409Y16903446D01*
X2473960Y16894251D01*
X2484628Y16886377D01*
X2496261Y16880027D01*
X2508605Y16875252D01*
X2521508Y16872153D01*
G37*

%LPD*%
G36*
X2047798Y15828162D02*
G01*
X2043836Y15828975D01*
X2040483Y15831312D01*
X2038299Y15834715D01*
X2037638Y15838678D01*
X2038553Y15842640D01*
X2040991Y15845891D01*
X2044446Y15847923D01*
X2046376Y15848634D01*
X2053894Y15852952D01*
X2060397Y15858591D01*
X2065731Y15865398D01*
X2069693Y15873069D01*
X2072132Y15881350D01*
X2072843Y15889020D01*
X2073808Y15892373D01*
X2075789Y15895218D01*
X2283358Y16102787D01*
X2286914Y16105124D01*
X2291080Y16105784D01*
X2295144Y16104666D01*
X2298446Y16102025D01*
X2300376Y16098266D01*
X2301544Y16093948D01*
X2304440Y16088258D01*
X2308758Y16082924D01*
X2429256Y15962630D01*
X2431491Y15959328D01*
X2432253Y15955416D01*
X2432253Y15953130D01*
X2433878Y15944646D01*
X2437079Y15936620D01*
X2441752Y15929356D01*
X2447747Y15923107D01*
X2454757Y15918129D01*
X2462631Y15914522D01*
X2470962Y15912490D01*
X2481122Y15912134D01*
X2484932Y15911220D01*
X2488133Y15908985D01*
X2490216Y15905683D01*
X2490927Y15901822D01*
X2490114Y15898012D01*
X2487930Y15894761D01*
X2424328Y15831159D01*
X2421026Y15828975D01*
X2417114Y15828162D01*
G37*

%LPD*%
D10*
X3404997Y16874032D02*
G01*
X3373429Y16842465D01*
X2824995Y16842465D01*
X2669997Y16687467D01*
X2589994Y16687467D01*
D11*
X2347468Y16625062D02*
G01*
X2329941Y16607536D01*
X2329941Y16104870D01*
X2477515Y15957550D01*
X2275077Y16625062D02*
G01*
X2292604Y16607536D01*
X2292604Y16155162D01*
X2027427Y15889986D01*
D10*
X2047496Y16344966D02*
G01*
X1276304Y16344966D01*
X1213002Y16281664D01*
X1522003Y16970009D02*
G01*
X1659544Y16832468D01*
X2335001Y16832468D01*
X2569997Y16597472D01*
X2569997Y16404970D01*
X2890520Y16778986D02*
G01*
X2890520Y16250412D01*
X2435097Y15794989D01*
X1450847Y15794989D01*
X1213104Y16032734D01*
X2047493Y16272510D02*
G01*
X2065020Y16272510D01*
X2102611Y16309847D01*
X2102611Y16367505D01*
X2069845Y16400018D01*
X1295400Y16400018D01*
X1213104Y16482313D01*
D33*
G01*
X2537993Y16970019D03*
G01*
X2283993Y16970019D03*
G01*
X2029993Y16970019D03*
G01*
X1775993Y16970019D03*
G36*
X1443261Y17048749D02*
G01*
X1600741Y17048749D01*
X1600741Y16891269D01*
X1443261Y16891269D01*
G37*
D13*
G01*
X1213002Y16482313D03*
G01*
X1213002Y16281654D03*
D14*
G01*
X2047493Y16344976D03*
G01*
X2047493Y16272459D03*
G01*
X2382494Y16299967D03*
G01*
X2382494Y16372459D03*
G01*
X2382494Y16444976D03*
G01*
X2237486Y16444976D03*
G01*
X2275001Y16624960D03*
G01*
X2027504Y15889960D03*
G01*
X2569997Y16404970D03*
G01*
X1213002Y16032734D03*
G01*
X2890520Y16778986D03*
G01*
X3750005Y16952468D03*
G01*
X3592499Y16074974D03*
G01*
X3944975Y16172484D03*
G01*
X3927500Y16297478D03*
G01*
X4042486Y16642461D03*
G01*
X4017492Y15737459D03*
G01*
X3662502Y15797479D03*
G01*
X3862501Y15702457D03*
G01*
X4017492Y15964966D03*
G01*
X3077489Y15912464D03*
G01*
X3077489Y15754959D03*
G01*
X2385009Y15957473D03*
G01*
X2689986Y15957473D03*
G01*
X1887473Y15904971D03*
G01*
X1962505Y16214953D03*
G01*
X1552498Y15994964D03*
G01*
X1710004Y16052469D03*
G01*
X1397507Y16199967D03*
G01*
X1137488Y16162477D03*
G01*
X1152499Y15912464D03*
G01*
X1450009Y16749953D03*
G01*
X1217498Y16604970D03*
G01*
X1213002Y16736313D03*
G01*
X1887499Y16747464D03*
G01*
X2040000Y16582466D03*
G01*
X1364995Y16589959D03*
G01*
X2499995Y16779976D03*
G01*
X2659989Y16619956D03*
G01*
X2802483Y16659961D03*
G01*
X2650007Y16762476D03*
G01*
X3109975Y16699966D03*
G01*
X3312490Y16709974D03*
G01*
X3147491Y16987443D03*
G01*
X3147491Y16897477D03*
G01*
X3742486Y17052467D03*
G01*
X3914978Y16932478D03*
G01*
X3727500Y16732453D03*
G01*
X3797503Y16239972D03*
G01*
X4042486Y16517467D03*
G01*
X3642486Y15962477D03*
G01*
X3515004Y15799968D03*
G01*
X2822498Y16277462D03*
G01*
X2959988Y16332454D03*
G01*
X3034995Y16452469D03*
G01*
X2632481Y16122472D03*
G01*
X1399997Y15962477D03*
G01*
X2057501Y16129965D03*
G01*
X2237486Y15957473D03*
G01*
X1892477Y15714979D03*
G01*
X2347493Y16624960D03*
G01*
X2477490Y15957473D03*
G01*
X2557500Y16009975D03*
G01*
X2589987Y16687469D03*
G01*
X3404997Y16874032D03*
D35*
X1010991Y16969968D02*
G01*
X860991Y16969968D01*
X1010991Y15799968D02*
G01*
X860991Y15799968D01*
M02*
