G04 Layer: BottomSilkLayer*
G04 EasyEDA v6.4.25, 2021-11-13T21:47:53+08:00*
G04 5f2a3f83ced14d76a3667b2aff7d93ec,987c639a94b84ffc8c6145f2c3ae8d38,10*
G04 Gerber Generator version 0.2*
G04 Scale: 100 percent, Rotated: No, Reflected: No *
G04 Dimensions in millimeters *
G04 leading zeros omitted , absolute positions ,4 integer and 5 decimal *
%FSLAX45Y45*%
%MOMM*%

%ADD10C,0.0001*%

%LPD*%
G36*
X1733296Y16792702D02*
G01*
X1729587Y16777004D01*
X1720342Y16727525D01*
X1716074Y16707815D01*
X1679752Y16692118D01*
X1657299Y16682872D01*
X1616202Y16711168D01*
X1593748Y16725950D01*
X1587703Y16729506D01*
X1586534Y16729963D01*
X1585468Y16729354D01*
X1580184Y16724934D01*
X1571599Y16716959D01*
X1560779Y16706443D01*
X1525473Y16671137D01*
X1553413Y16630853D01*
X1561744Y16618407D01*
X1568043Y16608501D01*
X1571548Y16602303D01*
X1572006Y16600932D01*
X1571040Y16597426D01*
X1568399Y16590213D01*
X1559661Y16568978D01*
X1547266Y16540276D01*
X1473606Y16526662D01*
X1465529Y16524884D01*
X1465529Y16439134D01*
X1545031Y16424046D01*
X1550974Y16410228D01*
X1571599Y16359530D01*
X1525473Y16292423D01*
X1585112Y16232886D01*
X1590141Y16235324D01*
X1604975Y16245128D01*
X1651965Y16277640D01*
X1674469Y16265753D01*
X1679803Y16263213D01*
X1683562Y16261689D01*
X1685137Y16261334D01*
X1692452Y16278402D01*
X1712975Y16328085D01*
X1742389Y16398240D01*
X1734312Y16403878D01*
X1730197Y16407079D01*
X1719173Y16416832D01*
X1700987Y16434765D01*
X1689404Y16465651D01*
X1689404Y16498112D01*
X1694688Y16511930D01*
X1697329Y16518229D01*
X1700326Y16524173D01*
X1703679Y16529761D01*
X1707438Y16535044D01*
X1711553Y16539921D01*
X1716024Y16544493D01*
X1720900Y16548709D01*
X1726082Y16552570D01*
X1731670Y16556075D01*
X1737614Y16559276D01*
X1743964Y16562069D01*
X1750618Y16564559D01*
X1764080Y16569080D01*
X1786737Y16569080D01*
X1800199Y16564559D01*
X1806854Y16562069D01*
X1813204Y16559276D01*
X1819148Y16556075D01*
X1824736Y16552570D01*
X1829917Y16548709D01*
X1834794Y16544493D01*
X1839264Y16539921D01*
X1843379Y16535044D01*
X1847138Y16529761D01*
X1850491Y16524173D01*
X1853539Y16518229D01*
X1856181Y16511930D01*
X1861413Y16498112D01*
X1861413Y16465651D01*
X1849831Y16434765D01*
X1831644Y16416832D01*
X1820621Y16407079D01*
X1816506Y16403878D01*
X1808429Y16398240D01*
X1837842Y16328085D01*
X1858365Y16278402D01*
X1865680Y16261334D01*
X1867306Y16261689D01*
X1871014Y16263213D01*
X1882698Y16269004D01*
X1898904Y16277640D01*
X1945843Y16245128D01*
X1960676Y16235324D01*
X1965706Y16232886D01*
X2025345Y16292423D01*
X1979269Y16359530D01*
X1999843Y16410228D01*
X2005787Y16424046D01*
X2085339Y16439134D01*
X2085339Y16525036D01*
X2003501Y16540429D01*
X1986330Y16580459D01*
X1979777Y16597426D01*
X1978812Y16600932D01*
X1979269Y16602303D01*
X1982825Y16608501D01*
X1989124Y16618407D01*
X1997405Y16630853D01*
X2025345Y16671137D01*
X1990039Y16706443D01*
X1979218Y16716959D01*
X1970633Y16724934D01*
X1965350Y16729354D01*
X1964283Y16729963D01*
X1960676Y16728135D01*
X1941169Y16715587D01*
X1893519Y16682872D01*
X1855419Y16698772D01*
X1834743Y16707815D01*
X1830476Y16727525D01*
X1821230Y16777004D01*
X1817522Y16792702D01*
G37*
G36*
X1982927Y16170960D02*
G01*
X1974037Y16168827D01*
X1967128Y16166693D01*
X1956968Y16162883D01*
X1946097Y16145052D01*
X1946097Y16135502D01*
X1962454Y16135502D01*
X1962454Y16139109D01*
X1962962Y16140988D01*
X1964283Y16143427D01*
X1966315Y16146068D01*
X1968754Y16148659D01*
X1975104Y16154603D01*
X1986635Y16154603D01*
X1994458Y16144443D01*
X1996287Y16141649D01*
X1997506Y16139312D01*
X1997964Y16137839D01*
X1997964Y16135502D01*
X1946097Y16135502D01*
X1946046Y16119144D01*
X1997964Y16119144D01*
X1997964Y16111321D01*
X1983536Y16100044D01*
X1978304Y16100044D01*
X1975662Y16100348D01*
X1972360Y16101212D01*
X1968804Y16102482D01*
X1965350Y16104006D01*
X1957628Y16108019D01*
X1948281Y16097656D01*
X1950059Y16094710D01*
X1951583Y16093236D01*
X1954326Y16091407D01*
X1957882Y16089426D01*
X1961946Y16087496D01*
X1972005Y16083280D01*
X1992680Y16085921D01*
X2006092Y16094710D01*
X2014321Y16114318D01*
X2014321Y16138093D01*
X2005279Y16160699D01*
G37*
G36*
X2142185Y16170656D02*
G01*
X2135632Y16169843D01*
X2127605Y16166998D01*
X2118207Y16163086D01*
X2107184Y16145052D01*
X2107219Y16114877D01*
X2123541Y16114877D01*
X2123541Y16139718D01*
X2127554Y16145459D01*
X2129485Y16147796D01*
X2131822Y16149878D01*
X2134260Y16151504D01*
X2136546Y16152469D01*
X2141474Y16153790D01*
X2153208Y16149421D01*
X2159050Y16138601D01*
X2159050Y16114877D01*
X2150516Y16102787D01*
X2132025Y16102787D01*
X2123541Y16114877D01*
X2107219Y16114877D01*
X2107234Y16109594D01*
X2114042Y16096132D01*
X2132533Y16083686D01*
X2149500Y16083686D01*
X2167534Y16094710D01*
X2175408Y16113506D01*
X2175408Y16142411D01*
X2165400Y16161410D01*
X2156053Y16166185D01*
X2148535Y16169436D01*
G37*
G36*
X1481378Y16170554D02*
G01*
X1475994Y16170046D01*
X1457401Y16164661D01*
X1449070Y16155466D01*
X1459230Y16146322D01*
X1478889Y16154552D01*
X1492504Y16149370D01*
X1499006Y16137178D01*
X1499006Y16116604D01*
X1489964Y16102787D01*
X1470609Y16102787D01*
X1459585Y16108680D01*
X1449070Y16099129D01*
X1457960Y16089325D01*
X1476806Y16083127D01*
X1485595Y16084804D01*
X1493723Y16087191D01*
X1500632Y16091052D01*
X1506372Y16096488D01*
X1510944Y16103549D01*
X1515414Y16112185D01*
X1515719Y16139566D01*
X1506016Y16159683D01*
X1486763Y16169030D01*
G37*
G36*
X1533448Y16170554D02*
G01*
X1529384Y16169995D01*
X1523238Y16167963D01*
X1517446Y16165677D01*
X1515211Y16163442D01*
X1516278Y16160445D01*
X1520444Y16155619D01*
X1526184Y16149472D01*
X1538427Y16154146D01*
X1551533Y16147643D01*
X1554226Y16085057D01*
X1570634Y16085057D01*
X1572158Y16168217D01*
X1552905Y16168217D01*
X1552905Y16163036D01*
X1537614Y16169538D01*
G37*
G36*
X1783689Y16170554D02*
G01*
X1778254Y16169944D01*
X1757832Y16164864D01*
X1751431Y16157194D01*
X1761083Y16146627D01*
X1768805Y16150590D01*
X1772310Y16152164D01*
X1776171Y16153434D01*
X1779879Y16154247D01*
X1783029Y16154603D01*
X1789582Y16154603D01*
X1798878Y16144341D01*
X1790039Y16135502D01*
X1768297Y16135502D01*
X1752803Y16127476D01*
X1747012Y16110966D01*
X1752803Y16094405D01*
X1773834Y16083686D01*
X1791817Y16083788D01*
X1807616Y16091154D01*
X1811578Y16093440D01*
X1814626Y16095573D01*
X1816303Y16097199D01*
X1818284Y16100399D01*
X1808988Y16110661D01*
X1789125Y16100044D01*
X1775104Y16100044D01*
X1765249Y16107206D01*
X1767281Y16117773D01*
X1788668Y16120262D01*
X1794713Y16121430D01*
X1799793Y16122802D01*
X1803247Y16124123D01*
X1809089Y16127272D01*
X1815439Y16146475D01*
X1805178Y16164102D01*
X1788668Y16169690D01*
G37*
G36*
X1893773Y16170554D02*
G01*
X1888998Y16169792D01*
X1872691Y16163188D01*
X1864156Y16146678D01*
X1864156Y16083686D01*
X1880514Y16083686D01*
X1880514Y16140328D01*
X1890420Y16152520D01*
X1905609Y16152520D01*
X1914652Y16143478D01*
X1916531Y16083381D01*
X1931060Y16085057D01*
X1932533Y16168217D01*
X1916023Y16168217D01*
X1916023Y16160597D01*
X1898700Y16169284D01*
G37*
G36*
X2054301Y16170554D02*
G01*
X2049729Y16169690D01*
X2033778Y16163188D01*
X2024735Y16145662D01*
X2026127Y16111219D01*
X2043430Y16111219D01*
X2043430Y16143376D01*
X2046732Y16147338D01*
X2048408Y16148964D01*
X2050542Y16150488D01*
X2052878Y16151758D01*
X2055164Y16152622D01*
X2060295Y16153942D01*
X2073046Y16147643D01*
X2074672Y16110457D01*
X2068271Y16102787D01*
X2050491Y16102787D01*
X2043430Y16111219D01*
X2026127Y16111219D01*
X2026615Y16099586D01*
X2034235Y16093033D01*
X2037791Y16090341D01*
X2041702Y16087851D01*
X2045563Y16085870D01*
X2048865Y16084702D01*
X2055875Y16082924D01*
X2074418Y16091763D01*
X2074418Y16031870D01*
X2071827Y16031870D01*
X2070709Y16032073D01*
X2069490Y16032683D01*
X2068423Y16033546D01*
X2065883Y16037306D01*
X2042414Y16037306D01*
X2028189Y16024148D01*
X2026615Y16017798D01*
X2026056Y16013074D01*
X2025700Y16004895D01*
X2025802Y15982797D01*
X2026615Y15954146D01*
X2040991Y15952469D01*
X2043074Y16013277D01*
X2053589Y16020948D01*
X2061718Y16020694D01*
X2064410Y16020135D01*
X2066899Y16019322D01*
X2068931Y16018306D01*
X2073046Y16015716D01*
X2075738Y15954146D01*
X2090775Y15952419D01*
X2090775Y16168217D01*
X2074418Y16168217D01*
X2074418Y16163036D01*
X2058873Y16169589D01*
G37*
G36*
X1703120Y16170503D02*
G01*
X1697685Y16169589D01*
X1690725Y16166998D01*
X1681327Y16163086D01*
X1670304Y16145052D01*
X1670354Y16112744D01*
X1686661Y16112744D01*
X1686661Y16139718D01*
X1690674Y16145459D01*
X1692656Y16147796D01*
X1694992Y16149878D01*
X1697431Y16151504D01*
X1699666Y16152469D01*
X1704644Y16153790D01*
X1716328Y16149421D01*
X1722170Y16138601D01*
X1722170Y16114877D01*
X1713687Y16102787D01*
X1695704Y16102787D01*
X1686661Y16112744D01*
X1670354Y16112744D01*
X1670354Y16109594D01*
X1677212Y16096132D01*
X1695653Y16083686D01*
X1712620Y16083686D01*
X1730705Y16094710D01*
X1739138Y16114826D01*
X1736953Y16149066D01*
X1725980Y16163747D01*
X1716582Y16167150D01*
X1708810Y16169690D01*
G37*
G36*
X1408480Y16170249D02*
G01*
X1403197Y16168979D01*
X1384554Y16160750D01*
X1375410Y16141496D01*
X1375410Y16135502D01*
X1391818Y16135502D01*
X1391818Y16137839D01*
X1392224Y16139312D01*
X1393444Y16141649D01*
X1397457Y16147389D01*
X1403096Y16154603D01*
X1415948Y16154603D01*
X1423822Y16144443D01*
X1426819Y16139312D01*
X1427276Y16137839D01*
X1427276Y16135502D01*
X1375410Y16135502D01*
X1375410Y16119144D01*
X1427276Y16119144D01*
X1427276Y16116300D01*
X1426768Y16114623D01*
X1425295Y16112286D01*
X1423212Y16109543D01*
X1413865Y16100044D01*
X1401216Y16100044D01*
X1388719Y16108781D01*
X1383436Y16103955D01*
X1379423Y16099739D01*
X1378813Y16096386D01*
X1381861Y16093186D01*
X1388973Y16089172D01*
X1399743Y16083686D01*
X1406804Y16083686D01*
X1410258Y16083991D01*
X1414526Y16084854D01*
X1418996Y16086074D01*
X1423212Y16087598D01*
X1432610Y16091509D01*
X1443939Y16109594D01*
X1442262Y16147796D01*
X1430274Y16164610D01*
X1413764Y16169741D01*
G37*
G36*
X1588262Y16168217D02*
G01*
X1589735Y16085057D01*
X1604772Y16083330D01*
X1604772Y16087598D01*
X1605280Y16090544D01*
X1606905Y16091560D01*
X1609801Y16090595D01*
X1614170Y16087699D01*
X1619453Y16083686D01*
X1633423Y16083686D01*
X1650847Y16094303D01*
X1656588Y16115030D01*
X1656638Y16168217D01*
X1637538Y16168217D01*
X1637538Y16109289D01*
X1630984Y16102787D01*
X1613255Y16102787D01*
X1604772Y16114877D01*
X1604772Y16168217D01*
G37*
G36*
X1803958Y16070021D02*
G01*
X1805125Y15979140D01*
X1823212Y15979140D01*
X1823212Y16012413D01*
X1831797Y16020948D01*
X1847088Y16020948D01*
X1850136Y16017290D01*
X1851456Y16015207D01*
X1852828Y16012210D01*
X1853996Y16008705D01*
X1854911Y16005098D01*
X1856587Y15996615D01*
X1853031Y15977514D01*
X1844649Y15969132D01*
X1832254Y15969132D01*
X1823212Y15979140D01*
X1805125Y15979140D01*
X1805432Y15954146D01*
X1820519Y15952419D01*
X1823567Y15960394D01*
X1839874Y15952216D01*
X1857806Y15955619D01*
X1870964Y15969589D01*
X1870964Y16020592D01*
X1854606Y16037712D01*
X1839061Y16036036D01*
X1830679Y16034308D01*
X1827987Y16033394D01*
X1823212Y16031260D01*
X1823212Y16070021D01*
G37*
G36*
X1678279Y16037661D02*
G01*
X1680464Y16029381D01*
X1686356Y16010483D01*
X1704746Y15954146D01*
X1718818Y15952469D01*
X1736801Y16011144D01*
X1737461Y16010432D01*
X1740662Y16001593D01*
X1745284Y15986506D01*
X1749958Y15969843D01*
X1753819Y15954146D01*
X1769567Y15954146D01*
X1787956Y16010432D01*
X1793849Y16029228D01*
X1795983Y16037306D01*
X1778152Y16037306D01*
X1762099Y15978682D01*
X1743456Y16037306D01*
X1730908Y16037306D01*
X1712315Y15979394D01*
X1703120Y16010534D01*
X1695957Y16035934D01*
G37*
G36*
X1487779Y16037306D02*
G01*
X1471676Y16023793D01*
X1465122Y16007994D01*
X1465700Y16001847D01*
X1484630Y16001847D01*
X1484630Y16014395D01*
X1491183Y16020948D01*
X1508353Y16020948D01*
X1512874Y16015969D01*
X1514602Y16013684D01*
X1516075Y16011093D01*
X1517040Y16008604D01*
X1517396Y16006419D01*
X1517396Y16001847D01*
X1465700Y16001847D01*
X1466900Y15989604D01*
X1517396Y15988030D01*
X1517396Y15984067D01*
X1516938Y15982086D01*
X1515770Y15979648D01*
X1514043Y15977057D01*
X1511909Y15974618D01*
X1506474Y15969132D01*
X1499463Y15969132D01*
X1496314Y15969386D01*
X1492859Y15970046D01*
X1489557Y15971012D01*
X1486814Y15972180D01*
X1481226Y15975177D01*
X1467815Y15969081D01*
X1468882Y15965932D01*
X1469999Y15964306D01*
X1472336Y15962223D01*
X1475587Y15959886D01*
X1488694Y15952419D01*
X1515821Y15955416D01*
X1532229Y15971824D01*
X1534363Y16009366D01*
X1524863Y16029330D01*
X1510588Y16037102D01*
G37*
G36*
X1552956Y16037306D02*
G01*
X1548892Y16037051D01*
X1545031Y16036544D01*
X1541729Y16035731D01*
X1539443Y16034766D01*
X1535582Y16032327D01*
X1544472Y16018713D01*
X1565808Y16021557D01*
X1574749Y16008857D01*
X1574749Y15952774D01*
X1591106Y15952774D01*
X1591106Y16037306D01*
X1574749Y16037306D01*
X1574749Y16028822D01*
X1562608Y16037306D01*
G37*
G36*
X1626209Y16037306D02*
G01*
X1610207Y16021354D01*
X1610207Y15988233D01*
X1656435Y15988233D01*
X1662074Y15977717D01*
X1653539Y15969132D01*
X1633169Y15969132D01*
X1626616Y15975685D01*
X1626616Y15988233D01*
X1610207Y15988233D01*
X1610207Y15952774D01*
X1626616Y15952774D01*
X1626666Y15962325D01*
X1631848Y15954146D01*
X1661668Y15954146D01*
X1675739Y15967354D01*
X1675739Y15990569D01*
X1661363Y16001847D01*
X1626260Y16001847D01*
X1627987Y16019576D01*
X1664563Y16019576D01*
X1671675Y16026790D01*
X1658772Y16037306D01*
G37*
G36*
X1878888Y16037306D02*
G01*
X1872386Y16030803D01*
X1883816Y16018662D01*
X1901037Y16021151D01*
X1909216Y16015716D01*
X1911959Y15954146D01*
X1926945Y15952419D01*
X1926945Y16037306D01*
X1910588Y16037306D01*
X1910588Y16028314D01*
X1900580Y16037306D01*
G37*
G36*
X1967636Y16037306D02*
G01*
X1952599Y16029533D01*
X1946046Y16015258D01*
X1946046Y15988233D01*
X1976780Y15988030D01*
X1987905Y15987471D01*
X1992071Y15986963D01*
X1994509Y15986455D01*
X1997964Y15985032D01*
X1997964Y15980359D01*
X1997659Y15978276D01*
X1996998Y15976092D01*
X1995932Y15974060D01*
X1994662Y15972434D01*
X1991410Y15969132D01*
X1968093Y15969132D01*
X1965248Y15974415D01*
X1963267Y15979394D01*
X1962657Y15981883D01*
X1962454Y15983966D01*
X1962454Y15988233D01*
X1946046Y15988233D01*
X1946046Y15952774D01*
X1962454Y15952774D01*
X1962454Y15961106D01*
X1976221Y15952063D01*
X2001875Y15954959D01*
X2014321Y15970504D01*
X2014321Y15976854D01*
X2013508Y15982696D01*
X2011222Y15988690D01*
X2007870Y15994126D01*
X2003653Y15998393D01*
X1999284Y16001695D01*
X1964994Y16001847D01*
X1961591Y16010788D01*
X1967077Y16019576D01*
X1990140Y16021304D01*
X1996693Y16015868D01*
X2010206Y16026434D01*
X1996592Y16037204D01*
G37*
G36*
X2904032Y16687800D02*
G01*
X2891840Y16685463D01*
X2881680Y16678401D01*
X2874822Y16668038D01*
X2872536Y16655796D01*
X2872536Y16607282D01*
X2873044Y16601287D01*
X2874467Y16596461D01*
X2876854Y16592905D01*
X2880156Y16590518D01*
X2919730Y16570807D01*
X2923286Y16569791D01*
X2924860Y16569690D01*
X2927299Y16570198D01*
X2929077Y16571722D01*
X2930093Y16574262D01*
X2930448Y16577818D01*
X2930448Y16630142D01*
X2961944Y16630142D01*
X2961944Y16425418D01*
X2930448Y16425418D01*
X2930448Y16477234D01*
X2943656Y16477234D01*
X2945892Y16477538D01*
X2947466Y16478504D01*
X2948432Y16480078D01*
X2948736Y16482313D01*
X2948736Y16530066D01*
X2948381Y16532453D01*
X2947212Y16534638D01*
X2945333Y16536517D01*
X2942640Y16538194D01*
X2890316Y16564610D01*
X2884474Y16567251D01*
X2882138Y16567912D01*
X2880156Y16568166D01*
X2877870Y16567759D01*
X2876092Y16566642D01*
X2874568Y16564813D01*
X2873451Y16562832D01*
X2872790Y16560749D01*
X2872536Y16558513D01*
X2872536Y16399001D01*
X2874822Y16386810D01*
X2881680Y16376650D01*
X2891840Y16369792D01*
X2904032Y16367506D01*
X2988360Y16367506D01*
X3000552Y16369792D01*
X3010712Y16376650D01*
X3017570Y16386810D01*
X3019856Y16399001D01*
X3019856Y16655796D01*
X3017570Y16668038D01*
X3010712Y16678401D01*
X3000552Y16685412D01*
X2988360Y16687800D01*
G37*
G36*
X3081832Y16687800D02*
G01*
X3069640Y16685463D01*
X3059480Y16678401D01*
X3052622Y16668038D01*
X3050336Y16655796D01*
X3050336Y16372586D01*
X3050692Y16370350D01*
X3051759Y16368776D01*
X3053486Y16367810D01*
X3055924Y16367506D01*
X3103168Y16367506D01*
X3105404Y16367810D01*
X3106978Y16368776D01*
X3107944Y16370350D01*
X3108248Y16372586D01*
X3108248Y16630142D01*
X3139744Y16630142D01*
X3139744Y16372586D01*
X3140049Y16370350D01*
X3141014Y16368776D01*
X3142589Y16367810D01*
X3144824Y16367506D01*
X3192576Y16367506D01*
X3194812Y16367810D01*
X3196386Y16368776D01*
X3197352Y16370350D01*
X3197656Y16372586D01*
X3197656Y16682212D01*
X3197352Y16684447D01*
X3196386Y16686123D01*
X3194812Y16687241D01*
X3192576Y16687800D01*
X3144824Y16687800D01*
X3142589Y16687241D01*
X3141014Y16686123D01*
X3140049Y16684447D01*
X3139744Y16682212D01*
X3139744Y16678656D01*
X3137458Y16680586D01*
X3134563Y16682313D01*
X3131108Y16683888D01*
X3123031Y16686377D01*
X3116681Y16687647D01*
X3114344Y16687800D01*
G37*
G36*
X3259632Y16687800D02*
G01*
X3247440Y16685463D01*
X3237280Y16678401D01*
X3230422Y16668038D01*
X3228136Y16655796D01*
X3228286Y16630142D01*
X3317544Y16630142D01*
X3317544Y16559530D01*
X3286048Y16575786D01*
X3286048Y16630142D01*
X3228286Y16630142D01*
X3228644Y16568674D01*
X3229000Y16563289D01*
X3230067Y16557802D01*
X3231794Y16552214D01*
X3234232Y16546576D01*
X3237280Y16541292D01*
X3240836Y16536822D01*
X3244900Y16533266D01*
X3249472Y16530574D01*
X3269792Y16520413D01*
X3207816Y16373601D01*
X3206800Y16370554D01*
X3207054Y16369182D01*
X3207816Y16368268D01*
X3209086Y16367658D01*
X3210864Y16367506D01*
X3266744Y16367506D01*
X3269589Y16367861D01*
X3272078Y16369030D01*
X3274161Y16370909D01*
X3275888Y16373601D01*
X3317544Y16472662D01*
X3317544Y16372586D01*
X3317849Y16370350D01*
X3318814Y16368776D01*
X3320389Y16367810D01*
X3322624Y16367506D01*
X3370376Y16367506D01*
X3372612Y16367810D01*
X3374186Y16368776D01*
X3375151Y16370350D01*
X3375456Y16372586D01*
X3375456Y16682212D01*
X3375151Y16684447D01*
X3374186Y16686123D01*
X3372612Y16687241D01*
X3370376Y16687800D01*
X3322624Y16687800D01*
X3320389Y16687241D01*
X3318814Y16686123D01*
X3317849Y16684447D01*
X3317544Y16682212D01*
X3317544Y16678656D01*
X3315258Y16680586D01*
X3312363Y16682313D01*
X3308908Y16683888D01*
X3300831Y16686377D01*
X3294481Y16687647D01*
X3292144Y16687800D01*
G37*
G36*
X3614978Y16687800D02*
G01*
X3602786Y16685463D01*
X3592626Y16678401D01*
X3585768Y16668038D01*
X3583482Y16655796D01*
X3583482Y16610330D01*
X3583889Y16606570D01*
X3585006Y16603472D01*
X3586937Y16600982D01*
X3589578Y16599154D01*
X3635501Y16576141D01*
X3637534Y16575379D01*
X3638346Y16575278D01*
X3639667Y16575735D01*
X3640632Y16576649D01*
X3641191Y16578021D01*
X3641394Y16579850D01*
X3641394Y16630142D01*
X3672890Y16630142D01*
X3672890Y16425418D01*
X3641394Y16425418D01*
X3641394Y16454882D01*
X3640937Y16458895D01*
X3639515Y16462349D01*
X3637127Y16465245D01*
X3633774Y16467582D01*
X3592677Y16488562D01*
X3590137Y16489324D01*
X3589070Y16489426D01*
X3586632Y16488816D01*
X3584905Y16487140D01*
X3583838Y16484295D01*
X3583482Y16480282D01*
X3583482Y16399001D01*
X3585768Y16386810D01*
X3592626Y16376650D01*
X3602786Y16369792D01*
X3614978Y16367506D01*
X3699306Y16367506D01*
X3711498Y16369792D01*
X3721658Y16376650D01*
X3728516Y16386810D01*
X3730802Y16399001D01*
X3730802Y16655796D01*
X3728516Y16668038D01*
X3721658Y16678401D01*
X3711498Y16685412D01*
X3699306Y16687800D01*
G37*
G36*
X3766870Y16687800D02*
G01*
X3764635Y16687241D01*
X3763060Y16686123D01*
X3762095Y16684447D01*
X3761790Y16682212D01*
X3761790Y16372586D01*
X3762095Y16370350D01*
X3763060Y16368776D01*
X3764635Y16367810D01*
X3766870Y16367506D01*
X3814622Y16367506D01*
X3816858Y16367810D01*
X3818432Y16368776D01*
X3819398Y16370350D01*
X3819702Y16372586D01*
X3819702Y16682212D01*
X3819398Y16684447D01*
X3818432Y16686123D01*
X3816858Y16687241D01*
X3814622Y16687800D01*
G37*
G36*
X3886758Y16687800D02*
G01*
X3874566Y16685463D01*
X3864406Y16678401D01*
X3857548Y16668038D01*
X3855262Y16655796D01*
X3855412Y16630142D01*
X3944670Y16630142D01*
X3944670Y16559530D01*
X3913174Y16575786D01*
X3913174Y16630142D01*
X3855412Y16630142D01*
X3855770Y16568674D01*
X3856126Y16563289D01*
X3857193Y16557802D01*
X3858920Y16552214D01*
X3861358Y16546576D01*
X3864406Y16541292D01*
X3867962Y16536822D01*
X3872026Y16533266D01*
X3876598Y16530574D01*
X3944670Y16496030D01*
X3944670Y16372586D01*
X3944975Y16370350D01*
X3945940Y16368776D01*
X3947515Y16367810D01*
X3949750Y16367506D01*
X3997502Y16367506D01*
X3999737Y16367810D01*
X4001312Y16368776D01*
X4002278Y16370350D01*
X4002582Y16372586D01*
X4002582Y16682212D01*
X4002278Y16684447D01*
X4001312Y16686123D01*
X3999737Y16687241D01*
X3997502Y16687800D01*
X3949750Y16687800D01*
X3947515Y16687241D01*
X3945940Y16686123D01*
X3944975Y16684447D01*
X3944670Y16682212D01*
X3944670Y16678656D01*
X3933748Y16685513D01*
X3919270Y16687800D01*
G37*
G36*
X3437178Y16614394D02*
G01*
X3424986Y16612107D01*
X3414826Y16605250D01*
X3407968Y16595090D01*
X3405682Y16582898D01*
X3405682Y16567150D01*
X3495090Y16567150D01*
X3495090Y16414750D01*
X3463594Y16414750D01*
X3463594Y16567150D01*
X3405682Y16567150D01*
X3405682Y16399001D01*
X3407968Y16386810D01*
X3414826Y16376650D01*
X3424986Y16369792D01*
X3437178Y16367506D01*
X3521506Y16367506D01*
X3533698Y16369792D01*
X3543858Y16376650D01*
X3550716Y16386810D01*
X3553002Y16399001D01*
X3553002Y16582898D01*
X3550716Y16595090D01*
X3543858Y16605250D01*
X3533698Y16612107D01*
X3521506Y16614394D01*
G37*
G36*
X3019348Y16231362D02*
G01*
X3019348Y16167862D01*
X3002838Y16182340D01*
X2995117Y16189604D01*
X2988106Y16197072D01*
X2973374Y16197072D01*
X2980588Y16189350D01*
X2988868Y16181324D01*
X3006648Y16165830D01*
X3002330Y16162426D01*
X2997504Y16158210D01*
X2992526Y16153434D01*
X2982671Y16142969D01*
X2977946Y16137636D01*
X2973882Y16132301D01*
X2970834Y16127476D01*
X2985566Y16127476D01*
X2988716Y16132098D01*
X2992424Y16136874D01*
X2996844Y16141750D01*
X3001314Y16146272D01*
X3006140Y16150640D01*
X3015386Y16158159D01*
X3019348Y16161004D01*
X3019348Y16127476D01*
X3031794Y16127476D01*
X3031794Y16229330D01*
G37*
G36*
X3278174Y16231362D02*
G01*
X3278174Y16138144D01*
X3290620Y16138144D01*
X3290620Y16182340D01*
X3293160Y16184321D01*
X3296716Y16186150D01*
X3300882Y16187318D01*
X3305098Y16187674D01*
X3307537Y16187572D01*
X3311753Y16186657D01*
X3313480Y16185896D01*
X3316732Y16183559D01*
X3319322Y16180562D01*
X3321304Y16176751D01*
X3322624Y16172434D01*
X3323386Y16167506D01*
X3323640Y16162274D01*
X3323336Y16156533D01*
X3322269Y16151504D01*
X3320542Y16147135D01*
X3318052Y16143478D01*
X3314954Y16140582D01*
X3311398Y16138550D01*
X3307435Y16137280D01*
X3303066Y16136874D01*
X3295192Y16137382D01*
X3290620Y16138144D01*
X3278174Y16138144D01*
X3278174Y16129507D01*
X3288334Y16126968D01*
X3295192Y16126002D01*
X3303066Y16125698D01*
X3306826Y16125850D01*
X3310331Y16126358D01*
X3313684Y16127120D01*
X3316782Y16128238D01*
X3319729Y16129762D01*
X3322472Y16131489D01*
X3324961Y16133419D01*
X3327196Y16135604D01*
X3329381Y16138144D01*
X3331210Y16140887D01*
X3332784Y16143833D01*
X3334054Y16147034D01*
X3335070Y16150539D01*
X3335782Y16154298D01*
X3336239Y16158159D01*
X3336239Y16166236D01*
X3335223Y16173602D01*
X3333191Y16180206D01*
X3331870Y16183152D01*
X3330295Y16185896D01*
X3328466Y16188436D01*
X3326485Y16190722D01*
X3324250Y16192754D01*
X3321761Y16194532D01*
X3319068Y16196056D01*
X3316325Y16197173D01*
X3313328Y16197986D01*
X3310077Y16198443D01*
X3303930Y16198494D01*
X3299104Y16197884D01*
X3294989Y16196665D01*
X3291789Y16195294D01*
X3290620Y16194532D01*
X3290620Y16229330D01*
G37*
G36*
X3452926Y16222472D02*
G01*
X3449320Y16222370D01*
X3442106Y16221405D01*
X3435807Y16219881D01*
X3433114Y16218916D01*
X3429050Y16216630D01*
X3433114Y16206469D01*
X3436670Y16208248D01*
X3441242Y16210026D01*
X3446830Y16211346D01*
X3449828Y16211702D01*
X3452926Y16211804D01*
X3456228Y16211600D01*
X3459276Y16210991D01*
X3462070Y16209924D01*
X3464610Y16208501D01*
X3466846Y16206520D01*
X3468420Y16204184D01*
X3469386Y16201440D01*
X3469690Y16198342D01*
X3469640Y16196411D01*
X3468878Y16193109D01*
X3467455Y16190366D01*
X3465576Y16187978D01*
X3463036Y16185946D01*
X3460140Y16184168D01*
X3453282Y16180816D01*
X3443376Y16176396D01*
X3438702Y16173907D01*
X3434638Y16171011D01*
X3431286Y16167658D01*
X3428644Y16163848D01*
X3427526Y16161766D01*
X3426764Y16159378D01*
X3426206Y16156686D01*
X3425748Y16150590D01*
X3426256Y16144951D01*
X3427780Y16139972D01*
X3430320Y16135705D01*
X3433876Y16132048D01*
X3443782Y16127120D01*
X3457244Y16125444D01*
X3462172Y16125647D01*
X3466642Y16126206D01*
X3470706Y16127018D01*
X3477564Y16129000D01*
X3482594Y16131032D01*
X3484168Y16132048D01*
X3480358Y16142207D01*
X3476802Y16140379D01*
X3468573Y16137382D01*
X3465068Y16136670D01*
X3461308Y16136264D01*
X3457244Y16136112D01*
X3452876Y16136315D01*
X3449015Y16137026D01*
X3445764Y16138093D01*
X3443020Y16139668D01*
X3440836Y16141801D01*
X3439210Y16144290D01*
X3438296Y16147237D01*
X3437940Y16150590D01*
X3438398Y16154603D01*
X3439718Y16157956D01*
X3441852Y16160800D01*
X3444544Y16163290D01*
X3447796Y16165576D01*
X3455212Y16169081D01*
X3463493Y16172586D01*
X3467658Y16174719D01*
X3471570Y16177209D01*
X3475024Y16180054D01*
X3477971Y16183152D01*
X3480104Y16186912D01*
X3480917Y16189045D01*
X3481476Y16191382D01*
X3481882Y16196563D01*
X3481425Y16202304D01*
X3480003Y16207435D01*
X3477615Y16211854D01*
X3474262Y16215613D01*
X3470097Y16218611D01*
X3465118Y16220744D01*
X3459429Y16222065D01*
G37*
G36*
X3683050Y16222472D02*
G01*
X3676192Y16222065D01*
X3670300Y16220744D01*
X3665423Y16218611D01*
X3661460Y16215613D01*
X3658362Y16211956D01*
X3656126Y16207536D01*
X3654806Y16202406D01*
X3654348Y16196563D01*
X3654856Y16191890D01*
X3656380Y16187419D01*
X3658514Y16182898D01*
X3661206Y16178530D01*
X3664508Y16174212D01*
X3668318Y16169894D01*
X3684473Y16153079D01*
X3689654Y16146576D01*
X3691686Y16143478D01*
X3693058Y16140430D01*
X3693464Y16137890D01*
X3650792Y16137890D01*
X3650792Y16127476D01*
X3706926Y16127476D01*
X3707129Y16128238D01*
X3707079Y16133622D01*
X3706622Y16136619D01*
X3705910Y16139464D01*
X3703828Y16144951D01*
X3701135Y16150183D01*
X3697884Y16154907D01*
X3694176Y16159327D01*
X3676243Y16177869D01*
X3672128Y16182594D01*
X3670096Y16185896D01*
X3668572Y16189198D01*
X3667455Y16192550D01*
X3667048Y16196056D01*
X3667404Y16199866D01*
X3668318Y16203168D01*
X3669842Y16205707D01*
X3671874Y16207740D01*
X3674110Y16209467D01*
X3676700Y16210534D01*
X3679850Y16211296D01*
X3683050Y16211550D01*
X3686759Y16211296D01*
X3690162Y16210534D01*
X3693109Y16209213D01*
X3698138Y16206419D01*
X3702862Y16202660D01*
X3708958Y16211296D01*
X3705402Y16214598D01*
X3702710Y16216579D01*
X3699560Y16218407D01*
X3696004Y16219881D01*
X3691940Y16221201D01*
X3687724Y16222167D01*
G37*
G36*
X3754932Y16222472D02*
G01*
X3741928Y16219322D01*
X3732326Y16209772D01*
X3726434Y16194582D01*
X3724452Y16173957D01*
X3736898Y16173957D01*
X3737152Y16181374D01*
X3737914Y16188436D01*
X3739083Y16194836D01*
X3740962Y16200374D01*
X3742080Y16202812D01*
X3744722Y16206876D01*
X3746296Y16208501D01*
X3748176Y16209822D01*
X3750259Y16210788D01*
X3752494Y16211346D01*
X3754932Y16211550D01*
X3757422Y16211346D01*
X3759657Y16210788D01*
X3761740Y16209822D01*
X3763568Y16208501D01*
X3765194Y16206876D01*
X3767988Y16202812D01*
X3769156Y16200374D01*
X3770122Y16197732D01*
X3771493Y16191738D01*
X3772408Y16184981D01*
X3772915Y16177717D01*
X3772915Y16170198D01*
X3772408Y16162934D01*
X3771493Y16156178D01*
X3770122Y16150183D01*
X3769156Y16147542D01*
X3767988Y16145154D01*
X3765194Y16141090D01*
X3763568Y16139413D01*
X3761740Y16138093D01*
X3759657Y16137128D01*
X3757422Y16136569D01*
X3754932Y16136366D01*
X3752494Y16136569D01*
X3750259Y16137128D01*
X3748176Y16138093D01*
X3746296Y16139413D01*
X3744722Y16141090D01*
X3742080Y16145154D01*
X3739946Y16150183D01*
X3738422Y16156178D01*
X3737508Y16162934D01*
X3736898Y16173957D01*
X3724452Y16173957D01*
X3726434Y16153333D01*
X3732326Y16138144D01*
X3741928Y16128644D01*
X3754932Y16125444D01*
X3767836Y16128644D01*
X3777538Y16138144D01*
X3781094Y16145052D01*
X3783634Y16153333D01*
X3785158Y16162934D01*
X3785666Y16173957D01*
X3785158Y16184981D01*
X3783634Y16194582D01*
X3781094Y16202863D01*
X3777538Y16209772D01*
X3767836Y16219322D01*
G37*
G36*
X3832910Y16222472D02*
G01*
X3826154Y16222065D01*
X3820312Y16220744D01*
X3815334Y16218611D01*
X3811320Y16215613D01*
X3808323Y16211956D01*
X3806190Y16207536D01*
X3804920Y16202406D01*
X3804462Y16196563D01*
X3804920Y16191890D01*
X3806240Y16187419D01*
X3808526Y16182898D01*
X3811320Y16178530D01*
X3814572Y16174212D01*
X3818178Y16169894D01*
X3835857Y16151453D01*
X3838448Y16148202D01*
X3842461Y16141903D01*
X3843477Y16139109D01*
X3843578Y16137890D01*
X3800652Y16137890D01*
X3800652Y16127476D01*
X3857040Y16127476D01*
X3856939Y16133622D01*
X3855923Y16139464D01*
X3853942Y16144951D01*
X3851249Y16150183D01*
X3847998Y16154907D01*
X3844188Y16159327D01*
X3826103Y16177869D01*
X3823462Y16181069D01*
X3821176Y16184270D01*
X3818432Y16189198D01*
X3817518Y16192550D01*
X3817162Y16196056D01*
X3817518Y16199866D01*
X3818432Y16203168D01*
X3819906Y16205707D01*
X3821734Y16207740D01*
X3824173Y16209467D01*
X3826814Y16210534D01*
X3829761Y16211296D01*
X3832910Y16211550D01*
X3836720Y16211296D01*
X3840022Y16210534D01*
X3843172Y16209213D01*
X3848049Y16206419D01*
X3852722Y16202660D01*
X3858818Y16211296D01*
X3857447Y16212769D01*
X3852672Y16216579D01*
X3849420Y16218407D01*
X3845966Y16219881D01*
X3842054Y16221201D01*
X3837635Y16222167D01*
G37*
G36*
X3128822Y16220186D02*
G01*
X3126232Y16198088D01*
X3124504Y16175482D01*
X3122218Y16127476D01*
X3134156Y16127476D01*
X3135934Y16204946D01*
X3149396Y16162782D01*
X3160318Y16162782D01*
X3174034Y16204946D01*
X3175558Y16127476D01*
X3187750Y16127476D01*
X3185617Y16168776D01*
X3184347Y16186556D01*
X3182061Y16209467D01*
X3180638Y16220186D01*
X3169462Y16220186D01*
X3154730Y16174212D01*
X3140506Y16220186D01*
G37*
G36*
X3594404Y16220186D02*
G01*
X3594404Y16137890D01*
X3576878Y16137890D01*
X3576878Y16127476D01*
X3626662Y16127476D01*
X3626662Y16137890D01*
X3606596Y16137890D01*
X3606596Y16203168D01*
X3610660Y16199866D01*
X3618534Y16195344D01*
X3621328Y16194024D01*
X3627424Y16191738D01*
X3631234Y16201136D01*
X3623716Y16204590D01*
X3616248Y16208756D01*
X3609390Y16213886D01*
X3603040Y16220186D01*
G37*
G36*
X2845612Y16198596D02*
G01*
X2840939Y16198494D01*
X2834182Y16197884D01*
X2826816Y16196563D01*
X2829102Y16185642D01*
X2837484Y16187419D01*
X2845612Y16187674D01*
X2850235Y16187521D01*
X2854858Y16187064D01*
X2859481Y16186251D01*
X2864154Y16185134D01*
X2864154Y16127476D01*
X2876346Y16127476D01*
X2876346Y16193262D01*
X2861056Y16197275D01*
G37*
G36*
X2928670Y16198596D02*
G01*
X2916123Y16196462D01*
X2906826Y16189960D01*
X2901137Y16178834D01*
X2899932Y16169132D01*
X2911906Y16169132D01*
X2912211Y16173246D01*
X2913075Y16176955D01*
X2914497Y16180206D01*
X2916478Y16183101D01*
X2918968Y16185337D01*
X2921812Y16186912D01*
X2925064Y16187877D01*
X2928670Y16188182D01*
X2932836Y16187826D01*
X2936544Y16186657D01*
X2939846Y16184626D01*
X2942640Y16182086D01*
X2944926Y16179292D01*
X2946704Y16175990D01*
X2947974Y16172637D01*
X2948736Y16169132D01*
X2899932Y16169132D01*
X2899206Y16163290D01*
X2899206Y16158972D01*
X2948990Y16158972D01*
X2948279Y16153841D01*
X2946857Y16149370D01*
X2944723Y16145611D01*
X2941878Y16142462D01*
X2938373Y16140023D01*
X2934208Y16138296D01*
X2929382Y16137229D01*
X2923844Y16136874D01*
X2917748Y16137128D01*
X2912668Y16137890D01*
X2908604Y16138956D01*
X2905556Y16140176D01*
X2904032Y16129762D01*
X2907233Y16128492D01*
X2912160Y16127222D01*
X2918409Y16126104D01*
X2925368Y16125698D01*
X2929686Y16125850D01*
X2933750Y16126409D01*
X2937560Y16127272D01*
X2941116Y16128492D01*
X2944418Y16130016D01*
X2947416Y16131794D01*
X2950159Y16133826D01*
X2952546Y16136112D01*
X2954578Y16138651D01*
X2956356Y16141395D01*
X2957880Y16144341D01*
X2959150Y16147542D01*
X2960166Y16150996D01*
X2960878Y16154603D01*
X2961335Y16158260D01*
X2961284Y16166541D01*
X2960776Y16170808D01*
X2959862Y16174669D01*
X2958642Y16178276D01*
X2957118Y16181578D01*
X2955340Y16184575D01*
X2953308Y16187267D01*
X2948686Y16191839D01*
X2946146Y16193719D01*
X2943453Y16195294D01*
X2940608Y16196563D01*
X2937713Y16197478D01*
X2931718Y16198494D01*
G37*
G36*
X3080308Y16198596D02*
G01*
X3076651Y16198494D01*
X3070199Y16197580D01*
X3067354Y16196818D01*
X3062528Y16194481D01*
X3060496Y16193058D01*
X3058718Y16191484D01*
X3055874Y16187572D01*
X3053892Y16182848D01*
X3052978Y16177768D01*
X3052622Y16172180D01*
X3052622Y16137382D01*
X3064814Y16137382D01*
X3064814Y16157956D01*
X3067456Y16158667D01*
X3074111Y16159632D01*
X3079445Y16159683D01*
X3082747Y16159429D01*
X3085998Y16158921D01*
X3088894Y16157905D01*
X3091434Y16156533D01*
X3093618Y16154857D01*
X3094532Y16153892D01*
X3095244Y16152672D01*
X3096006Y16149878D01*
X3095802Y16145154D01*
X3094939Y16142512D01*
X3093516Y16140430D01*
X3091484Y16138906D01*
X3089046Y16137788D01*
X3086150Y16137026D01*
X3082950Y16136518D01*
X3076956Y16136366D01*
X3069132Y16136772D01*
X3064814Y16137382D01*
X3052622Y16137382D01*
X3052622Y16128746D01*
X3071317Y16126002D01*
X3078784Y16125698D01*
X3084372Y16125951D01*
X3089960Y16126713D01*
X3094990Y16128136D01*
X3097276Y16129101D01*
X3101441Y16131641D01*
X3103270Y16133267D01*
X3104845Y16135096D01*
X3106216Y16137128D01*
X3107334Y16139413D01*
X3108147Y16142004D01*
X3108604Y16144900D01*
X3108756Y16148050D01*
X3108604Y16150996D01*
X3108147Y16153638D01*
X3107334Y16156076D01*
X3106216Y16158210D01*
X3103118Y16162070D01*
X3101340Y16163696D01*
X3097276Y16166236D01*
X3094990Y16167252D01*
X3089960Y16168624D01*
X3084626Y16169386D01*
X3079292Y16169640D01*
X3072028Y16169284D01*
X3064814Y16168116D01*
X3064865Y16173196D01*
X3065932Y16178987D01*
X3067202Y16181679D01*
X3069132Y16184016D01*
X3070301Y16185083D01*
X3073196Y16186657D01*
X3076854Y16187826D01*
X3081578Y16188182D01*
X3087573Y16187978D01*
X3092754Y16187419D01*
X3097022Y16186404D01*
X3100120Y16185388D01*
X3101644Y16195801D01*
X3098241Y16196818D01*
X3093008Y16197834D01*
X3086912Y16198392D01*
G37*
G36*
X3230168Y16198596D02*
G01*
X3226816Y16198443D01*
X3223564Y16197986D01*
X3220466Y16197173D01*
X3217468Y16196056D01*
X3214674Y16194633D01*
X3212033Y16192957D01*
X3209594Y16190976D01*
X3207308Y16188690D01*
X3205276Y16186251D01*
X3203498Y16183559D01*
X3201974Y16180562D01*
X3200704Y16177260D01*
X3199739Y16173754D01*
X3199028Y16170097D01*
X3198571Y16166236D01*
X3198418Y16162274D01*
X3211118Y16162274D01*
X3211474Y16167912D01*
X3212388Y16172891D01*
X3214014Y16177158D01*
X3216198Y16180816D01*
X3218992Y16183813D01*
X3222244Y16185946D01*
X3226003Y16187267D01*
X3230168Y16187674D01*
X3234182Y16187267D01*
X3237738Y16185946D01*
X3240887Y16183813D01*
X3243630Y16180816D01*
X3245866Y16177158D01*
X3247440Y16172891D01*
X3248406Y16167912D01*
X3248710Y16162274D01*
X3248406Y16156736D01*
X3247440Y16151809D01*
X3245866Y16147440D01*
X3243630Y16143732D01*
X3240887Y16140734D01*
X3237738Y16138601D01*
X3234182Y16137280D01*
X3230168Y16136874D01*
X3226003Y16137280D01*
X3222244Y16138601D01*
X3218992Y16140734D01*
X3216198Y16143732D01*
X3214014Y16147440D01*
X3212388Y16151809D01*
X3211474Y16156736D01*
X3211118Y16162274D01*
X3198418Y16162274D01*
X3198571Y16158210D01*
X3199028Y16154349D01*
X3199739Y16150691D01*
X3200704Y16147288D01*
X3201974Y16144087D01*
X3203498Y16141141D01*
X3205276Y16138398D01*
X3207308Y16135857D01*
X3209594Y16133572D01*
X3212033Y16131590D01*
X3214674Y16129914D01*
X3217468Y16128492D01*
X3220466Y16127272D01*
X3223564Y16126409D01*
X3226816Y16125850D01*
X3230168Y16125698D01*
X3233420Y16125850D01*
X3236620Y16126409D01*
X3239668Y16127272D01*
X3245459Y16129914D01*
X3248050Y16131590D01*
X3250387Y16133572D01*
X3254552Y16138398D01*
X3256330Y16141141D01*
X3257854Y16144087D01*
X3259124Y16147288D01*
X3260140Y16150691D01*
X3260852Y16154349D01*
X3261309Y16158210D01*
X3261309Y16166236D01*
X3260852Y16170097D01*
X3260140Y16173754D01*
X3259124Y16177260D01*
X3257854Y16180562D01*
X3256330Y16183559D01*
X3254552Y16186251D01*
X3250387Y16190976D01*
X3248050Y16192957D01*
X3245459Y16194633D01*
X3242614Y16196056D01*
X3239668Y16197173D01*
X3236620Y16197986D01*
X3233420Y16198443D01*
G37*
G36*
X3353104Y16197072D02*
G01*
X3353104Y16129507D01*
X3357829Y16128288D01*
X3363772Y16127222D01*
X3371037Y16126256D01*
X3379520Y16125951D01*
X3383330Y16126104D01*
X3386785Y16126510D01*
X3389934Y16127222D01*
X3392728Y16128238D01*
X3395268Y16129507D01*
X3397554Y16131032D01*
X3399586Y16132810D01*
X3401364Y16134842D01*
X3402888Y16137077D01*
X3404158Y16139566D01*
X3405174Y16142157D01*
X3406495Y16147999D01*
X3407156Y16154501D01*
X3407206Y16197072D01*
X3395014Y16197072D01*
X3395014Y16160496D01*
X3394811Y16154603D01*
X3394100Y16149574D01*
X3392881Y16145459D01*
X3391204Y16142207D01*
X3388969Y16139871D01*
X3386074Y16138194D01*
X3382518Y16137229D01*
X3377387Y16136874D01*
X3368751Y16137636D01*
X3365550Y16138144D01*
X3365550Y16197072D01*
G37*
G36*
X3754678Y16185388D02*
G01*
X3752900Y16185235D01*
X3751275Y16184676D01*
X3749852Y16183813D01*
X3748582Y16182594D01*
X3747617Y16181019D01*
X3746906Y16179292D01*
X3746449Y16177463D01*
X3746296Y16175482D01*
X3746449Y16173653D01*
X3746906Y16171926D01*
X3747617Y16170351D01*
X3748582Y16168878D01*
X3749852Y16167658D01*
X3751275Y16166795D01*
X3752900Y16166236D01*
X3754678Y16166084D01*
X3756507Y16166236D01*
X3758184Y16166795D01*
X3759708Y16167658D01*
X3761028Y16168878D01*
X3762044Y16170351D01*
X3762756Y16171926D01*
X3763213Y16173653D01*
X3763213Y16177463D01*
X3762756Y16179292D01*
X3762044Y16181019D01*
X3761028Y16182594D01*
X3759708Y16183813D01*
X3758184Y16184676D01*
X3756507Y16185235D01*
G37*
G36*
X2779826Y16148557D02*
G01*
X2777439Y16148354D01*
X2775356Y16147745D01*
X2773527Y16146678D01*
X2771952Y16145256D01*
X2770632Y16143427D01*
X2769666Y16141446D01*
X2769108Y16139363D01*
X2768904Y16137128D01*
X2769108Y16134892D01*
X2769666Y16132810D01*
X2770632Y16130828D01*
X2771952Y16129000D01*
X2773527Y16127577D01*
X2775356Y16126510D01*
X2777439Y16125901D01*
X2779826Y16125698D01*
X2782265Y16125901D01*
X2784398Y16126510D01*
X2786329Y16127577D01*
X2787954Y16129000D01*
X2789326Y16130828D01*
X2790240Y16132810D01*
X2790850Y16134892D01*
X2791002Y16137128D01*
X2790850Y16139363D01*
X2790240Y16141446D01*
X2789326Y16143427D01*
X2787954Y16145256D01*
X2786329Y16146678D01*
X2784398Y16147745D01*
X2782265Y16148354D01*
G37*
G36*
X3946347Y16228415D02*
G01*
X3940810Y16228161D01*
X3935476Y16227399D01*
X3930243Y16226180D01*
X3925214Y16224453D01*
X3920439Y16222319D01*
X3915918Y16219728D01*
X3911701Y16216680D01*
X3907790Y16213226D01*
X3904183Y16209365D01*
X3901033Y16205149D01*
X3898239Y16200526D01*
X3895902Y16195548D01*
X3894023Y16190213D01*
X3892600Y16184575D01*
X3891787Y16178580D01*
X3891483Y16172281D01*
X3898849Y16172281D01*
X3899306Y16179495D01*
X3900576Y16186302D01*
X3902608Y16192550D01*
X3905402Y16198342D01*
X3908856Y16203574D01*
X3912870Y16208197D01*
X3917442Y16212210D01*
X3922522Y16215563D01*
X3928008Y16218255D01*
X3933850Y16220236D01*
X3939946Y16221405D01*
X3946347Y16221811D01*
X3952646Y16221405D01*
X3958742Y16220236D01*
X3964533Y16218255D01*
X3970020Y16215563D01*
X3975049Y16212210D01*
X3979570Y16208197D01*
X3983634Y16203574D01*
X3987037Y16198342D01*
X3989832Y16192550D01*
X3991864Y16186302D01*
X3993184Y16179495D01*
X3993591Y16172281D01*
X3993184Y16165017D01*
X3991864Y16158210D01*
X3989832Y16151860D01*
X3987037Y16146018D01*
X3983634Y16140734D01*
X3979570Y16136061D01*
X3975049Y16131997D01*
X3970020Y16128593D01*
X3964533Y16125850D01*
X3958742Y16123869D01*
X3952646Y16122650D01*
X3946347Y16122243D01*
X3939946Y16122650D01*
X3933850Y16123869D01*
X3928008Y16125850D01*
X3922522Y16128593D01*
X3917442Y16131997D01*
X3912870Y16136061D01*
X3908856Y16140734D01*
X3905402Y16146018D01*
X3902608Y16151860D01*
X3900576Y16158210D01*
X3899306Y16165017D01*
X3898849Y16172281D01*
X3891483Y16172281D01*
X3891787Y16165982D01*
X3892600Y16159937D01*
X3894023Y16154247D01*
X3895902Y16148862D01*
X3898239Y16143833D01*
X3901033Y16139210D01*
X3904183Y16134892D01*
X3907790Y16131032D01*
X3911701Y16127526D01*
X3915918Y16124478D01*
X3920439Y16121837D01*
X3925214Y16119652D01*
X3930243Y16117925D01*
X3935476Y16116655D01*
X3940810Y16115893D01*
X3946347Y16115639D01*
X3951833Y16115893D01*
X3957167Y16116655D01*
X3962349Y16117925D01*
X3967327Y16119652D01*
X3972051Y16121837D01*
X3976573Y16124478D01*
X3980789Y16127526D01*
X3984701Y16131032D01*
X3988257Y16134892D01*
X3991457Y16139210D01*
X3994200Y16143833D01*
X3996588Y16148862D01*
X3998417Y16154247D01*
X3999839Y16159937D01*
X4000652Y16165982D01*
X4000957Y16172281D01*
X4000652Y16178631D01*
X3999839Y16184626D01*
X3998417Y16190315D01*
X3996588Y16195649D01*
X3994200Y16200628D01*
X3991457Y16205250D01*
X3988257Y16209467D01*
X3984701Y16213328D01*
X3980789Y16216731D01*
X3976573Y16219779D01*
X3972051Y16222370D01*
X3967327Y16224504D01*
X3962349Y16226180D01*
X3957167Y16227450D01*
X3951833Y16228161D01*
G37*
G36*
X3944569Y16204285D02*
G01*
X3937965Y16203574D01*
X3932428Y16201593D01*
X3927652Y16198494D01*
X3923487Y16194684D01*
X3928821Y16188537D01*
X3932326Y16191585D01*
X3935882Y16193820D01*
X3939692Y16195192D01*
X3944061Y16195649D01*
X3948633Y16195243D01*
X3952748Y16193922D01*
X3956405Y16191890D01*
X3959504Y16189096D01*
X3961993Y16185692D01*
X3963822Y16181730D01*
X3964990Y16177260D01*
X3965397Y16172281D01*
X3964990Y16166795D01*
X3963873Y16161867D01*
X3962095Y16157600D01*
X3959656Y16154044D01*
X3956608Y16151199D01*
X3953052Y16149116D01*
X3949039Y16147846D01*
X3944569Y16147389D01*
X3939286Y16147999D01*
X3934714Y16149574D01*
X3930548Y16152012D01*
X3926535Y16155009D01*
X3921963Y16148405D01*
X3926687Y16144544D01*
X3931869Y16141395D01*
X3937914Y16139261D01*
X3945077Y16138499D01*
X3951274Y16139109D01*
X3957015Y16140836D01*
X3962196Y16143630D01*
X3966718Y16147491D01*
X3970426Y16152317D01*
X3973169Y16158108D01*
X3974947Y16164813D01*
X3975557Y16172281D01*
X3974896Y16179342D01*
X3973017Y16185642D01*
X3970020Y16191128D01*
X3966159Y16195700D01*
X3961536Y16199408D01*
X3956253Y16202101D01*
X3950563Y16203726D01*
G37*
G36*
X2431846Y16589248D02*
G01*
X2427478Y16588841D01*
X2423414Y16587673D01*
X2419705Y16585641D01*
X2416352Y16582898D01*
X2413711Y16579443D01*
X2411780Y16575633D01*
X2410663Y16571569D01*
X2410256Y16567150D01*
X2410256Y16552672D01*
X2410460Y16550081D01*
X2411069Y16548049D01*
X2412136Y16546423D01*
X2413558Y16545306D01*
X2446172Y16528948D01*
X2447544Y16528592D01*
X2449017Y16528745D01*
X2449626Y16529405D01*
X2450033Y16530523D01*
X2450134Y16549878D01*
X2471978Y16549878D01*
X2471978Y16407638D01*
X2450134Y16407638D01*
X2450134Y16506698D01*
X2449931Y16508933D01*
X2449169Y16510863D01*
X2448001Y16512489D01*
X2446324Y16513810D01*
X2412796Y16530523D01*
X2411425Y16530319D01*
X2410764Y16529557D01*
X2410409Y16528288D01*
X2410256Y16526510D01*
X2410256Y16389350D01*
X2410663Y16384930D01*
X2411780Y16380917D01*
X2413711Y16377208D01*
X2416352Y16373856D01*
X2419705Y16371062D01*
X2423414Y16369080D01*
X2427478Y16367912D01*
X2431846Y16367506D01*
X2490266Y16367506D01*
X2494686Y16367912D01*
X2498699Y16369080D01*
X2502408Y16371062D01*
X2505760Y16373856D01*
X2508554Y16377208D01*
X2510536Y16380917D01*
X2511704Y16384930D01*
X2512110Y16389350D01*
X2512110Y16567150D01*
X2511704Y16571569D01*
X2510536Y16575633D01*
X2508554Y16579443D01*
X2505760Y16582898D01*
X2502408Y16585641D01*
X2498699Y16587673D01*
X2494686Y16588841D01*
X2490266Y16589248D01*
G37*
G36*
X2618282Y16589248D02*
G01*
X2613914Y16588841D01*
X2609850Y16587673D01*
X2606141Y16585641D01*
X2602788Y16582898D01*
X2600045Y16579443D01*
X2598013Y16575633D01*
X2596845Y16571569D01*
X2596438Y16567150D01*
X2596438Y16498569D01*
X2596997Y16494709D01*
X2598521Y16491254D01*
X2601163Y16488206D01*
X2604820Y16485616D01*
X2658414Y16458184D01*
X2658414Y16400272D01*
X2600248Y16400272D01*
X2598572Y16399814D01*
X2597404Y16399001D01*
X2596692Y16397782D01*
X2596438Y16396207D01*
X2596438Y16371062D01*
X2596692Y16369487D01*
X2597404Y16368369D01*
X2598572Y16367709D01*
X2600248Y16367506D01*
X2694990Y16367506D01*
X2696565Y16367709D01*
X2697683Y16368369D01*
X2698343Y16369487D01*
X2698546Y16371062D01*
X2698546Y16459707D01*
X2698292Y16463975D01*
X2697530Y16467683D01*
X2696260Y16470833D01*
X2694482Y16473424D01*
X2692298Y16475659D01*
X2689555Y16477843D01*
X2686202Y16479977D01*
X2636570Y16505936D01*
X2636570Y16549116D01*
X2658414Y16549116D01*
X2658414Y16545306D01*
X2658719Y16542359D01*
X2659684Y16539972D01*
X2661259Y16538041D01*
X2663494Y16536669D01*
X2691993Y16521988D01*
X2694482Y16521430D01*
X2696260Y16521836D01*
X2697530Y16523004D01*
X2698292Y16524986D01*
X2698546Y16527780D01*
X2698546Y16567150D01*
X2698140Y16571569D01*
X2696972Y16575633D01*
X2694990Y16579443D01*
X2692196Y16582898D01*
X2688844Y16585641D01*
X2685135Y16587673D01*
X2681122Y16588841D01*
X2676702Y16589248D01*
G37*
G36*
X2708198Y16538448D02*
G01*
X2706878Y16538244D01*
X2705912Y16537736D01*
X2705354Y16536873D01*
X2705150Y16534384D01*
X2744012Y16371062D01*
X2744571Y16369487D01*
X2745486Y16368369D01*
X2746756Y16367709D01*
X2748330Y16367506D01*
X2781858Y16367506D01*
X2783382Y16367709D01*
X2784551Y16368369D01*
X2785414Y16369487D01*
X2825038Y16534384D01*
X2824835Y16536416D01*
X2824226Y16537533D01*
X2823210Y16538194D01*
X2821736Y16538448D01*
X2788462Y16538448D01*
X2786888Y16538194D01*
X2785618Y16537432D01*
X2784703Y16536162D01*
X2784144Y16534384D01*
X2765348Y16453866D01*
X2745790Y16534384D01*
X2745130Y16536162D01*
X2744165Y16537432D01*
X2742844Y16538194D01*
X2741218Y16538448D01*
G37*
G36*
X2538780Y16407638D02*
G01*
X2537256Y16407384D01*
X2536139Y16406723D01*
X2535478Y16405606D01*
X2535224Y16404082D01*
X2535224Y16371062D01*
X2535478Y16369487D01*
X2536139Y16368369D01*
X2537256Y16367709D01*
X2538780Y16367506D01*
X2571800Y16367506D01*
X2573375Y16367709D01*
X2574493Y16368369D01*
X2575153Y16369487D01*
X2575356Y16371062D01*
X2575356Y16404082D01*
X2575153Y16405606D01*
X2574493Y16406723D01*
X2573375Y16407384D01*
X2571800Y16407638D01*
G37*
G36*
X2583129Y16068852D02*
G01*
X2583129Y15975888D01*
X2595575Y15975888D01*
X2595575Y16019830D01*
X2598115Y16021761D01*
X2601671Y16023640D01*
X2605786Y16024758D01*
X2610053Y16025164D01*
X2614777Y16024707D01*
X2618689Y16023386D01*
X2621889Y16020999D01*
X2624277Y16018052D01*
X2626258Y16014344D01*
X2627579Y16009924D01*
X2628544Y16004946D01*
X2628849Y15999764D01*
X2628493Y15994024D01*
X2627376Y15988944D01*
X2625547Y15984626D01*
X2623007Y15980968D01*
X2620010Y15978073D01*
X2616555Y15975990D01*
X2612644Y15974771D01*
X2608275Y15974364D01*
X2603906Y15974466D01*
X2597556Y15975380D01*
X2595575Y15975888D01*
X2583129Y15975888D01*
X2583129Y15966998D01*
X2587752Y15965728D01*
X2593543Y15964458D01*
X2600401Y15963696D01*
X2608275Y15963442D01*
X2611882Y15963595D01*
X2615336Y15964052D01*
X2618638Y15964865D01*
X2621737Y15965982D01*
X2624785Y15967354D01*
X2627579Y15969030D01*
X2630119Y15970910D01*
X2632405Y15973094D01*
X2634437Y15975584D01*
X2636215Y15978327D01*
X2637739Y15981324D01*
X2640126Y15988030D01*
X2640939Y15991738D01*
X2641396Y15995650D01*
X2641447Y16003727D01*
X2640431Y16011093D01*
X2638399Y16017748D01*
X2636977Y16020745D01*
X2635351Y16023488D01*
X2631440Y16028212D01*
X2629255Y16030244D01*
X2626868Y16032022D01*
X2624277Y16033546D01*
X2621381Y16034766D01*
X2618333Y16035629D01*
X2615031Y16036137D01*
X2611577Y16036340D01*
X2606395Y16035934D01*
X2601925Y16034816D01*
X2598166Y16033445D01*
X2595575Y16032022D01*
X2595575Y16066820D01*
G37*
G36*
X3449269Y16068852D02*
G01*
X3449269Y16033546D01*
X3446221Y16034613D01*
X3438906Y16035883D01*
X3435299Y16036086D01*
X3431540Y16035934D01*
X3428085Y16035477D01*
X3424936Y16034766D01*
X3422091Y16033800D01*
X3419551Y16032530D01*
X3417265Y16031006D01*
X3415233Y16029228D01*
X3413455Y16027196D01*
X3412032Y16025012D01*
X3410864Y16022675D01*
X3409899Y16020084D01*
X3408476Y16014293D01*
X3407714Y16007791D01*
X3407613Y15964966D01*
X3420059Y15964966D01*
X3420059Y16001542D01*
X3420262Y16007537D01*
X3420973Y16012566D01*
X3422040Y16016681D01*
X3423615Y16019830D01*
X3425748Y16022167D01*
X3428644Y16023793D01*
X3432251Y16024809D01*
X3436569Y16025164D01*
X3440379Y16024961D01*
X3444189Y16024402D01*
X3449269Y16022624D01*
X3449269Y15964966D01*
X3461715Y15964966D01*
X3461715Y16066820D01*
G37*
G36*
X3806901Y16068090D02*
G01*
X3806850Y15989350D01*
X3806596Y15985032D01*
X3805986Y15981680D01*
X3804818Y15978987D01*
X3803446Y15976955D01*
X3801770Y15975584D01*
X3799636Y15974771D01*
X3797096Y15974415D01*
X3793591Y15974415D01*
X3789527Y15974923D01*
X3785819Y15975990D01*
X3781755Y15977666D01*
X3779977Y15967252D01*
X3786327Y15964712D01*
X3792677Y15963544D01*
X3799890Y15963544D01*
X3802786Y15963849D01*
X3805377Y15964407D01*
X3809695Y15966186D01*
X3811524Y15967405D01*
X3813149Y15968878D01*
X3815740Y15972434D01*
X3817620Y15976854D01*
X3818331Y15979444D01*
X3819093Y15985185D01*
X3819347Y15991890D01*
X3819347Y16057676D01*
X3839413Y16057676D01*
X3839413Y16068090D01*
G37*
G36*
X3882085Y16068090D02*
G01*
X3882034Y15989350D01*
X3881678Y15985032D01*
X3880916Y15981680D01*
X3879900Y15978987D01*
X3878478Y15976955D01*
X3876700Y15975584D01*
X3874668Y15974771D01*
X3872128Y15974415D01*
X3868521Y15974415D01*
X3864457Y15974923D01*
X3860850Y15975990D01*
X3856685Y15977666D01*
X3854907Y15967252D01*
X3861511Y15964712D01*
X3867607Y15963544D01*
X3874871Y15963544D01*
X3877767Y15963849D01*
X3880459Y15964407D01*
X3882847Y15965220D01*
X3884879Y15966186D01*
X3886708Y15967405D01*
X3888333Y15968878D01*
X3889705Y15970554D01*
X3891889Y15974517D01*
X3893261Y15979444D01*
X3894023Y15985185D01*
X3894277Y15991890D01*
X3894277Y16057676D01*
X3914343Y16057676D01*
X3914343Y16068090D01*
G37*
G36*
X3591255Y16065550D02*
G01*
X3589324Y16065347D01*
X3587496Y16064839D01*
X3585870Y16063976D01*
X3584397Y16062756D01*
X3583178Y16061232D01*
X3582314Y16059505D01*
X3581806Y16057524D01*
X3581603Y16055390D01*
X3581806Y16053206D01*
X3582314Y16051225D01*
X3583178Y16049498D01*
X3584397Y16048024D01*
X3585870Y16046907D01*
X3587496Y16046094D01*
X3589324Y16045637D01*
X3591255Y16045484D01*
X3593084Y16045637D01*
X3594811Y16046094D01*
X3596386Y16046907D01*
X3597859Y16048024D01*
X3599078Y16049498D01*
X3599942Y16051225D01*
X3600500Y16053206D01*
X3600653Y16055390D01*
X3600500Y16057524D01*
X3599942Y16059505D01*
X3599078Y16061232D01*
X3597859Y16062756D01*
X3596386Y16063976D01*
X3594811Y16064839D01*
X3593084Y16065347D01*
G37*
G36*
X3951935Y16057930D02*
G01*
X3947769Y16046500D01*
X3943807Y16034562D01*
X3936187Y16010178D01*
X3933167Y15999510D01*
X3945331Y15999510D01*
X3948836Y16012718D01*
X3954678Y16031514D01*
X3960063Y16047008D01*
X3963771Y16036848D01*
X3971645Y16012515D01*
X3975303Y15999510D01*
X3933167Y15999510D01*
X3923741Y15964966D01*
X3936949Y15964966D01*
X3942537Y15989350D01*
X3978097Y15989350D01*
X3983431Y15964966D01*
X3996131Y15964966D01*
X3990543Y15986556D01*
X3983685Y16010178D01*
X3975811Y16034562D01*
X3971696Y16046500D01*
X3967429Y16057930D01*
G37*
G36*
X3361131Y16056152D02*
G01*
X3361131Y16034562D01*
X3331667Y16034562D01*
X3331667Y16024148D01*
X3361131Y16024148D01*
X3361080Y15989350D01*
X3360724Y15985032D01*
X3359912Y15981680D01*
X3358642Y15978987D01*
X3356914Y15976955D01*
X3354730Y15975584D01*
X3352037Y15974771D01*
X3348736Y15974415D01*
X3344265Y15974415D01*
X3339795Y15974923D01*
X3336391Y15975787D01*
X3331667Y15977666D01*
X3329889Y15967252D01*
X3336747Y15964712D01*
X3341827Y15963747D01*
X3347923Y15963442D01*
X3355035Y15963849D01*
X3358032Y15964407D01*
X3363010Y15966186D01*
X3365144Y15967405D01*
X3366973Y15968878D01*
X3368497Y15970554D01*
X3369767Y15972434D01*
X3370834Y15974517D01*
X3371697Y15976854D01*
X3372764Y15982188D01*
X3373272Y15988436D01*
X3373323Y16024148D01*
X3388055Y16024148D01*
X3388055Y16034562D01*
X3373323Y16034562D01*
X3373323Y16054120D01*
G37*
G36*
X2683713Y16036340D02*
G01*
X2671165Y16034105D01*
X2661869Y16027450D01*
X2656179Y16016325D01*
X2654974Y16006622D01*
X2666949Y16006622D01*
X2667254Y16010788D01*
X2668117Y16014547D01*
X2669540Y16017798D01*
X2671521Y16020592D01*
X2674010Y16022777D01*
X2676855Y16024402D01*
X2680106Y16025317D01*
X2683713Y16025672D01*
X2687828Y16025266D01*
X2691587Y16024148D01*
X2694889Y16022167D01*
X2697683Y16019830D01*
X2699969Y16016833D01*
X2701747Y16013480D01*
X2703017Y16010077D01*
X2703779Y16006622D01*
X2654974Y16006622D01*
X2654249Y16000780D01*
X2654249Y15996462D01*
X2704033Y15996462D01*
X2703322Y15991433D01*
X2701899Y15986963D01*
X2699766Y15983153D01*
X2696921Y15979952D01*
X2693416Y15977514D01*
X2689250Y15975736D01*
X2684424Y15974720D01*
X2678887Y15974364D01*
X2672791Y15974618D01*
X2667711Y15975380D01*
X2663647Y15976549D01*
X2660599Y15977666D01*
X2659075Y15967252D01*
X2662275Y15965982D01*
X2667203Y15964712D01*
X2673451Y15963747D01*
X2680411Y15963442D01*
X2684729Y15963595D01*
X2688793Y15964103D01*
X2692603Y15965017D01*
X2699461Y15967608D01*
X2702458Y15969335D01*
X2705150Y15971316D01*
X2707589Y15973602D01*
X2709621Y15976142D01*
X2711399Y15978936D01*
X2712923Y15981984D01*
X2714193Y15985286D01*
X2715209Y15988639D01*
X2715920Y15992144D01*
X2716326Y15995751D01*
X2716479Y15999510D01*
X2716326Y16004032D01*
X2715768Y16008248D01*
X2714904Y16012160D01*
X2713685Y16015766D01*
X2712161Y16019018D01*
X2710383Y16022015D01*
X2708351Y16024758D01*
X2703728Y16029330D01*
X2701188Y16031159D01*
X2698496Y16032734D01*
X2695651Y16034054D01*
X2689758Y16035731D01*
X2686761Y16036188D01*
G37*
G36*
X2908757Y16036340D02*
G01*
X2896209Y16034105D01*
X2886913Y16027450D01*
X2881223Y16016325D01*
X2880018Y16006622D01*
X2891739Y16006622D01*
X2892044Y16010788D01*
X2892958Y16014547D01*
X2894482Y16017798D01*
X2896565Y16020592D01*
X2899054Y16022777D01*
X2901899Y16024402D01*
X2905150Y16025317D01*
X2908757Y16025672D01*
X2912872Y16025266D01*
X2916631Y16024148D01*
X2919933Y16022167D01*
X2922727Y16019830D01*
X2925013Y16016833D01*
X2926791Y16013480D01*
X2928061Y16010077D01*
X2928823Y16006622D01*
X2880018Y16006622D01*
X2879293Y16000780D01*
X2879293Y15996462D01*
X2929077Y15996462D01*
X2928366Y15991433D01*
X2926943Y15986963D01*
X2924810Y15983153D01*
X2921965Y15979952D01*
X2918460Y15977514D01*
X2914294Y15975736D01*
X2909468Y15974720D01*
X2903931Y15974364D01*
X2897835Y15974618D01*
X2892755Y15975380D01*
X2888691Y15976549D01*
X2885643Y15977666D01*
X2884119Y15967252D01*
X2887319Y15965982D01*
X2892247Y15964712D01*
X2898495Y15963747D01*
X2905455Y15963442D01*
X2909773Y15963595D01*
X2913837Y15964103D01*
X2917647Y15965017D01*
X2924454Y15967608D01*
X2927451Y15969335D01*
X2930042Y15971316D01*
X2932379Y15973602D01*
X2934512Y15976142D01*
X2936392Y15978936D01*
X2937967Y15981984D01*
X2939237Y15985286D01*
X2940253Y15988639D01*
X2940964Y15992144D01*
X2941370Y15995751D01*
X2941523Y15999510D01*
X2941370Y16004032D01*
X2940812Y16008248D01*
X2939948Y16012160D01*
X2938729Y16015766D01*
X2937103Y16019018D01*
X2935325Y16022015D01*
X2933293Y16024758D01*
X2931109Y16027196D01*
X2928772Y16029330D01*
X2926232Y16031159D01*
X2923540Y16032734D01*
X2920695Y16034054D01*
X2914802Y16035731D01*
X2911805Y16036188D01*
G37*
G36*
X2982925Y16036340D02*
G01*
X2977235Y16036086D01*
X2965602Y16034410D01*
X2960827Y16033292D01*
X2963113Y16022116D01*
X2966415Y16023386D01*
X2971241Y16024656D01*
X2977083Y16025418D01*
X2982925Y16025672D01*
X2990037Y16025113D01*
X2995117Y16023437D01*
X2998165Y16020643D01*
X2999181Y16016782D01*
X2998978Y16015309D01*
X2998419Y16013887D01*
X2997454Y16012617D01*
X2996133Y16011448D01*
X2992526Y16009467D01*
X2983484Y16005759D01*
X2973019Y16001796D01*
X2968193Y15999256D01*
X2964027Y15996361D01*
X2962198Y15994735D01*
X2960573Y15992906D01*
X2959150Y15990874D01*
X2958084Y15988588D01*
X2957474Y15986048D01*
X2957271Y15983254D01*
X2957728Y15978682D01*
X2959100Y15974720D01*
X2961436Y15971316D01*
X2964637Y15968522D01*
X2968853Y15966287D01*
X2974187Y15964712D01*
X2980537Y15963747D01*
X2988005Y15963442D01*
X2994863Y15963696D01*
X3001213Y15964458D01*
X3007106Y15965982D01*
X3012643Y15968014D01*
X3010103Y15979444D01*
X3004820Y15977158D01*
X2999181Y15975380D01*
X2993136Y15974212D01*
X2986735Y15973856D01*
X2973984Y15975990D01*
X2969717Y15982492D01*
X2969920Y15984169D01*
X2970530Y15985794D01*
X2971596Y15987217D01*
X2973019Y15988588D01*
X2976473Y15990722D01*
X2980639Y15992652D01*
X2995676Y15998139D01*
X3000451Y16000526D01*
X3004667Y16003371D01*
X3008071Y16006876D01*
X3009392Y16008908D01*
X3010357Y16011194D01*
X3010916Y16013734D01*
X3011119Y16016528D01*
X3010712Y16020542D01*
X3009493Y16024199D01*
X3007410Y16027501D01*
X3004515Y16030498D01*
X3000603Y16033038D01*
X2995676Y16034867D01*
X2989783Y16035934D01*
G37*
G36*
X3058617Y16036340D02*
G01*
X3046171Y16034105D01*
X3036773Y16027450D01*
X3031083Y16016325D01*
X3029878Y16006622D01*
X3041853Y16006622D01*
X3042158Y16010788D01*
X3043021Y16014547D01*
X3044444Y16017798D01*
X3046425Y16020592D01*
X3049016Y16022777D01*
X3051962Y16024402D01*
X3055264Y16025317D01*
X3058871Y16025672D01*
X3062986Y16025266D01*
X3066745Y16024148D01*
X3070047Y16022167D01*
X3072841Y16019830D01*
X3075127Y16016833D01*
X3076905Y16013480D01*
X3077972Y16010077D01*
X3078683Y16006622D01*
X3029878Y16006622D01*
X3029153Y16000780D01*
X3029153Y15996462D01*
X3078937Y15996462D01*
X3078226Y15991433D01*
X3076803Y15986963D01*
X3074670Y15983153D01*
X3071825Y15979952D01*
X3068320Y15977514D01*
X3064205Y15975736D01*
X3059430Y15974720D01*
X3054045Y15974364D01*
X3047898Y15974618D01*
X3042615Y15975380D01*
X3038602Y15976549D01*
X3035757Y15977666D01*
X3033979Y15967252D01*
X3037179Y15965982D01*
X3042107Y15964712D01*
X3048355Y15963747D01*
X3055315Y15963442D01*
X3059734Y15963595D01*
X3063849Y15964103D01*
X3067608Y15965017D01*
X3074365Y15967608D01*
X3077362Y15969335D01*
X3080054Y15971316D01*
X3082493Y15973602D01*
X3084626Y15976142D01*
X3086506Y15978936D01*
X3088081Y15981984D01*
X3089351Y15985286D01*
X3090265Y15988639D01*
X3091281Y15995751D01*
X3091230Y16004032D01*
X3090672Y16008248D01*
X3089808Y16012160D01*
X3088589Y16015766D01*
X3087065Y16019018D01*
X3085338Y16022015D01*
X3083407Y16024758D01*
X3081223Y16027196D01*
X3078734Y16029330D01*
X3076143Y16031159D01*
X3073400Y16032734D01*
X3070555Y16034054D01*
X3064662Y16035731D01*
X3061665Y16036188D01*
G37*
G36*
X3283153Y16036340D02*
G01*
X3277260Y16036086D01*
X3265576Y16034410D01*
X3260801Y16033292D01*
X3263087Y16022116D01*
X3266389Y16023386D01*
X3271215Y16024656D01*
X3278581Y16025520D01*
X3282899Y16025672D01*
X3290011Y16025113D01*
X3295091Y16023437D01*
X3298139Y16020643D01*
X3299155Y16016782D01*
X3298951Y16015309D01*
X3298393Y16013887D01*
X3297428Y16012617D01*
X3296107Y16011448D01*
X3292601Y16009467D01*
X3272993Y16001796D01*
X3268167Y15999256D01*
X3264001Y15996361D01*
X3262172Y15994735D01*
X3260547Y15992906D01*
X3259226Y15990874D01*
X3258261Y15988588D01*
X3257702Y15986048D01*
X3257499Y15983254D01*
X3257956Y15978682D01*
X3259328Y15974720D01*
X3261664Y15971316D01*
X3264865Y15968522D01*
X3268979Y15966287D01*
X3274212Y15964712D01*
X3280562Y15963747D01*
X3287979Y15963442D01*
X3294837Y15963696D01*
X3301187Y15964458D01*
X3307079Y15965982D01*
X3312617Y15968014D01*
X3310077Y15979444D01*
X3304794Y15977158D01*
X3299155Y15975380D01*
X3293110Y15974212D01*
X3286709Y15973856D01*
X3274161Y15975990D01*
X3269945Y15982492D01*
X3270148Y15984169D01*
X3270707Y15985794D01*
X3271672Y15987217D01*
X3272993Y15988588D01*
X3276447Y15990722D01*
X3280613Y15992652D01*
X3295650Y15998139D01*
X3300425Y16000526D01*
X3304641Y16003371D01*
X3308045Y16006876D01*
X3309518Y16008908D01*
X3310534Y16011194D01*
X3311144Y16013734D01*
X3311347Y16016528D01*
X3310940Y16020542D01*
X3309620Y16024199D01*
X3307486Y16027501D01*
X3304489Y16030498D01*
X3300577Y16033038D01*
X3295751Y16034867D01*
X3289909Y16035934D01*
G37*
G36*
X3509213Y16036340D02*
G01*
X3500983Y16035985D01*
X3493973Y16035070D01*
X3487928Y16033800D01*
X3483051Y16032530D01*
X3483051Y15983000D01*
X3495497Y15983000D01*
X3495497Y16023640D01*
X3500577Y16024656D01*
X3504285Y16025012D01*
X3509213Y16025164D01*
X3513632Y16024758D01*
X3517544Y16023488D01*
X3520897Y16021456D01*
X3523691Y16018560D01*
X3525926Y16015055D01*
X3527501Y16010991D01*
X3528466Y16006318D01*
X3528771Y16001034D01*
X3528415Y15995548D01*
X3527247Y15990874D01*
X3525672Y15986912D01*
X3524656Y15985236D01*
X3522116Y15982442D01*
X3519322Y15980410D01*
X3516172Y15979140D01*
X3512769Y15978479D01*
X3508756Y15978530D01*
X3506571Y15978784D01*
X3502355Y15979952D01*
X3498494Y15981324D01*
X3495497Y15983000D01*
X3483051Y15983000D01*
X3483051Y15970300D01*
X3485134Y15956432D01*
X3491433Y15946932D01*
X3501644Y15941598D01*
X3516071Y15939820D01*
X3522421Y15940074D01*
X3528263Y15940836D01*
X3533343Y15941954D01*
X3537915Y15943376D01*
X3535629Y15954298D01*
X3531514Y15952876D01*
X3526739Y15951758D01*
X3521405Y15950793D01*
X3515563Y15950488D01*
X3510635Y15950742D01*
X3506419Y15951606D01*
X3503015Y15953028D01*
X3500323Y15955060D01*
X3498240Y15957550D01*
X3496716Y15960699D01*
X3495801Y15964509D01*
X3495497Y15971316D01*
X3502101Y15968776D01*
X3506724Y15967811D01*
X3512007Y15967506D01*
X3515106Y15967608D01*
X3520846Y15968624D01*
X3526028Y15970656D01*
X3530752Y15973704D01*
X3532835Y15975634D01*
X3534765Y15977920D01*
X3536442Y15980460D01*
X3537915Y15983254D01*
X3539185Y15986302D01*
X3540201Y15989604D01*
X3540912Y15993211D01*
X3541318Y15997072D01*
X3541369Y16004997D01*
X3540353Y16012007D01*
X3539439Y16015258D01*
X3536696Y16021202D01*
X3535019Y16023894D01*
X3533089Y16026434D01*
X3530854Y16028568D01*
X3528415Y16030498D01*
X3525774Y16032124D01*
X3522929Y16033546D01*
X3519779Y16034766D01*
X3516477Y16035629D01*
X3512921Y16036137D01*
G37*
G36*
X2825445Y16036086D02*
G01*
X2818485Y16035934D01*
X2814116Y16035528D01*
X2806903Y16034054D01*
X2808935Y16023132D01*
X2813507Y16024301D01*
X2817571Y16024910D01*
X2825445Y16025164D01*
X2830068Y16025012D01*
X2839466Y16023742D01*
X2844241Y16022624D01*
X2844241Y15964966D01*
X2856433Y15964966D01*
X2856433Y16030752D01*
X2841091Y16034715D01*
G37*
G36*
X3125419Y16036086D02*
G01*
X3116275Y16035832D01*
X3111754Y16035121D01*
X3106877Y16034054D01*
X3109163Y16023132D01*
X3113532Y16024301D01*
X3117545Y16024910D01*
X3125419Y16025164D01*
X3130042Y16025012D01*
X3139440Y16023742D01*
X3144215Y16022624D01*
X3144215Y15964966D01*
X3156407Y15964966D01*
X3156407Y16030752D01*
X3141065Y16034715D01*
G37*
G36*
X3650437Y16036086D02*
G01*
X3641293Y16035832D01*
X3636772Y16035121D01*
X3631895Y16034054D01*
X3633927Y16023132D01*
X3638499Y16024301D01*
X3642563Y16024910D01*
X3650437Y16025164D01*
X3655060Y16025012D01*
X3664458Y16023742D01*
X3669233Y16022624D01*
X3669233Y15964966D01*
X3681425Y15964966D01*
X3681425Y16030752D01*
X3666083Y16034715D01*
G37*
G36*
X2726893Y16034562D02*
G01*
X2729890Y16024961D01*
X2736596Y16006216D01*
X2740101Y15997224D01*
X2747467Y15980206D01*
X2754833Y15964966D01*
X2766009Y15964966D01*
X2773121Y15980054D01*
X2780233Y15996970D01*
X2786989Y16015360D01*
X2792933Y16034562D01*
X2779471Y16034562D01*
X2775407Y16020592D01*
X2769311Y16002203D01*
X2763977Y15988385D01*
X2760167Y15979444D01*
X2754833Y15991636D01*
X2749245Y16005860D01*
X2744165Y16020592D01*
X2739847Y16034562D01*
G37*
G36*
X3582111Y16034562D02*
G01*
X3582111Y15991890D01*
X3581908Y15987115D01*
X3581349Y15983153D01*
X3580384Y15980105D01*
X3579063Y15977920D01*
X3577488Y15976346D01*
X3575558Y15975228D01*
X3573322Y15974568D01*
X3568547Y15974415D01*
X3564483Y15974923D01*
X3560876Y15975990D01*
X3556711Y15977666D01*
X3554933Y15967252D01*
X3561283Y15964712D01*
X3567531Y15963544D01*
X3574846Y15963544D01*
X3577742Y15963849D01*
X3580333Y15964407D01*
X3584651Y15966186D01*
X3586479Y15967405D01*
X3588105Y15968878D01*
X3590747Y15972434D01*
X3591814Y15974517D01*
X3592677Y15976854D01*
X3593744Y15982188D01*
X3594252Y15988436D01*
X3594303Y16024148D01*
X3614369Y16024148D01*
X3614369Y16034562D01*
G37*
G36*
X2534869Y15986048D02*
G01*
X2532481Y15985845D01*
X2530348Y15985185D01*
X2528519Y15984169D01*
X2526995Y15982746D01*
X2525674Y15980867D01*
X2524709Y15978936D01*
X2524150Y15976803D01*
X2523947Y15974618D01*
X2524150Y15972383D01*
X2524709Y15970351D01*
X2525674Y15968472D01*
X2528519Y15965169D01*
X2530348Y15964052D01*
X2532481Y15963392D01*
X2534869Y15963188D01*
X2537307Y15963392D01*
X2539441Y15964052D01*
X2541371Y15965169D01*
X2542997Y15966744D01*
X2544318Y15968472D01*
X2545283Y15970351D01*
X2545842Y15972383D01*
X2546045Y15974618D01*
X2545842Y15976803D01*
X2545283Y15978936D01*
X2544318Y15980867D01*
X2542997Y15982746D01*
X2541371Y15984169D01*
X2539441Y15985185D01*
X2537307Y15985845D01*
G37*
M02*
