M48
METRIC,LZ,000.000
;FILE_FORMAT=3:3
;TYPE=PLATED
;Layer: Drill PTH
;EasyEDA v6.4.25, 2021-11-13T21:47:53+08:00
;5f2a3f83ced14d76a3667b2aff7d93ec,987c639a94b84ffc8c6145f2c3ae8d38,10
;Gerber Generator version 0.2
;Holesize 1 = 0.305 mm
T01C0.305
;Holesize 2 = 0.901 mm
T02C0.901
;Holesize 3 = 1.021 mm
T03C1.021
%
G05
G90
T01
X012130Y164823
X012130Y162817
X020475Y163450
X020475Y162725
X023825Y163000
X023825Y163725
X023825Y164450
X022375Y164450
X022750Y166250
X020275Y158900
X025700Y164050
X012130Y160327
X028905Y167790
X037500Y169525
X035925Y160750
X039450Y161725
X039275Y162975
X040425Y166425
X040175Y157375
X036625Y157975
X038625Y157025
X040175Y159650
X030775Y159125
X030775Y157550
X023850Y159575
X026900Y159575
X018875Y159050
X019625Y162150
X015525Y159950
X017100Y160525
X013975Y162000
X011375Y161625
X011525Y159125
X014500Y167500
X012175Y166050
X012130Y167363
X018875Y167475
X020400Y165825
X013650Y165900
X025000Y167800
X026600Y166200
X028025Y166600
X026500Y167625
X031100Y167000
X033125Y167100
X031475Y169874
X031475Y168975
X037425Y170525
X039150Y169325
X037275Y167325
X037975Y162400
X040425Y165175
X036425Y159625
X035150Y158000
X028225Y162775
X029600Y163325
X030350Y164525
X026325Y161225
X014000Y159625
X020575Y161300
X022375Y159575
X018925Y157150
X023475Y166250
X024775Y159575
X025575Y160100
X025900Y166875
X034050Y168740
T02
X010110Y169700G85X008610Y169700
X010110Y158000G85X008610Y158000
T03
X025380Y169700
X022840Y169700
X020300Y169700
X017760Y169700
X015220Y169700
M30
