G04 Layer: TopPasteMaskLayer*
G04 EasyEDA v6.4.25, 2021-11-13T21:47:53+08:00*
G04 5f2a3f83ced14d76a3667b2aff7d93ec,987c639a94b84ffc8c6145f2c3ae8d38,10*
G04 Gerber Generator version 0.2*
G04 Scale: 100 percent, Rotated: No, Reflected: No *
G04 Dimensions in millimeters *
G04 leading zeros omitted , absolute positions ,4 integer and 5 decimal *
%FSLAX45Y45*%
%MOMM*%

%ADD12C,0.3500*%
%ADD17R,0.9000X0.8000*%
%ADD20R,1.0000X0.6000*%
%ADD21R,0.8000X0.8000*%
%ADD22R,0.8000X0.5000*%
%ADD23R,1.9500X1.9500*%
%ADD25R,0.9500X1.1500*%
%ADD26R,3.0000X1.0000*%
%ADD27R,1.0000X1.5500*%
%ADD28R,1.2500X0.7000*%

%LPD*%
G36*
X3242411Y16996968D02*
G01*
X3238449Y16992955D01*
X3238449Y16946981D01*
X3242411Y16942968D01*
X3292500Y16942968D01*
X3296513Y16946981D01*
X3296513Y16992955D01*
X3292500Y16996968D01*
G37*
G36*
X3327501Y16996968D02*
G01*
X3323488Y16992955D01*
X3323488Y16946981D01*
X3327501Y16942968D01*
X3377539Y16942968D01*
X3381552Y16946981D01*
X3381552Y16992955D01*
X3377539Y16996968D01*
G37*
G36*
X3360013Y16131946D02*
G01*
X3354984Y16126968D01*
X3355492Y16084956D01*
X3399485Y16084956D01*
X3399485Y16039947D01*
X3354476Y16039947D01*
X3354984Y15998951D01*
X3360013Y15993973D01*
X3474974Y15993973D01*
X3480003Y15998951D01*
X3480003Y16126968D01*
X3474974Y16131946D01*
G37*
G36*
X3144977Y16131946D02*
G01*
X3139998Y16126968D01*
X3139998Y15998951D01*
X3144977Y15993973D01*
X3259988Y15993973D01*
X3265017Y15998951D01*
X3264509Y16039947D01*
X3220516Y16039947D01*
X3220516Y16084956D01*
X3264966Y16084956D01*
X3265017Y16126968D01*
X3259988Y16131946D01*
G37*
G36*
X2937510Y17036948D02*
G01*
X2932480Y17031970D01*
X2932988Y16989958D01*
X2976981Y16989958D01*
X2976981Y16944949D01*
X2931972Y16944949D01*
X2932480Y16903954D01*
X2937510Y16898975D01*
X3052470Y16898975D01*
X3057499Y16903954D01*
X3057499Y17031970D01*
X3052470Y17036948D01*
G37*
G36*
X2722473Y17036948D02*
G01*
X2717495Y17031970D01*
X2717495Y16903954D01*
X2722473Y16898975D01*
X2837484Y16898975D01*
X2842514Y16903954D01*
X2842006Y16944949D01*
X2798013Y16944949D01*
X2798013Y16989958D01*
X2842514Y16989958D01*
X2842514Y17031970D01*
X2837484Y17036948D01*
G37*
G36*
X3337407Y15894456D02*
G01*
X3333445Y15890443D01*
X3333445Y15844469D01*
X3337407Y15840456D01*
X3387496Y15840456D01*
X3391509Y15844469D01*
X3391509Y15890443D01*
X3387496Y15894456D01*
G37*
G36*
X3422497Y15894456D02*
G01*
X3418484Y15890443D01*
X3418484Y15844469D01*
X3422497Y15840456D01*
X3472535Y15840456D01*
X3476548Y15844469D01*
X3476548Y15890443D01*
X3472535Y15894456D01*
G37*
G36*
X860958Y17069968D02*
G01*
X851865Y17069511D01*
X842873Y17068292D01*
X833983Y17066260D01*
X825347Y17063364D01*
X821131Y17061688D01*
X812952Y17057674D01*
X805180Y17052950D01*
X797864Y17047514D01*
X791057Y17041469D01*
X784860Y17034814D01*
X779272Y17027601D01*
X774395Y17019930D01*
X770178Y17011853D01*
X766775Y17003420D01*
X764082Y16994733D01*
X762254Y16985792D01*
X761238Y16976750D01*
X760984Y16972229D01*
X760984Y16967657D01*
X761644Y16958564D01*
X763066Y16949572D01*
X764082Y16945152D01*
X766775Y16936466D01*
X770178Y16928033D01*
X774395Y16919956D01*
X779272Y16912285D01*
X784860Y16905071D01*
X791057Y16898416D01*
X797864Y16892371D01*
X805180Y16886936D01*
X812952Y16882211D01*
X821131Y16878198D01*
X829665Y16874998D01*
X833983Y16873626D01*
X842873Y16871594D01*
X851865Y16870375D01*
X860958Y16869968D01*
X1010970Y16869968D01*
X1020064Y16870375D01*
X1029106Y16871594D01*
X1037945Y16873626D01*
X1046632Y16876522D01*
X1050848Y16878198D01*
X1059027Y16882211D01*
X1066800Y16886936D01*
X1074115Y16892371D01*
X1080871Y16898416D01*
X1087120Y16905071D01*
X1092708Y16912285D01*
X1097584Y16919956D01*
X1101801Y16928033D01*
X1105204Y16936466D01*
X1107846Y16945152D01*
X1108913Y16949572D01*
X1110335Y16958564D01*
X1110945Y16967657D01*
X1110742Y16976750D01*
X1109726Y16985792D01*
X1108913Y16990314D01*
X1106627Y16999102D01*
X1103579Y17007687D01*
X1099769Y17015968D01*
X1095248Y17023842D01*
X1089964Y17031258D01*
X1084072Y17038218D01*
X1077569Y17044568D01*
X1070508Y17050308D01*
X1062939Y17055388D01*
X1054963Y17059757D01*
X1050848Y17061688D01*
X1042314Y17064888D01*
X1033576Y17067377D01*
X1024585Y17069003D01*
X1015542Y17069816D01*
X1010970Y17069968D01*
G37*
G36*
X860958Y15899942D02*
G01*
X851865Y15899536D01*
X842873Y15898317D01*
X833983Y15896234D01*
X825347Y15893389D01*
X817016Y15889782D01*
X809040Y15885413D01*
X801471Y15880334D01*
X794410Y15874542D01*
X787908Y15868192D01*
X782015Y15861284D01*
X776732Y15853816D01*
X772210Y15845942D01*
X770178Y15841878D01*
X766775Y15833445D01*
X764082Y15824707D01*
X762254Y15815818D01*
X761238Y15806775D01*
X760984Y15797682D01*
X761644Y15788589D01*
X763066Y15779597D01*
X765352Y15770758D01*
X768400Y15762224D01*
X770178Y15758007D01*
X774395Y15749930D01*
X779272Y15742259D01*
X784860Y15735096D01*
X791057Y15728442D01*
X797864Y15722396D01*
X805180Y15716961D01*
X812952Y15712236D01*
X821131Y15708223D01*
X829665Y15704972D01*
X838403Y15702534D01*
X847344Y15700857D01*
X856437Y15700044D01*
X1010970Y15699943D01*
X1020064Y15700349D01*
X1029106Y15701619D01*
X1037945Y15703651D01*
X1046632Y15706496D01*
X1054963Y15710154D01*
X1062939Y15714522D01*
X1070508Y15719602D01*
X1077569Y15725343D01*
X1084072Y15731693D01*
X1089964Y15738601D01*
X1095248Y15746069D01*
X1099769Y15753943D01*
X1101801Y15758007D01*
X1105204Y15766440D01*
X1107846Y15775178D01*
X1108913Y15779597D01*
X1110335Y15788589D01*
X1110945Y15797682D01*
X1110742Y15806775D01*
X1109726Y15815818D01*
X1108913Y15820288D01*
X1106627Y15829127D01*
X1103579Y15837712D01*
X1101801Y15841878D01*
X1097584Y15849955D01*
X1092708Y15857626D01*
X1087120Y15864789D01*
X1080871Y15871444D01*
X1074115Y15877540D01*
X1066800Y15882924D01*
X1059027Y15887649D01*
X1050848Y15891662D01*
X1042314Y15894913D01*
X1033576Y15897351D01*
X1029106Y15898317D01*
X1020064Y15899536D01*
X1010970Y15899942D01*
G37*
G36*
X1115974Y16083178D02*
G01*
X1115974Y15983153D01*
X1312011Y15983153D01*
X1312011Y16083178D01*
G37*
G36*
X1115974Y16786758D02*
G01*
X1115974Y16686733D01*
X1311960Y16686733D01*
X1311960Y16786758D01*
G37*
G36*
X1115974Y16332098D02*
G01*
X1115974Y16232073D01*
X1311960Y16232073D01*
X1311960Y16332098D01*
G37*
G36*
X1115974Y16532758D02*
G01*
X1115974Y16432733D01*
X1311960Y16432733D01*
X1311960Y16532758D01*
G37*
G36*
X1947265Y16642435D02*
G01*
X1940255Y16637457D01*
X1940255Y16592448D01*
X1947265Y16587469D01*
X1995271Y16587469D01*
X2000250Y16592448D01*
X2000250Y16637457D01*
X1995271Y16642435D01*
G37*
G36*
X1849323Y16642435D02*
G01*
X1844293Y16637457D01*
X1844293Y16592448D01*
X1849323Y16587469D01*
X1897278Y16587469D01*
X1904288Y16592448D01*
X1904288Y16637457D01*
X1897278Y16642435D01*
G37*
G36*
X1947265Y16157448D02*
G01*
X1940255Y16152469D01*
X1940255Y16107460D01*
X1947265Y16102482D01*
X1995271Y16102482D01*
X2000250Y16107460D01*
X2000250Y16152469D01*
X1995271Y16157448D01*
G37*
G36*
X1849272Y16157448D02*
G01*
X1844293Y16152469D01*
X1844293Y16107460D01*
X1849272Y16102482D01*
X1897278Y16102482D01*
X1904288Y16107460D01*
X1904288Y16152469D01*
X1897278Y16157448D01*
G37*
G36*
X1655013Y16642486D02*
G01*
X1648002Y16637457D01*
X1648002Y16592448D01*
X1655013Y16587469D01*
X1703019Y16587469D01*
X1707997Y16592448D01*
X1707997Y16637457D01*
X1703019Y16642486D01*
G37*
G36*
X1557020Y16642486D02*
G01*
X1551990Y16637457D01*
X1551990Y16592448D01*
X1557020Y16587469D01*
X1604975Y16587469D01*
X1611985Y16592448D01*
X1611985Y16637457D01*
X1604975Y16642486D01*
G37*
G36*
X1655013Y16157448D02*
G01*
X1648002Y16152469D01*
X1648002Y16107460D01*
X1655013Y16102482D01*
X1703019Y16102482D01*
X1707997Y16107460D01*
X1707997Y16152469D01*
X1703019Y16157448D01*
G37*
G36*
X1557020Y16157448D02*
G01*
X1551990Y16152469D01*
X1551990Y16107460D01*
X1557020Y16102482D01*
X1604975Y16102482D01*
X1611985Y16107460D01*
X1611985Y16152469D01*
X1604975Y16157448D01*
G37*
G36*
X3152495Y15877997D02*
G01*
X3147517Y15872968D01*
X3147517Y15824962D01*
X3152495Y15817951D01*
X3197504Y15817951D01*
X3202482Y15824962D01*
X3202482Y15872968D01*
X3197504Y15877997D01*
G37*
G36*
X3152495Y15781985D02*
G01*
X3147517Y15774974D01*
X3147517Y15726968D01*
X3152495Y15721990D01*
X3197504Y15721990D01*
X3202482Y15726968D01*
X3202482Y15774974D01*
X3197504Y15781985D01*
G37*
G36*
X3144977Y16403980D02*
G01*
X3139998Y16398951D01*
X3139998Y16270986D01*
X3144977Y16265956D01*
X3259988Y16265956D01*
X3264966Y16270986D01*
X3264509Y16312946D01*
X3220516Y16312946D01*
X3220516Y16357955D01*
X3265474Y16357955D01*
X3264966Y16398951D01*
X3259988Y16403980D01*
G37*
G36*
X3360013Y16403980D02*
G01*
X3354984Y16398951D01*
X3355492Y16357955D01*
X3399485Y16357955D01*
X3399485Y16312946D01*
X3354984Y16312946D01*
X3354984Y16270986D01*
X3360013Y16265956D01*
X3474974Y16265956D01*
X3480003Y16270986D01*
X3480003Y16398951D01*
X3474974Y16403980D01*
G37*
G36*
X3337407Y15759480D02*
G01*
X3333445Y15755467D01*
X3333445Y15709493D01*
X3337407Y15705480D01*
X3387496Y15705480D01*
X3391509Y15709493D01*
X3391509Y15755467D01*
X3387496Y15759480D01*
G37*
G36*
X3422497Y15759480D02*
G01*
X3418484Y15755467D01*
X3418484Y15709493D01*
X3422497Y15705480D01*
X3472535Y15705480D01*
X3476548Y15709493D01*
X3476548Y15755467D01*
X3472535Y15759480D01*
G37*
G36*
X3557473Y16789450D02*
G01*
X3552494Y16784472D01*
X3552494Y16704462D01*
X3557473Y16699484D01*
X3580282Y16699484D01*
X3580282Y16736466D01*
X3613302Y16736466D01*
X3613302Y16699484D01*
X3637483Y16699484D01*
X3642512Y16704462D01*
X3642512Y16784472D01*
X3637483Y16789450D01*
G37*
G36*
X3557473Y16629481D02*
G01*
X3552494Y16624452D01*
X3552494Y16545458D01*
X3557473Y16540480D01*
X3637483Y16540480D01*
X3642512Y16545458D01*
X3642512Y16624452D01*
X3637483Y16629481D01*
X3613302Y16629481D01*
X3613302Y16591483D01*
X3580282Y16591483D01*
X3580282Y16629481D01*
G37*
G36*
X3574491Y17041520D02*
G01*
X3570478Y17037507D01*
X3570478Y16987469D01*
X3574491Y16983456D01*
X3620515Y16983456D01*
X3624478Y16987469D01*
X3624478Y17037507D01*
X3620515Y17041520D01*
G37*
G36*
X3574491Y16956481D02*
G01*
X3570478Y16952468D01*
X3570478Y16902379D01*
X3574491Y16898416D01*
X3620515Y16898416D01*
X3624478Y16902379D01*
X3624478Y16952468D01*
X3620515Y16956481D01*
G37*
D12*
X2409063Y16144963D02*
G01*
X2409063Y16209962D01*
X2344038Y16144963D02*
G01*
X2344038Y16209962D01*
X2279015Y16144963D02*
G01*
X2279015Y16209962D01*
X2213990Y16144963D02*
G01*
X2213990Y16209962D01*
X2409063Y16534955D02*
G01*
X2409063Y16599954D01*
X2344038Y16534955D02*
G01*
X2344038Y16599954D01*
X2279015Y16534955D02*
G01*
X2279015Y16599954D01*
X2213990Y16534955D02*
G01*
X2213990Y16599954D01*
X2472499Y16275938D02*
G01*
X2537498Y16275938D01*
X2472499Y16340962D02*
G01*
X2537498Y16340962D01*
X2472499Y16405987D02*
G01*
X2537498Y16405987D01*
X2472499Y16471011D02*
G01*
X2537498Y16471011D01*
X2082507Y16471519D02*
G01*
X2147506Y16471519D01*
X2082507Y16406495D02*
G01*
X2147506Y16406495D01*
X2082507Y16341470D02*
G01*
X2147506Y16341470D01*
X2082507Y16276446D02*
G01*
X2147506Y16276446D01*
D17*
G01*
X3597503Y16259962D03*
G01*
X3597503Y16399967D03*
D20*
G01*
X1767509Y16467454D03*
G01*
X1767509Y16277462D03*
G01*
X1507489Y16277462D03*
G01*
X1507489Y16372459D03*
G01*
X1507489Y16467454D03*
D21*
G01*
X1544904Y15799968D03*
G01*
X1715084Y15799968D03*
D22*
G01*
X2027504Y15749955D03*
G01*
X2027504Y15849955D03*
G01*
X1345006Y15749955D03*
G01*
X1345006Y15849955D03*
D23*
G01*
X2310002Y16372459D03*
D25*
G01*
X2720771Y16335375D03*
G01*
X3059252Y16335375D03*
D26*
G01*
X2890418Y16779062D03*
G01*
X2890418Y16549039D03*
D27*
G01*
X2790012Y16063747D03*
G01*
X2990011Y16063747D03*
D28*
G01*
X4044950Y16392474D03*
G01*
X3795013Y16297478D03*
G01*
X3795013Y16487470D03*
G01*
X3795013Y16837456D03*
G01*
X4044950Y16932452D03*
G01*
X4044950Y16742460D03*
G01*
X3795013Y15962477D03*
G01*
X4044950Y16057473D03*
G01*
X4044950Y15867481D03*
G36*
X3188393Y16602461D02*
G01*
X3241591Y16602461D01*
X3241591Y16497960D01*
X3188393Y16497960D01*
G37*
G36*
X3283394Y16602461D02*
G01*
X3336592Y16602461D01*
X3336592Y16497960D01*
X3283394Y16497960D01*
G37*
G36*
X3378390Y16602461D02*
G01*
X3431588Y16602461D01*
X3431588Y16497960D01*
X3378390Y16497960D01*
G37*
G36*
X3378390Y16831975D02*
G01*
X3431588Y16831975D01*
X3431588Y16727474D01*
X3378390Y16727474D01*
G37*
G36*
X3188398Y16831975D02*
G01*
X3241596Y16831975D01*
X3241596Y16727474D01*
X3188398Y16727474D01*
G37*
D21*
G01*
X2227402Y15799968D03*
G01*
X2397582Y15799968D03*
G01*
X2802381Y15799968D03*
G01*
X2972561Y15799968D03*
D22*
G01*
X2602509Y15749955D03*
G01*
X2602509Y15849955D03*
M02*
